<?xml version="1.0" encoding="UTF-8"?>
<svg id="Baitcon" xmlns="http://www.w3.org/2000/svg" width="88.67mm" height="23.46mm" viewBox="0 0 251.35 66.5">
  <defs>
    <style>
      .cls-1 {
        fill: #fff;
      }
    </style>
  </defs>
  <g>
    <path class="cls-1" d="M80.98,41.81h-5.85v-13.98h5.61c2.73,0,4.32,1.53,4.32,3.93,0,1.55-1.02,2.55-1.73,2.89,.84,.39,1.92,1.28,1.92,3.14,0,2.61-1.79,4.02-4.28,4.02Zm-.45-11.54h-2.67v3.22h2.67c1.16,0,1.81-.65,1.81-1.61s-.65-1.61-1.81-1.61Zm.18,5.67h-2.85v3.43h2.85c1.24,0,1.83-.78,1.83-1.73s-.59-1.71-1.83-1.71Z"/>
    <path class="cls-1" d="M96.48,41.81l-.82-2.47h-4.97l-.84,2.47h-2.85l5.08-13.98h2.14l5.1,13.98h-2.85Zm-3.26-9.85l-1.77,5.08h3.47l-1.71-5.08Z"/>
    <path class="cls-1" d="M101.54,41.81v-13.98h2.73v13.98h-2.73Z"/>
    <path class="cls-1" d="M113.35,30.26v11.54h-2.73v-11.54h-3.65v-2.43h10.03v2.43h-3.65Z"/>
    <path class="cls-1" d="M124.46,41.92c-1.37,0-2.63-.51-3.57-1.45-1.32-1.32-1.32-2.69-1.32-5.65s0-4.34,1.32-5.65c.94-.94,2.2-1.45,3.57-1.45,2.51,0,4.38,1.53,4.85,4.16h-1.53c-.37-1.71-1.57-2.83-3.32-2.83-.92,0-1.81,.35-2.41,.98-.88,.9-.98,1.87-.98,4.79s.1,3.89,.98,4.79c.61,.63,1.49,.98,2.41,.98,1.75,0,2.98-1.12,3.36-2.83h1.49c-.45,2.63-2.35,4.16-4.85,4.16Z"/>
    <path class="cls-1" d="M141.02,40.47c-.94,.94-2.18,1.45-3.57,1.45s-2.63-.51-3.57-1.45c-1.32-1.32-1.32-2.69-1.32-5.65s0-4.34,1.32-5.65c.94-.94,2.18-1.45,3.57-1.45s2.63,.51,3.57,1.45c1.32,1.32,1.32,2.69,1.32,5.65s0,4.34-1.32,5.65Zm-1.16-10.42c-.61-.63-1.49-1-2.41-1s-1.81,.37-2.41,1c-.88,.9-.98,1.85-.98,4.77s.1,3.87,.98,4.77c.61,.63,1.49,1,2.41,1s1.81-.37,2.41-1c.88-.9,.98-1.84,.98-4.77s-.1-3.87-.98-4.77Z"/>
    <path class="cls-1" d="M155.25,41.81l-7.42-11.21v11.21h-1.49v-13.98h1.41l7.42,11.17v-11.17h1.49v13.98h-1.41Z"/>
  </g>
  <path class="cls-1" d="M80.79,59.39v-5.47h1.15v5.46c0,1.29-.29,2.26-.86,2.9-.57,.64-1.4,.96-2.48,.96s-1.9-.32-2.48-.95-.86-1.6-.86-2.89v-5.47h1.15v5.47c0,.97,.18,1.68,.54,2.13,.36,.45,.91,.67,1.65,.67s1.29-.22,1.65-.67c.36-.45,.54-1.16,.54-2.13Z"/>
  <path class="cls-1" d="M85.01,63.13h-1.07v-6.68h1.07v.65c.19-.28,.41-.47,.68-.59,.27-.12,.64-.17,1.11-.17,.77,0,1.37,.22,1.8,.65,.42,.43,.63,1.09,.63,1.97v4.17h-1.07v-4.15c0-1.09-.51-1.64-1.52-1.64-.48,0-.87,.15-1.18,.45-.3,.3-.45,.69-.45,1.18v4.17Z"/>
  <path class="cls-1" d="M90.63,61.18c0-1.27,.83-1.91,2.5-1.91h1.59v-.77c0-.44-.11-.75-.33-.91-.22-.16-.6-.25-1.15-.25-.46,0-.8,.04-1.01,.13-.21,.09-.41,.27-.59,.55l-.8-.56c.24-.4,.55-.69,.91-.85s.87-.25,1.5-.25c.89,0,1.54,.17,1.94,.49s.6,.88,.6,1.66v4.63h-1.07v-.65c-.18,.29-.39,.49-.63,.6-.25,.11-.6,.16-1.06,.16-.77,0-1.36-.18-1.77-.54-.41-.36-.62-.87-.62-1.52Zm4.09-.61v-.39h-1.59c-.5,0-.86,.08-1.09,.25-.23,.17-.34,.43-.34,.78,0,.69,.44,1.04,1.32,1.04,.56,0,.98-.11,1.27-.32,.28-.23,.43-.69,.43-1.36Z"/>
  <path class="cls-1" d="M104.89,61.53l.83,.59c-.23,.4-.53,.69-.9,.86-.37,.17-.85,.26-1.44,.26-.89,0-1.59-.27-2.1-.81-.51-.54-.76-1.28-.76-2.21v-.88c0-.96,.23-1.7,.68-2.22s1.11-.77,1.96-.77,1.53,.26,1.98,.77c.45,.51,.67,1.25,.67,2.22v.69h-4.22v.19c0,.62,.15,1.12,.44,1.5,.29,.37,.72,.56,1.27,.56,.77,0,1.3-.25,1.59-.75Zm-1.72-4.22c-.98,0-1.51,.6-1.58,1.79h3.14c-.05-1.19-.57-1.79-1.56-1.79Z"/>
  <path class="cls-1" d="M108.44,63.13h-1.07v-6.68h1.07v.65c.33-.51,.88-.76,1.66-.76,.92,0,1.57,.35,1.95,1.05,.45-.7,1.12-1.05,2-1.05,.73,0,1.3,.23,1.7,.67,.4,.45,.6,1.1,.6,1.94v4.17h-1.07v-4.15c0-1.09-.46-1.64-1.39-1.64-.43,0-.78,.15-1.07,.46-.28,.31-.43,.7-.43,1.17v4.17h-1.07v-4.15c0-1.09-.46-1.64-1.39-1.64-.43,0-.78,.16-1.07,.47-.29,.31-.43,.7-.43,1.16v4.17Z"/>
  <path class="cls-1" d="M119.15,56.45v.67c.37-.52,.98-.77,1.82-.77s1.49,.26,1.96,.78c.47,.52,.71,1.26,.71,2.21v.88c0,.93-.23,1.66-.69,2.2s-1.12,.81-1.98,.81-1.44-.26-1.82-.77v3.2h-1.07v-9.21h1.07Zm1.71,5.82c.53,0,.95-.19,1.26-.57,.3-.38,.45-.88,.45-1.48v-.88c0-.64-.15-1.14-.45-1.5s-.72-.53-1.26-.53-.95,.17-1.26,.51c-.3,.34-.45,.82-.45,1.42v.97c0,.63,.14,1.13,.43,1.5,.29,.37,.71,.55,1.27,.55Z"/>
  <path class="cls-1" d="M129.57,57.25l-.91,.64c-.27-.37-.64-.56-1.12-.56-.43,0-.77,.15-1.03,.45-.26,.3-.39,.69-.39,1.17v4.18h-1.07v-6.68h1.07v.65c.31-.51,.83-.76,1.55-.76,.85,0,1.48,.3,1.91,.91Z"/>
  <path class="cls-1" d="M134.33,61.53l.83,.59c-.23,.4-.53,.69-.9,.86-.37,.17-.85,.26-1.44,.26-.89,0-1.59-.27-2.1-.81-.51-.54-.76-1.28-.76-2.21v-.88c0-.96,.23-1.7,.68-2.22s1.11-.77,1.96-.77,1.53,.26,1.98,.77c.45,.51,.67,1.25,.67,2.22v.69h-4.22v.19c0,.62,.15,1.12,.44,1.5,.29,.37,.72,.56,1.27,.56,.77,0,1.3-.25,1.59-.75Zm-1.72-4.22c-.98,0-1.51,.6-1.58,1.79h3.14c-.05-1.19-.57-1.79-1.56-1.79Z"/>
  <path class="cls-1" d="M141.37,57.45l-.8,.56c-.19-.25-.4-.42-.64-.53-.24-.1-.58-.15-1.01-.15-.4,0-.72,.08-.95,.23s-.35,.38-.35,.66c0,.63,.52,.98,1.55,1.05,.68,.05,1.24,.21,1.66,.45,.5,.28,.75,.79,.75,1.54,0,.62-.21,1.11-.64,1.45-.43,.34-1.05,.51-1.87,.51-1.18,0-2.04-.37-2.58-1.11l.79-.56c.19,.24,.42,.41,.69,.52,.27,.11,.64,.16,1.12,.16,.45,0,.79-.08,1.05-.25s.38-.4,.38-.7c0-.36-.13-.61-.37-.77s-.7-.26-1.35-.3c-1.49-.11-2.23-.77-2.23-1.99,0-.58,.21-1.04,.63-1.38,.42-.34,1.01-.51,1.76-.51,1.15,0,1.96,.37,2.43,1.11Z"/>
  <path class="cls-1" d="M142.71,61.18c0-1.27,.83-1.91,2.5-1.91h1.59v-.77c0-.44-.11-.75-.33-.91-.22-.16-.6-.25-1.15-.25-.46,0-.8,.04-1.01,.13-.21,.09-.41,.27-.59,.55l-.8-.56c.24-.4,.55-.69,.91-.85s.87-.25,1.5-.25c.89,0,1.54,.17,1.94,.49s.6,.88,.6,1.66v4.63h-1.07v-.65c-.18,.29-.39,.49-.63,.6-.25,.11-.6,.16-1.06,.16-.77,0-1.36-.18-1.77-.54-.41-.36-.62-.87-.62-1.52Zm4.09-.61v-.39h-1.59c-.5,0-.86,.08-1.09,.25-.23,.17-.34,.43-.34,.78,0,.69,.44,1.04,1.32,1.04,.56,0,.98-.11,1.27-.32,.28-.23,.43-.69,.43-1.36Z"/>
  <path class="cls-1" d="M157.09,57.12v-3.2h1.07v9.21h-1.07v-.59c-.36,.46-.96,.69-1.82,.69s-1.51-.27-1.98-.81-.69-1.28-.69-2.2v-.88c0-.94,.24-1.68,.71-2.2,.47-.52,1.13-.79,1.96-.79s1.44,.26,1.82,.77Zm-1.71,5.15c.55,0,.97-.18,1.27-.53s.44-.83,.44-1.44v-.97c0-.63-.15-1.13-.45-1.49-.3-.36-.72-.54-1.26-.54s-.96,.18-1.26,.53c-.3,.36-.45,.85-.45,1.5v.88c0,.61,.15,1.1,.45,1.48,.3,.38,.72,.57,1.26,.57Z"/>
  <path class="cls-1" d="M163.92,61.53l.83,.59c-.23,.4-.53,.69-.9,.86-.37,.17-.85,.26-1.44,.26-.89,0-1.59-.27-2.1-.81-.51-.54-.76-1.28-.76-2.21v-.88c0-.96,.23-1.7,.68-2.22s1.11-.77,1.96-.77,1.53,.26,1.98,.77c.45,.51,.67,1.25,.67,2.22v.69h-4.22v.19c0,.62,.15,1.12,.44,1.5,.29,.37,.72,.56,1.27,.56,.77,0,1.3-.25,1.59-.75Zm-1.72-4.22c-.98,0-1.51,.6-1.58,1.79h3.14c-.05-1.19-.57-1.79-1.56-1.79Z"/>
  <path class="cls-1" d="M173,59.75v-1.35h3.35v.71c0,1.39-.29,2.43-.88,3.11s-1.42,1.03-2.52,1.03-1.94-.35-2.54-1.04c-.6-.69-.9-1.73-.9-3.1v-1.11c0-1.4,.3-2.45,.9-3.15s1.45-1.05,2.54-1.05c.93,0,1.69,.26,2.27,.77,.58,.51,.94,1.25,1.08,2.21h-1.5c-.23-1.09-.85-1.63-1.86-1.63-.64,0-1.12,.23-1.43,.67-.31,.45-.47,1.15-.47,2.12v1.18c0,.96,.16,1.67,.47,2.12,.31,.45,.79,.67,1.43,.67,.59,0,1.03-.18,1.34-.53,.3-.35,.48-.89,.53-1.62h-1.83Z"/>
  <path class="cls-1" d="M182.87,59.14l1.96,3.99h-1.71l-1.78-3.74h-1.79v3.74h-1.55v-9.21h3.14c1.09,0,1.92,.24,2.51,.71,.59,.47,.88,1.15,.88,2.04,0,1.25-.56,2.07-1.67,2.47Zm-3.31-3.87v2.79h1.48c.69,0,1.18-.11,1.49-.32,.31-.21,.46-.57,.46-1.07s-.15-.86-.46-1.07c-.31-.22-.8-.33-1.49-.33h-1.48Z"/>
  <path class="cls-1" d="M191.51,59.4v-5.49h1.55v5.47c0,1.28-.3,2.25-.9,2.89-.6,.65-1.45,.97-2.54,.97s-1.94-.32-2.54-.96c-.6-.64-.9-1.6-.9-2.88v-5.49h1.55v5.49c0,.86,.15,1.5,.46,1.9,.31,.4,.79,.6,1.44,.6s1.13-.2,1.44-.6c.31-.4,.46-1.03,.46-1.9Z"/>
  <path class="cls-1" d="M198.23,59.76h-1.59v3.36h-1.55v-9.21h3.14c1.08,0,1.91,.25,2.5,.75s.89,1.22,.89,2.16-.3,1.66-.89,2.17-1.43,.77-2.5,.77Zm-1.59-4.5v3.17h1.43c1.34,0,2-.53,2-1.6s-.67-1.56-2-1.56h-1.43Z"/>
  <path class="cls-1" d="M209.48,57.93v1.18c0,1.37-.3,2.4-.91,3.1-.61,.69-1.46,1.04-2.55,1.04s-1.94-.35-2.54-1.04c-.6-.69-.9-1.73-.9-3.1v-1.18c0-1.37,.3-2.4,.9-3.1,.6-.69,1.45-1.04,2.54-1.04s1.95,.35,2.55,1.04c.6,.69,.91,1.73,.91,3.1Zm-5.35,0v1.18c0,.96,.16,1.67,.47,2.12,.31,.45,.79,.67,1.43,.67s1.12-.23,1.44-.67c.32-.45,.47-1.15,.47-2.12v-1.18c0-.96-.16-1.67-.47-2.12-.32-.45-.79-.67-1.44-.67s-1.12,.23-1.43,.67c-.31,.45-.47,1.15-.47,2.12Z"/>
  <path class="cls-1" d="M217.59,63.13h-3.11v-9.21h3.11c2.31,0,3.46,1.35,3.46,4.06v1.09c0,2.71-1.15,4.06-3.46,4.06Zm-1.56-1.34h1.56c.66,0,1.14-.22,1.45-.65,.31-.44,.46-1.13,.46-2.07v-1.09c0-.94-.15-1.63-.46-2.06-.31-.43-.79-.65-1.45-.65h-1.56v6.53Z"/>
  <path class="cls-1" d="M223.85,61.22l-.63,1.91h-1.66l3.2-9.21h1.47l3.2,9.21h-1.64l-.63-1.91h-3.32Zm2.88-1.34l-1.23-3.73-1.23,3.73h2.46Z"/>
  <path class="cls-1" d="M229.13,55.26v-1.35h6.85v1.35h-2.64v7.87h-1.55v-7.87h-2.66Z"/>
  <path class="cls-1" d="M243.45,56.77h-1.5c-.23-1.09-.85-1.63-1.86-1.63-.64,0-1.12,.23-1.43,.67-.31,.45-.47,1.15-.47,2.12v1.18c0,1.86,.63,2.79,1.9,2.79,.53,0,.93-.13,1.23-.39s.5-.67,.63-1.24h1.48c-.29,1.99-1.41,2.98-3.34,2.98-1.09,0-1.94-.35-2.54-1.04-.6-.69-.9-1.73-.9-3.1v-1.18c0-1.37,.3-2.4,.9-3.1,.6-.69,1.45-1.04,2.54-1.04,.93,0,1.69,.25,2.26,.75,.57,.5,.94,1.24,1.09,2.22Z"/>
  <path class="cls-1" d="M251.35,57.93v1.18c0,1.37-.3,2.4-.91,3.1-.61,.69-1.46,1.04-2.55,1.04s-1.94-.35-2.54-1.04c-.6-.69-.9-1.73-.9-3.1v-1.18c0-1.37,.3-2.4,.9-3.1,.6-.69,1.45-1.04,2.54-1.04s1.95,.35,2.55,1.04c.6,.69,.91,1.73,.91,3.1Zm-5.35,0v1.18c0,.96,.16,1.67,.47,2.12,.31,.45,.79,.67,1.43,.67s1.12-.23,1.44-.67c.32-.45,.47-1.15,.47-2.12v-1.18c0-.96-.16-1.67-.47-2.12-.32-.45-.79-.67-1.44-.67s-1.12,.23-1.43,.67c-.31,.45-.47,1.15-.47,2.12Z"/>
  <path class="cls-1" d="M38.17,25.25l-4.55,4.55,5.81,5.81,4.55-4.55c2.01-2.01,1.9-4.36,.21-6.05-1.69-1.69-4.02-1.77-6.03,.24Z"/>
  <path class="cls-1" d="M38.06,1.99c-2.66-2.66-6.96-2.66-9.62,0L1.99,28.44C.66,29.77,0,31.51,0,33.26c0,1.74,.67,3.48,1.99,4.8l26.45,26.45c2.66,2.66,6.96,2.66,9.62,0l26.45-26.45c1.33-1.33,1.99-3.07,1.99-4.81,0-1.74-.66-3.48-1.99-4.81L38.06,1.99Zm8.78,31.4l-7.71,7.71L20.06,22.03l7.42-7.42c3.53-3.53,7.77-3.75,10.98-.53,2.06,2.06,2.25,4.82,1.47,6.61,2.06-.88,4.88-.86,7.28,1.55,3.51,3.51,3,7.77-.37,11.14Z"/>
  <path class="cls-1" d="M35.68,17.08c-1.77-1.77-3.99-1.47-5.84,.37l-4.28,4.29,5.46,5.46,4.28-4.29c1.85-1.85,2.14-4.07,.38-5.84Z"/>
</svg>