<?xml version="1.0" encoding="UTF-8"?><svg id="Baitcon" xmlns="http://www.w3.org/2000/svg" viewBox="0 0 79.79 79.79"><defs><style>.cls-1{fill:#fff;}.cls-2{fill:#89388d;}</style></defs><path class="cls-2" d="m77.4,34.12L45.67,2.39c-3.19-3.19-8.35-3.19-11.54,0L2.39,34.12C.79,35.72,0,37.81,0,39.9c0,2.09.8,4.17,2.39,5.76l31.74,31.74c3.19,3.19,8.35,3.19,11.54,0l31.74-31.74c1.59-1.59,2.39-3.68,2.39-5.77,0-2.09-.8-4.18-2.39-5.77Z"/><path class="cls-1" d="m56.21,40.06l-9.26,9.25-22.88-22.88,8.9-8.9c4.24-4.24,9.32-4.5,13.18-.64,2.47,2.47,2.7,5.78,1.77,7.94,2.47-1.06,5.85-1.03,8.74,1.86,4.21,4.21,3.6,9.32-.45,13.37Z"/><path class="cls-2" d="m45.79,30.29l-5.46,5.46,6.97,6.97,5.46-5.46c2.41-2.41,2.28-5.24.26-7.26s-4.82-2.12-7.23.29Z"/><path class="cls-2" d="m42.81,20.49c-2.12-2.12-4.79-1.77-7.01.45l-5.14,5.14,6.56,6.56,5.14-5.14c2.22-2.22,2.57-4.88.45-7Z"/></svg>