<?xml version="1.0" encoding="UTF-8"?><svg id="Baitcon" xmlns="http://www.w3.org/2000/svg" xmlns:xlink="http://www.w3.org/1999/xlink" viewBox="0 0 272.58 66.5"><defs><style>.cls-1{fill:#bcbebf;}.cls-2{fill:#fff;}.cls-3{fill:url(#Degradado_sin_nombre_11);}.cls-4{clip-path:url(#clippath-1);}.cls-5{fill:url(#Degradado_sin_nombre_10);}.cls-6{isolation:isolate;opacity:.4;}.cls-7{clip-path:url(#clippath);}.cls-8{fill:none;}.cls-9{fill:url(#Degradado_sin_nombre_9);}</style><clipPath id="clippath"><polygon class="cls-8" points="241.03 26.67 210.25 57.45 211.29 57.03 241.24 27.08 272.09 27.08 272.58 26.67 241.03 26.67"/></clipPath><linearGradient id="Degradado_sin_nombre_11" x1="-1330.48" y1="366.98" x2="-1329.78" y2="366.98" gradientTransform="translate(-15968.05 58792.97) rotate(90) scale(44.17 -44.17)" gradientUnits="userSpaceOnUse"><stop offset="0" stop-color="#fae3a6"/><stop offset=".05" stop-color="#fae3a6"/><stop offset=".5" stop-color="#f5dca4"/><stop offset="1" stop-color="#ecce9f"/></linearGradient><clipPath id="clippath-1"><polygon class="cls-8" points="272.09 27.08 241.24 27.08 211.29 57.03 210.25 57.45 272.58 57.45 272.58 26.67 272.09 27.08"/></clipPath><linearGradient id="Degradado_sin_nombre_10" x1="-1330.48" y1="366.98" x2="-1329.78" y2="366.98" gradientTransform="translate(-15968.05 58792.97) rotate(90) scale(44.17 -44.17)" gradientUnits="userSpaceOnUse"><stop offset="0" stop-color="#f3c323"/><stop offset=".05" stop-color="#f3c323"/><stop offset=".68" stop-color="#dfa92b"/><stop offset="1" stop-color="#d49a2f"/></linearGradient><linearGradient id="Degradado_sin_nombre_9" x1="-1330.3" y1="367.2" x2="-1329.6" y2="367.2" gradientTransform="translate(-16000.21 58766.32) rotate(90) scale(44.17 -44.17)" gradientUnits="userSpaceOnUse"><stop offset="0" stop-color="#25ade1"/><stop offset=".23" stop-color="#1b95cf"/><stop offset=".51" stop-color="#127ebd"/><stop offset=".77" stop-color="#0c70b3"/><stop offset="1" stop-color="#0a6baf"/></linearGradient></defs><path class="cls-2" d="m85.25,37.78c0-1.86-1.08-2.75-1.92-3.14.71-.33,1.73-1.34,1.73-2.89,0-2.4-1.59-3.93-4.32-3.93h-5.61v13.98h5.85c2.49,0,4.28-1.41,4.28-4.02Zm-7.4-7.52h2.67c1.16,0,1.81.65,1.81,1.61s-.65,1.61-1.81,1.61h-2.67v-3.22Zm0,9.11v-3.43h2.85c1.24,0,1.83.77,1.83,1.71s-.59,1.73-1.83,1.73h-2.85Z"/><path class="cls-2" d="m92.08,27.83l-5.08,13.98h2.85l.84-2.47h4.97l.82,2.47h2.85l-5.1-13.98h-2.14Zm-.63,9.21l1.77-5.08,1.71,5.08h-3.47Z"/><rect class="cls-2" x="101.54" y="27.83" width="2.73" height="13.98"/><polygon class="cls-2" points="106.97 30.26 110.62 30.26 110.62 41.8 113.35 41.8 113.35 30.26 117 30.26 117 27.83 106.97 27.83 106.97 30.26"/><path class="cls-2" d="m129.31,37.76h-1.49c-.37,1.71-1.61,2.83-3.36,2.83-.92,0-1.81-.35-2.41-.98-.88-.9-.98-1.86-.98-4.79s.1-3.89.98-4.79c.61-.63,1.49-.98,2.41-.98,1.75,0,2.94,1.12,3.32,2.83h1.53c-.47-2.63-2.34-4.16-4.85-4.16-1.37,0-2.63.51-3.57,1.45-1.32,1.32-1.32,2.69-1.32,5.65s0,4.34,1.32,5.65c.94.94,2.2,1.45,3.57,1.45,2.49,0,4.4-1.53,4.85-4.16Z"/><path class="cls-2" d="m137.45,27.71c-1.39,0-2.63.51-3.57,1.45-1.32,1.32-1.32,2.69-1.32,5.65s0,4.34,1.32,5.65c.94.94,2.18,1.45,3.57,1.45s2.63-.51,3.57-1.45c1.32-1.32,1.32-2.69,1.32-5.65s0-4.34-1.32-5.65c-.94-.94-2.18-1.45-3.57-1.45Zm2.41,11.88c-.61.63-1.49,1-2.41,1s-1.81-.37-2.41-1c-.88-.9-.98-1.84-.98-4.77s.1-3.87.98-4.77c.61-.63,1.49-1,2.41-1s1.81.37,2.41,1c.88.9.98,1.85.98,4.77s-.1,3.87-.98,4.77Z"/><polygon class="cls-2" points="147.83 30.6 155.25 41.8 156.66 41.8 156.66 27.83 155.17 27.83 155.17 39 147.75 27.83 146.34 27.83 146.34 41.8 147.83 41.8 147.83 30.6"/><path class="cls-2" d="m38.06,1.99c-2.66-2.66-6.96-2.66-9.62,0L1.99,28.44C.66,29.77,0,31.51,0,33.26c0,1.74.67,3.48,1.99,4.8l26.45,26.45c2.66,2.66,6.96,2.66,9.62,0l26.45-26.45c1.33-1.33,1.99-3.07,1.99-4.81,0-1.74-.66-3.48-1.99-4.81L38.06,1.99Zm8.78,31.4l-7.71,7.71-19.07-19.07,7.42-7.42c3.53-3.53,7.77-3.75,10.98-.53,2.06,2.06,2.25,4.82,1.47,6.61,2.06-.88,4.88-.86,7.28,1.55,3.51,3.51,3,7.77-.37,11.14Z"/><path class="cls-2" d="m38.17,25.25l-4.55,4.55,5.81,5.81,4.55-4.55c2.01-2.01,1.9-4.36.21-6.05-1.69-1.69-4.02-1.77-6.03.24Z"/><path class="cls-2" d="m35.68,17.08c-1.77-1.77-3.99-1.47-5.84.37l-4.28,4.29,5.46,5.46,4.28-4.29c1.85-1.85,2.14-4.07.38-5.84Z"/><g class="cls-6"><rect class="cls-2" x="171.67" y="5.6" width="1.26" height="55.3"/></g><polygon class="cls-1" points="187.98 7.89 187.98 38.74 272.58 57.45 272.58 26.67 187.98 7.89"/><g class="cls-7"><polygon class="cls-3" points="241.03 26.67 272.58 26.67 272.58 57.52 210.25 57.52 241.03 26.67"/></g><g class="cls-4"><polygon class="cls-5" points="241.03 26.67 272.58 26.67 272.58 57.52 210.25 57.52 241.03 26.67"/></g><path class="cls-2" d="m234.26,51.44v-7.19h2.58c1.54,0,2.93.42,2.93,2.3s-1.54,2.3-2.93,2.3h-.98v2.58h-1.61Zm1.61-3.77h1.05c.98,0,1.33-.35,1.33-1.05s-.28-1.05-1.33-1.05h-1.05v2.09Z"/><path class="cls-2" d="m240.05,50.12c0-1.19.98-1.88,3.28-2.02v-.14c0-.35-.21-.63-.7-.63-.63,0-1.19.21-1.68.63l-.63-.91c.7-.63,1.61-.98,2.58-.91,1.4,0,2.02.7,2.02,2.02v1.95c0,.42,0,.84.14,1.26h-1.54c-.07-.28-.14-.49-.14-.77-.42.56-1.12.84-1.81.84-.77.07-1.4-.56-1.47-1.33-.14.07-.14,0-.07,0m3.21-.21v-.98c-1.26.14-1.74.42-1.74.91,0,.35.21.49.56.49.49,0,.91-.14,1.19-.42"/><path class="cls-2" d="m245.98,51.44v-5.16h1.54v.84h0c.35-.63,1.05-.98,1.74-.98h.07v1.4h-.42c-.56,0-1.05.28-1.4.7v3.21h-1.54Z"/><path class="cls-2" d="m250.59,49.98v-2.58h-.84v-1.12h.84v-1.81h1.54v1.81h1.33v1.12h-1.33v2.23c0,.56.14.7.7.7.14,0,.35,0,.49-.07v1.12c-.35.07-.7.07-1.05.07-1.54,0-1.74-.56-1.68-1.47"/><path class="cls-2" d="m254.29,51.44v-5.16h1.54v.84c.42-.56,1.05-.91,1.81-.91.77-.14,1.4.42,1.54,1.12v4.12h-1.61v-3.28c0-.49-.21-.7-.63-.7s-.84.21-1.12.49v3.49h-1.54Z"/><path class="cls-2" d="m259.94,48.86c-.07-1.4.98-2.58,2.37-2.72h.21c1.05,0,2.37.56,2.37,2.86v.21h-3.42c-.07.63.42,1.12,1.05,1.19h.14c.56,0,1.12-.21,1.54-.63l.63.91c-.63.56-1.47.77-2.23.77-1.33.14-2.51-.84-2.65-2.23v-.35m3.63-.56c-.07-.7-.42-1.05-.98-1.05s-.91.35-1.05,1.05h2.02Z"/><path class="cls-2" d="m265.81,51.44v-5.16h1.54v.84h0c.35-.63,1.05-.98,1.74-.98h.07v1.4h-.42c-.56,0-1.05.28-1.4.7v3.21h-1.54Z"/><path class="cls-2" d="m247.52,38.67c0-2.23,1.26-3.7,3.28-3.7,1.4-.14,2.72.91,2.93,2.3l-1.47.42c-.28-.98-.77-1.4-1.47-1.4-.56,0-1.68.35-1.68,2.37s.98,2.51,1.74,2.51,1.4-.56,1.47-1.26h-1.26v-1.19h2.72v3.63h-1.26v-.98h0c-.35.7-1.05,1.19-1.88,1.12-2.09-.07-3.07-1.68-3.14-3.84"/><path class="cls-2" d="m254.78,39.72c0-1.47,1.19-2.65,2.65-2.65s2.65,1.19,2.65,2.65-1.19,2.65-2.65,2.65-2.65-1.19-2.65-2.65m3.7,0c0-.84-.28-1.54-1.05-1.54s-1.12.63-1.12,1.54.28,1.61,1.12,1.61,1.05-.63,1.05-1.61"/><rect class="cls-2" x="260.99" y="35.11" width="1.54" height="7.19"/><path class="cls-2" d="m263.57,39.72c0-1.81.84-2.72,2.02-2.72.63,0,1.19.28,1.61.77v-2.65h1.54v5.93c0,.42,0,.84.14,1.26h-1.61c-.07-.28-.14-.49-.14-.77-.35.56-.98.84-1.61.84-1.12,0-1.95-.84-1.95-2.65m3.63.98v-1.88c-.28-.28-.63-.49-1.05-.49-.63,0-.98.49-.98,1.47s.28,1.47.98,1.47c.42-.07.77-.28,1.05-.56"/><polygon class="cls-9" points="187.98 7.89 250.31 7.89 219.46 38.74 187.98 38.74 187.98 7.89"/><path class="cls-2" d="m224.97,13.68h-6.14v14.59l-5.37-14.59h-5.3l-4.61,12.21c-.49-3.07-3.7-4.12-6.14-4.96-1.68-.56-3.42-1.33-3.42-2.16,0-.7.98-1.4,2.79-1.26,1.54.07,3.14.49,4.47,1.19l2.09-3.7c-2.16-1.05-4.54-1.61-6.98-1.68h0c-2.23-.14-4.47.7-6.14,2.23-.91.98-1.47,2.23-1.47,3.56-.14,1.68.7,3.35,2.09,4.26,1.26.84,2.72,1.47,4.19,1.88,1.68.56,3.07.98,3.07,1.95,0,.35-.14.7-.42.98-.56.49-1.26.7-1.95.63-1.68.14-3.49-.42-4.96-1.4l-1.95,3.77c2.09,1.19,4.54,1.81,6.91,1.88h.35c1.88,0,3.77-.63,5.3-1.74l.21-.21-.63,1.61h5.58l.91-2.86c1.05.35,2.16.56,3.28.49,1.12,0,2.16-.14,3.21-.49l.91,2.79h9.07v-5.86h1.95c4.82,0,7.61-2.44,7.61-6.56.07-4.47-2.65-6.56-8.52-6.56m-14.17,12.49c-.7,0-1.33-.14-1.95-.35l1.95-6.14h0l1.88,6.14c-.63.21-1.26.35-1.88.35m14.52-3.56h-1.33v-4.96h1.33c1.81,0,3.21.63,3.21,2.44s-1.4,2.51-3.21,2.51"/></svg>