<svg id="Datco" xmlns="http://www.w3.org/2000/svg" viewBox="0 0 251.35 66.5"><defs><style>.cls-1{fill:#fff;}</style></defs><path class="cls-1" d="M80.79,59.39V53.91h1.15v5.47a4.18,4.18,0,0,1-.87,2.89,3.66,3.66,0,0,1-4.95,0,4.23,4.23,0,0,1-.86-2.89V53.91h1.15v5.48A3.4,3.4,0,0,0,77,61.52a2.37,2.37,0,0,0,3.3,0A3.4,3.4,0,0,0,80.79,59.39Z"/><path class="cls-1" d="M85,63.13H83.94V56.45H85v.66a1.48,1.48,0,0,1,.68-.59,2.76,2.76,0,0,1,1.11-.18,2.4,2.4,0,0,1,1.79.65,2.69,2.69,0,0,1,.64,2v4.17H88.16V59c0-1.1-.51-1.65-1.52-1.65A1.56,1.56,0,0,0,85,59Z"/><path class="cls-1" d="M90.63,61.18c0-1.27.83-1.91,2.5-1.91h1.58v-.78a1.07,1.07,0,0,0-.32-.91,2.05,2.05,0,0,0-1.16-.25,2.75,2.75,0,0,0-1,.14,1.35,1.35,0,0,0-.59.54l-.8-.56a2.06,2.06,0,0,1,.91-.85,3.66,3.66,0,0,1,1.51-.26,3,3,0,0,1,1.93.5,2,2,0,0,1,.6,1.65v4.64H94.71v-.66a1.29,1.29,0,0,1-.63.6,2.65,2.65,0,0,1-1.06.17,2.6,2.6,0,0,1-1.77-.55A1.9,1.9,0,0,1,90.63,61.18Zm4.08-.62v-.38H93.13a1.93,1.93,0,0,0-1.09.24.91.91,0,0,0-.34.79c0,.69.44,1,1.32,1a2.14,2.14,0,0,0,1.27-.32A1.75,1.75,0,0,0,94.71,60.56Z"/><path class="cls-1" d="M104.89,61.53l.83.58a2,2,0,0,1-.9.86,3.3,3.3,0,0,1-1.44.27,2.75,2.75,0,0,1-2.1-.81,3.14,3.14,0,0,1-.76-2.21v-.88a3.27,3.27,0,0,1,.68-2.22,2.89,2.89,0,0,1,3.94,0,3.28,3.28,0,0,1,.67,2.23V60h-4.22v.19a2.36,2.36,0,0,0,.44,1.49,1.51,1.51,0,0,0,1.27.56A1.69,1.69,0,0,0,104.89,61.53Zm-1.72-4.22c-1,0-1.51.59-1.58,1.79h3.14C104.68,57.9,104.15,57.31,103.17,57.31Z"/><path class="cls-1" d="M108.44,63.13h-1.07V56.45h1.07v.66a1.82,1.82,0,0,1,1.66-.77,2.06,2.06,0,0,1,2,1.06,2.24,2.24,0,0,1,2-1.06,2.14,2.14,0,0,1,1.69.68,2.79,2.79,0,0,1,.61,1.94v4.17h-1.07V59c0-1.1-.46-1.65-1.39-1.65a1.43,1.43,0,0,0-1.07.46,1.69,1.69,0,0,0-.43,1.17v4.17h-1.06V59c0-1.1-.47-1.65-1.39-1.65a1.39,1.39,0,0,0-1.07.47,1.63,1.63,0,0,0-.43,1.16Z"/><path class="cls-1" d="M119.15,56.45v.67a2.08,2.08,0,0,1,1.82-.78,2.52,2.52,0,0,1,2,.79,3.17,3.17,0,0,1,.71,2.21v.88a3.25,3.25,0,0,1-.7,2.2,2.46,2.46,0,0,1-2,.82,2.08,2.08,0,0,1-1.82-.78v3.21h-1.07V56.45Zm1.71,5.82a1.51,1.51,0,0,0,1.25-.57,2.28,2.28,0,0,0,.46-1.48v-.88a2.26,2.26,0,0,0-.45-1.5,1.54,1.54,0,0,0-1.26-.53,1.61,1.61,0,0,0-1.26.51,2.09,2.09,0,0,0-.45,1.42v1a2.37,2.37,0,0,0,.43,1.5A1.53,1.53,0,0,0,120.86,62.27Z"/><path class="cls-1" d="M129.57,57.25l-.91.64a1.41,1.41,0,0,0-2.16-.11,1.72,1.72,0,0,0-.39,1.17v4.18H125V56.45h1.07v.66a1.68,1.68,0,0,1,1.55-.77A2.21,2.21,0,0,1,129.57,57.25Z"/><path class="cls-1" d="M134.33,61.53l.83.58a2,2,0,0,1-.9.86,3.3,3.3,0,0,1-1.44.27,2.73,2.73,0,0,1-2.09-.81,3.09,3.09,0,0,1-.76-2.21v-.88a3.22,3.22,0,0,1,.68-2.22,2.46,2.46,0,0,1,2-.78,2.5,2.5,0,0,1,2,.77,3.34,3.34,0,0,1,.66,2.23V60H131v.19a2.3,2.3,0,0,0,.45,1.49,1.48,1.48,0,0,0,1.26.56A1.67,1.67,0,0,0,134.33,61.53Zm-1.72-4.22c-1,0-1.5.59-1.58,1.79h3.14C134.12,57.9,133.6,57.31,132.61,57.31Z"/><path class="cls-1" d="M141.37,57.45l-.8.56a1.56,1.56,0,0,0-.64-.52,2.53,2.53,0,0,0-1-.16,1.67,1.67,0,0,0-.95.24.73.73,0,0,0-.34.66c0,.63.51,1,1.55,1.05a3.89,3.89,0,0,1,1.65.46,1.58,1.58,0,0,1,.75,1.53,1.73,1.73,0,0,1-.64,1.45,3.58,3.58,0,0,1-4.45-.59l.79-.56a1.67,1.67,0,0,0,.69.52,3.26,3.26,0,0,0,1.11.16,1.94,1.94,0,0,0,1.05-.25.79.79,0,0,0,.38-.7.84.84,0,0,0-.37-.77,3.36,3.36,0,0,0-1.35-.3c-1.49-.11-2.23-.77-2.23-2a1.68,1.68,0,0,1,.63-1.38,2.7,2.7,0,0,1,1.76-.52A2.65,2.65,0,0,1,141.37,57.45Z"/><path class="cls-1" d="M142.7,61.18c0-1.27.84-1.91,2.5-1.91h1.59v-.78a1.07,1.07,0,0,0-.33-.91,2,2,0,0,0-1.15-.25,2.85,2.85,0,0,0-1,.14,1.34,1.34,0,0,0-.58.54l-.8-.56a2.06,2.06,0,0,1,.91-.85,3.64,3.64,0,0,1,1.5-.26,3,3,0,0,1,1.94.5,2,2,0,0,1,.6,1.65v4.64h-1.07v-.66a1.38,1.38,0,0,1-.63.6,2.71,2.71,0,0,1-1.07.17,2.59,2.59,0,0,1-1.76-.55A1.88,1.88,0,0,1,142.7,61.18Zm4.09-.62v-.38H145.2a1.93,1.93,0,0,0-1.09.24.94.94,0,0,0-.34.79c0,.69.44,1,1.32,1a2.1,2.1,0,0,0,1.27-.32A1.71,1.71,0,0,0,146.79,60.56Z"/><path class="cls-1" d="M157.09,57.12V53.91h1.06v9.22h-1.06v-.59a2.18,2.18,0,0,1-1.82.7,2.48,2.48,0,0,1-2-.82,3.29,3.29,0,0,1-.69-2.2v-.88a3.16,3.16,0,0,1,.71-2.21,2.51,2.51,0,0,1,2-.79A2.09,2.09,0,0,1,157.09,57.12Zm-1.71,5.15a1.54,1.54,0,0,0,1.26-.52,2.16,2.16,0,0,0,.45-1.44v-1a2.25,2.25,0,0,0-.45-1.49,1.55,1.55,0,0,0-1.26-.54,1.52,1.52,0,0,0-1.26.53,2.26,2.26,0,0,0-.45,1.5v.88a2.33,2.33,0,0,0,.45,1.48A1.51,1.51,0,0,0,155.38,62.27Z"/><path class="cls-1" d="M163.92,61.53l.83.58a2,2,0,0,1-.9.86,3.3,3.3,0,0,1-1.44.27,2.73,2.73,0,0,1-2.09-.81,3.09,3.09,0,0,1-.76-2.21v-.88a3.22,3.22,0,0,1,.68-2.22,2.46,2.46,0,0,1,2-.78,2.5,2.5,0,0,1,2,.77,3.34,3.34,0,0,1,.66,2.23V60h-4.21v.19a2.3,2.3,0,0,0,.44,1.49,1.48,1.48,0,0,0,1.26.56A1.67,1.67,0,0,0,163.92,61.53Zm-1.72-4.22c-1,0-1.5.59-1.57,1.79h3.13C163.71,57.9,163.19,57.31,162.2,57.31Z"/><path class="cls-1" d="M173,59.75V58.4h3.35v.71a4.73,4.73,0,0,1-.87,3.11,3.1,3.1,0,0,1-2.52,1,3.19,3.19,0,0,1-2.54-1,4.64,4.64,0,0,1-.9-3.1V58a4.74,4.74,0,0,1,.9-3.15A3.17,3.17,0,0,1,173,53.79a3.3,3.3,0,0,1,2.27.77,3.5,3.5,0,0,1,1.08,2.21h-1.49A1.78,1.78,0,0,0,173,55.14a1.62,1.62,0,0,0-1.43.68,3.77,3.77,0,0,0-.46,2.11v1.18a3.81,3.81,0,0,0,.46,2.12,1.64,1.64,0,0,0,1.43.67,1.68,1.68,0,0,0,1.34-.53,2.75,2.75,0,0,0,.53-1.62Z"/><path class="cls-1" d="M182.87,59.14l2,4h-1.71l-1.77-3.74h-1.79v3.74H178V53.91h3.14a4,4,0,0,1,2.51.71,2.47,2.47,0,0,1,.88,2.05A2.4,2.4,0,0,1,182.87,59.14Zm-3.31-3.88v2.79H181a2.62,2.62,0,0,0,1.49-.32,1.19,1.19,0,0,0,.46-1.06,1.23,1.23,0,0,0-.46-1.08,2.61,2.61,0,0,0-1.49-.33Z"/><path class="cls-1" d="M191.51,59.4V53.91h1.55v5.48a4.12,4.12,0,0,1-.9,2.89,3.84,3.84,0,0,1-5.09,0,4.1,4.1,0,0,1-.9-2.89V53.91h1.55V59.4a3.11,3.11,0,0,0,.46,1.9,1.69,1.69,0,0,0,1.43.6,1.71,1.71,0,0,0,1.44-.6A3.11,3.11,0,0,0,191.51,59.4Z"/><path class="cls-1" d="M198.23,59.76h-1.59v3.37h-1.55V53.91h3.14a3.77,3.77,0,0,1,2.5.76,2.68,2.68,0,0,1,.89,2.16,2.71,2.71,0,0,1-.9,2.17A3.71,3.71,0,0,1,198.23,59.76Zm-1.59-4.5v3.17h1.43c1.33,0,2-.54,2-1.6s-.67-1.57-2-1.57Z"/><path class="cls-1" d="M209.48,57.93v1.18a4.64,4.64,0,0,1-.9,3.1,3.24,3.24,0,0,1-2.56,1,3.19,3.19,0,0,1-2.54-1,4.64,4.64,0,0,1-.9-3.1V57.93a4.6,4.6,0,0,1,.9-3.09A3.17,3.17,0,0,1,206,53.79a3.21,3.21,0,0,1,2.56,1.05A4.6,4.6,0,0,1,209.48,57.93Zm-5.35,0v1.18a3.72,3.72,0,0,0,.47,2.12,1.62,1.62,0,0,0,1.42.67,1.66,1.66,0,0,0,1.44-.67,3.72,3.72,0,0,0,.47-2.12V57.93a3.68,3.68,0,0,0-.47-2.11,1.64,1.64,0,0,0-1.44-.68,1.61,1.61,0,0,0-1.42.68A3.68,3.68,0,0,0,204.13,57.93Z"/><path class="cls-1" d="M217.59,63.13h-3.11V53.91h3.11c2.3,0,3.46,1.36,3.46,4.06v1.1C221.05,61.77,219.89,63.13,217.59,63.13ZM216,61.79h1.56a1.67,1.67,0,0,0,1.45-.65,3.73,3.73,0,0,0,.46-2.07V58a3.67,3.67,0,0,0-.46-2.06,1.67,1.67,0,0,0-1.45-.65H216Z"/><path class="cls-1" d="M223.85,61.22l-.63,1.91h-1.65l3.2-9.22h1.47l3.21,9.22H227.8l-.62-1.91Zm2.88-1.34-1.22-3.72-1.23,3.72Z"/><path class="cls-1" d="M229.12,55.26V53.91H236v1.35h-2.64v7.87h-1.55V55.26Z"/><path class="cls-1" d="M243.45,56.77H242a1.78,1.78,0,0,0-1.86-1.63,1.62,1.62,0,0,0-1.43.68,3.76,3.76,0,0,0-.47,2.11v1.18c0,1.86.64,2.79,1.9,2.79a1.8,1.8,0,0,0,1.23-.39,2.38,2.38,0,0,0,.63-1.24h1.48a3.08,3.08,0,0,1-3.34,3,3.19,3.19,0,0,1-2.54-1,4.64,4.64,0,0,1-.9-3.1V57.93a4.6,4.6,0,0,1,.9-3.09,3.17,3.17,0,0,1,2.54-1.05,3.32,3.32,0,0,1,2.26.76A3.51,3.51,0,0,1,243.45,56.77Z"/><path class="cls-1" d="M251.34,57.93v1.18a4.64,4.64,0,0,1-.9,3.1,3.65,3.65,0,0,1-5.1,0,4.64,4.64,0,0,1-.9-3.1V57.93a4.6,4.6,0,0,1,.9-3.09,3.62,3.62,0,0,1,5.1,0A4.6,4.6,0,0,1,251.34,57.93Zm-5.35,0v1.18a3.8,3.8,0,0,0,.47,2.12,1.86,1.86,0,0,0,2.86,0,3.71,3.71,0,0,0,.48-2.12V57.93a3.67,3.67,0,0,0-.48-2.11,1.84,1.84,0,0,0-2.86,0A3.76,3.76,0,0,0,246,57.93Z"/><path class="cls-1" d="M85.34,36.47a9.29,9.29,0,0,1-.12,1.5,5.56,5.56,0,0,1-.41,1.39,4.17,4.17,0,0,1-.88,1.26,4.23,4.23,0,0,1-1.65,1,6.16,6.16,0,0,1-2,.32h-5V28h5a6.43,6.43,0,0,1,2,.32,4.35,4.35,0,0,1,1.65,1,4.5,4.5,0,0,1,.88,1.24,5.34,5.34,0,0,1,.41,1.36,8.75,8.75,0,0,1,.12,1.47v3.1Zm-2.75-2.93a8.82,8.82,0,0,0-.08-1,3.11,3.11,0,0,0-.18-.73,1.76,1.76,0,0,0-.31-.53,2.33,2.33,0,0,0-.85-.65A3,3,0,0,0,80,30.4H77.91v9.12H80a2.81,2.81,0,0,0,1.19-.22,2.23,2.23,0,0,0,.85-.65,2.57,2.57,0,0,0,.48-1.31,21,21,0,0,0,.11-2.44C82.61,34.38,82.6,33.92,82.59,33.54Z"/><path class="cls-1" d="M96.38,42l-.83-2.47h-5L89.74,42H86.89L92,28h2.14l5.11,14Zm-3.26-9.86-1.77,5.09h3.48Z"/><path class="cls-1" d="M105.61,30.4V42h-2.73V30.4H99.23V28h10V30.4Z"/><path class="cls-1" d="M121,39.67a4.35,4.35,0,0,1-1.06,1.3,4.68,4.68,0,0,1-1.44.82,5.22,5.22,0,0,1-1.75.28,5.1,5.1,0,0,1-2-.37,4.9,4.9,0,0,1-1.62-1.08,4,4,0,0,1-.75-1,4.76,4.76,0,0,1-.4-1.19,9.32,9.32,0,0,1-.14-1.49c0-.56,0-1.21,0-2s0-1.4,0-2a9.34,9.34,0,0,1,.14-1.5,4.68,4.68,0,0,1,.4-1.18,3.92,3.92,0,0,1,.75-1,4.9,4.9,0,0,1,1.62-1.08,5.3,5.3,0,0,1,2-.37,5.22,5.22,0,0,1,1.75.29,4.86,4.86,0,0,1,1.44.81A4.28,4.28,0,0,1,121,30.26a5.8,5.8,0,0,1,.6,1.76h-1.53A3.7,3.7,0,0,0,118.91,30a3.17,3.17,0,0,0-2.18-.76,3.57,3.57,0,0,0-1.33.25,3,3,0,0,0-1.09.73,2.79,2.79,0,0,0-.53.72,3.11,3.11,0,0,0-.29.92,8.75,8.75,0,0,0-.13,1.3c0,.5,0,1.12,0,1.85s0,1.35,0,1.86a9,9,0,0,0,.13,1.3,3.32,3.32,0,0,0,.29.92,2.92,2.92,0,0,0,.53.71,3,3,0,0,0,1.09.73,3.58,3.58,0,0,0,1.33.26,3.24,3.24,0,0,0,2.2-.77,3.67,3.67,0,0,0,1.16-2.06h1.49A6,6,0,0,1,121,39.67Z"/><path class="cls-1" d="M134.6,36.92a9.32,9.32,0,0,1-.14,1.49,4.76,4.76,0,0,1-.4,1.19,4,4,0,0,1-.75,1,5,5,0,0,1-1.61,1.08,5.12,5.12,0,0,1-2,.37,4.85,4.85,0,0,1-3.57-1.45,4.1,4.1,0,0,1-.76-1,4.38,4.38,0,0,1-.39-1.19,8.25,8.25,0,0,1-.15-1.49c0-.56,0-1.21,0-2s0-1.4,0-2a8.27,8.27,0,0,1,.15-1.5,4.31,4.31,0,0,1,.39-1.18,4,4,0,0,1,.76-1,5.13,5.13,0,0,1,7.15,0,3.92,3.92,0,0,1,.75,1,4.68,4.68,0,0,1,.4,1.18,9.34,9.34,0,0,1,.14,1.5c0,.55,0,1.21,0,2S134.62,36.36,134.6,36.92Zm-1.5-3.81a8.46,8.46,0,0,0-.13-1.29,3.14,3.14,0,0,0-.29-.91,2.79,2.79,0,0,0-.53-.72,3.34,3.34,0,0,0-1.09-.74,3.39,3.39,0,0,0-1.33-.26,3.31,3.31,0,0,0-1.32.26,3.24,3.24,0,0,0-1.09.74,2.57,2.57,0,0,0-.53.72,3.14,3.14,0,0,0-.3.91,10,10,0,0,0-.13,1.29c0,.5,0,1.12,0,1.85s0,1.35,0,1.86a10.35,10.35,0,0,0,.13,1.29,3.24,3.24,0,0,0,.3.91,2.68,2.68,0,0,0,.53.71,3.1,3.1,0,0,0,1.09.74,3.32,3.32,0,0,0,1.32.27,3.4,3.4,0,0,0,1.33-.27,3.19,3.19,0,0,0,1.09-.74,2.92,2.92,0,0,0,.53-.71,3.24,3.24,0,0,0,.29-.91,8.74,8.74,0,0,0,.13-1.29q0-.76,0-1.86C133.13,34.23,133.12,33.61,133.1,33.11Z"/><path class="cls-1" d="M40.13,20.9c-1.09-1.09-2-1.92-2.59-2.48a10.56,10.56,0,0,0-2-1.4,4.52,4.52,0,0,0-2-.6,5.89,5.89,0,0,0-4.54,2L25.54,21.9,39.39,35.75l3.52-3.52a5.92,5.92,0,0,0,2-4.53,5.12,5.12,0,0,0-1.17-2.88A44.36,44.36,0,0,0,40.13,20.9Z"/><path class="cls-1" d="M64.64,28.71,37.87,1.94a6.67,6.67,0,0,0-9.42.18L2.05,28.53A6.66,6.66,0,0,0,1.86,38L28.63,64.72a6.67,6.67,0,0,0,9.43-.19l26.4-26.39A6.68,6.68,0,0,0,64.64,28.71ZM45.79,34.55l-6.73,6.72L20,22.22l6.72-6.72a9.47,9.47,0,0,1,6.74-3.16,7.93,7.93,0,0,1,3.19.62,11.46,11.46,0,0,1,2.7,1.62A33.92,33.92,0,0,1,42.06,17l1,1L44,19a37,37,0,0,1,2.57,2.81,12.52,12.52,0,0,1,1.72,2.81A7.94,7.94,0,0,1,49,27.81,9.51,9.51,0,0,1,45.79,34.55Z"/></svg>