<svg id="Datco" xmlns="http://www.w3.org/2000/svg" viewBox="0 0 79.79 79.79"><defs><style>.cls-1{fill:#1c8dce;}.cls-2{fill:#fff;}</style></defs><path class="cls-1" d="M77.56,34.35,45.44,2.23a8,8,0,0,0-11.31.22L2.45,34.13a8,8,0,0,0-.22,11.31L34.35,77.56a8,8,0,0,0,11.31-.23L77.34,45.66A8,8,0,0,0,77.56,34.35Z"/><path class="cls-2" d="M54.94,41.35l-8.07,8.07L24,26.56l8.07-8.07q3.78-3.78,8.09-3.79a9.54,9.54,0,0,1,3.82.76,13.49,13.49,0,0,1,3.24,1.93,37.83,37.83,0,0,1,3.23,2.95l1.17,1.16,1.14,1.14C54,23.87,55,25,55.86,26a15.36,15.36,0,0,1,2.06,3.37,9.39,9.39,0,0,1,.81,3.89Q58.72,37.58,54.94,41.35Z"/><path class="cls-1" d="M48.15,25c-1.31-1.31-2.35-2.31-3.1-3a13.47,13.47,0,0,0-2.36-1.68,5.57,5.57,0,0,0-2.37-.72A7.1,7.1,0,0,0,34.86,22l-4.22,4.22L47.26,42.79l4.22-4.22a7.09,7.09,0,0,0,2.37-5.44,6.13,6.13,0,0,0-1.41-3.45A50.73,50.73,0,0,0,48.15,25Z"/></svg>