<?xml version="1.0" encoding="UTF-8"?>
<svg id="Datco" xmlns="http://www.w3.org/2000/svg" width="28.15mm" height="28.15mm" viewBox="0 0 79.79 79.79">
  <defs>
    <style>
      .cls-1 {
        fill: #fff;
      }

      .cls-2 {
        fill: #1c8dce;
      }
    </style>
  </defs>
  <path class="cls-2" d="m77.56,34.35L45.44,2.23c-3.06-3.06-8.13-2.96-11.31.22L2.45,34.13c-3.19,3.18-3.29,8.25-.22,11.31l32.12,32.12c3.07,3.07,8.13,2.96,11.31-.22l31.68-31.67c3.18-3.18,3.28-8.25.22-11.31Z"/>
  <path class="cls-1" d="m54.94,41.35l-8.07,8.07-22.86-22.86,8.07-8.07c2.52-2.52,5.22-3.78,8.09-3.79,1.36,0,2.64.25,3.83.75,1.19.51,2.27,1.15,3.24,1.93.97.78,2.05,1.76,3.23,2.95l1.16,1.16,1.14,1.14c1.23,1.23,2.26,2.36,3.09,3.37.83,1.02,1.51,2.14,2.06,3.37.55,1.23.82,2.53.82,3.89,0,2.87-1.27,5.57-3.79,8.09Z"/>
  <path class="cls-2" d="m48.15,24.98c-1.32-1.32-2.35-2.31-3.11-2.98-.76-.67-1.54-1.23-2.35-1.67-.81-.44-1.6-.68-2.38-.72-1.98-.09-3.8.69-5.45,2.35l-4.22,4.22,16.62,16.62,4.22-4.22c1.67-1.67,2.46-3.48,2.37-5.44-.05-1.14-.52-2.29-1.41-3.45-.89-1.16-2.32-2.73-4.29-4.7Z"/>
</svg>