<?xml version="1.0" encoding="UTF-8"?>
<svg id="Datco" xmlns="http://www.w3.org/2000/svg" width="47.49mm" height="23.46mm" viewBox="0 0 134.62 66.5">
  <defs>
    <style>
      .cls-1 {
        fill: #fff;
      }
    </style>
  </defs>
  <g>
    <path class="cls-1" d="m85.34,36.47c0,.51-.04,1.01-.12,1.49s-.22.95-.41,1.4c-.2.45-.49.86-.88,1.26-.46.46-1.01.8-1.64,1.01-.64.22-1.32.32-2.05.32h-5.05v-13.99h5.05c.73,0,1.42.11,2.05.32.64.22,1.18.55,1.64,1.01.39.39.69.81.88,1.24.2.43.33.88.41,1.36.08.47.12.96.12,1.47v3.1Zm-2.75-2.94c-.01-.39-.04-.72-.08-1.01-.04-.29-.1-.53-.18-.73-.08-.2-.18-.37-.31-.53-.24-.29-.52-.5-.84-.65-.33-.14-.73-.22-1.2-.22h-2.06v9.11h2.06c.47,0,.87-.07,1.2-.22.33-.14.61-.36.84-.65.25-.31.41-.75.48-1.31.07-.56.11-1.38.11-2.44,0-.53,0-.98-.02-1.37Z"/>
    <path class="cls-1" d="m96.38,41.95l-.82-2.47h-4.97l-.84,2.47h-2.85l5.09-13.99h2.14l5.11,13.99h-2.85Zm-3.26-9.86l-1.77,5.09h3.48l-1.71-5.09Z"/>
    <path class="cls-1" d="m105.61,30.4v11.55h-2.73v-11.55h-3.65v-2.44h10.04v2.44h-3.65Z"/>
    <path class="cls-1" d="m120.98,39.67c-.28.52-.64.95-1.06,1.3-.43.35-.91.63-1.44.82-.54.19-1.12.28-1.75.28-.69,0-1.35-.12-1.95-.37-.61-.25-1.15-.61-1.62-1.08-.33-.33-.58-.67-.76-1.02-.18-.35-.31-.75-.39-1.19-.09-.44-.13-.94-.15-1.49s-.02-1.21-.02-1.96,0-1.4.02-1.95c.01-.56.06-1.05.15-1.49.08-.44.22-.83.39-1.19.18-.36.43-.69.76-1.02.47-.47,1.01-.83,1.62-1.08.61-.25,1.26-.37,1.95-.37.63,0,1.21.1,1.75.28.54.19,1.02.46,1.44.81.43.35.78.79,1.06,1.31.28.52.48,1.1.6,1.76h-1.53c-.18-.86-.56-1.55-1.14-2.06-.58-.51-1.3-.77-2.18-.77-.46,0-.9.09-1.33.26-.43.17-.79.41-1.09.73-.22.22-.4.46-.53.72-.13.25-.23.56-.29.92-.07.36-.11.79-.13,1.3-.02.5-.03,1.12-.03,1.85s.01,1.35.03,1.86c.02.5.06.94.13,1.3.07.36.16.67.29.92.13.25.31.49.53.72.3.31.66.56,1.09.73.43.17.87.25,1.33.25.88,0,1.61-.25,2.2-.77.59-.51.98-1.2,1.16-2.06h1.49c-.12.65-.32,1.24-.6,1.76Z"/>
    <path class="cls-1" d="m134.6,36.92c-.01.56-.06,1.05-.15,1.49-.09.44-.22.84-.39,1.19s-.43.69-.76,1.02c-.47.47-1.01.83-1.61,1.08-.6.25-1.26.37-1.96.37-1.41,0-2.61-.48-3.57-1.45-.33-.33-.58-.67-.76-1.02-.18-.35-.31-.75-.39-1.19-.09-.44-.13-.94-.15-1.49s-.02-1.21-.02-1.96,0-1.4.02-1.95c.01-.56.06-1.05.15-1.49.08-.44.22-.83.39-1.19.18-.36.43-.69.76-1.02.97-.97,2.16-1.45,3.57-1.45s2.61.48,3.58,1.45c.33.33.58.67.76,1.02.18.35.31.75.39,1.19.08.44.13.94.15,1.49.01.56.02,1.21.02,1.95s0,1.4-.02,1.96Zm-1.5-3.81c-.02-.51-.06-.93-.13-1.29-.07-.35-.16-.66-.29-.91-.13-.25-.31-.49-.53-.72-.3-.31-.66-.56-1.09-.74-.43-.18-.87-.27-1.33-.27s-.9.09-1.33.27c-.43.18-.79.42-1.09.74-.22.22-.4.46-.53.72-.13.25-.23.56-.29.91-.07.35-.11.78-.13,1.29-.02.5-.03,1.12-.03,1.85s.01,1.35.03,1.86c.02.5.06.93.13,1.29.07.35.16.66.29.91.13.25.31.49.53.72.3.31.66.56,1.09.74.43.18.87.26,1.33.26s.9-.09,1.33-.26c.43-.18.79-.42,1.09-.74.22-.22.4-.46.53-.72.13-.26.23-.56.29-.91.07-.36.11-.78.13-1.29.02-.5.03-1.12.03-1.86s-.01-1.35-.03-1.85Z"/>
  </g>
  <g>
    <path class="cls-1" d="m40.13,20.9c-1.1-1.1-1.96-1.93-2.59-2.49-.63-.56-1.28-1.03-1.96-1.4-.67-.37-1.34-.57-1.98-.6-1.65-.07-3.16.58-4.55,1.96l-3.52,3.52,13.85,13.85,3.52-3.52c1.39-1.39,2.05-2.9,1.97-4.53-.04-.95-.43-1.91-1.17-2.88-.74-.97-1.93-2.27-3.58-3.92Z"/>
    <path class="cls-1" d="m64.64,28.71L37.87,1.94c-2.55-2.55-6.77-2.47-9.42.18L2.05,28.53c-2.66,2.65-2.74,6.87-.18,9.43l26.76,26.77c2.56,2.55,6.78,2.47,9.43-.19l26.4-26.4c2.65-2.65,2.73-6.87.18-9.43Zm-18.85,5.84l-6.72,6.72-19.05-19.05,6.72-6.72c2.1-2.1,4.35-3.15,6.74-3.16,1.14,0,2.2.21,3.19.63.99.42,1.89.96,2.7,1.61.81.65,1.71,1.47,2.69,2.45l.97.97.95.95c1.03,1.03,1.89,1.96,2.57,2.81.69.85,1.26,1.78,1.72,2.8.46,1.03.68,2.11.68,3.24,0,2.39-1.06,4.64-3.16,6.74Z"/>
  </g>
</svg>