<?xml version="1.0" encoding="UTF-8"?>
<svg id="Focus" xmlns="http://www.w3.org/2000/svg" width="48.34mm" height="23.46mm" viewBox="0 0 137.04 66.5">
  <defs>
    <style>
      .cls-1 {
        fill: #fff;
      }
    </style>
  </defs>
  <path class="cls-1" d="m64.64,28.63L37.87,1.86c-2.55-2.54-6.77-2.47-9.43.18L2.05,28.44c-2.66,2.66-2.74,6.87-.18,9.44l26.77,26.76c2.56,2.55,6.77,2.47,9.43-.19l26.41-26.4c2.64-2.65,2.73-6.87.18-9.43Zm-24.64,11.32l-19.04-19.04,12.23-12.23,2.6,2.6-9.31,9.31,5.8,5.8,7.95-7.94,2.6,2.6-7.95,7.95,8.05,8.05-2.93,2.92Z"/>
  <g>
    <path class="cls-1" d="m77.96,30.44v3.39h5.45v2.41h-5.45v5.61h-2.7v-13.82h9.1v2.41h-6.41Z"/>
    <path class="cls-1" d="m95.66,40.45c-.97.97-2.15,1.51-3.72,1.51s-2.78-.54-3.75-1.51c-1.4-1.4-1.36-3.13-1.36-5.51s-.04-4.11,1.36-5.51c.97-.97,2.17-1.51,3.75-1.51s2.75.54,3.72,1.51c1.4,1.4,1.38,3.12,1.38,5.51s.02,4.12-1.38,5.51Zm-2-9.39c-.39-.45-.99-.74-1.73-.74s-1.36.29-1.74.74c-.53.59-.66,1.22-.66,3.88s.14,3.3.66,3.88c.38.45,1.01.73,1.74.73s1.34-.29,1.73-.73c.52-.58.68-1.22.68-3.88s-.15-3.29-.68-3.88Z"/>
    <path class="cls-1" d="m105.46,41.96c-1.36,0-2.6-.5-3.53-1.43-1.3-1.3-1.3-2.66-1.3-5.59s0-4.29,1.3-5.59c.93-.93,2.17-1.44,3.53-1.44,2.49,0,4.33,1.51,4.79,4.11h-1.52c-.36-1.69-1.55-2.8-3.28-2.8-.91,0-1.78.35-2.39.97-.87.89-.97,1.84-.97,4.73s.1,3.84.97,4.73c.6.62,1.47.97,2.39.97,1.73,0,2.95-1.1,3.32-2.79h1.47c-.45,2.6-2.33,4.11-4.79,4.11Z"/>
    <path class="cls-1" d="m119.11,41.96c-2.8,0-4.82-1.92-4.82-4.67v-9.26h1.48v9.14c0,2.1,1.32,3.47,3.34,3.47s3.35-1.38,3.35-3.47v-9.14h1.48v9.26c0,2.75-2.04,4.67-4.83,4.67Z"/>
    <path class="cls-1" d="m132.26,41.96c-2.08,0-3.43-.52-4.73-1.82l1.01-1c1.15,1.14,2.21,1.51,3.76,1.51,2.02,0,3.26-.95,3.26-2.56,0-.72-.21-1.34-.66-1.73-.45-.39-.8-.51-1.8-.66l-1.61-.25c-1.09-.18-1.94-.53-2.54-1.05-.7-.62-1.05-1.47-1.05-2.58,0-2.35,1.69-3.9,4.42-3.9,1.77,0,2.93.45,4.11,1.51l-.95.95c-.85-.77-1.77-1.18-3.22-1.18-1.84,0-2.91,1.03-2.91,2.56,0,.68.19,1.23.62,1.59.42.37,1.14.64,1.86.76l1.51.23c1.3.19,1.94.47,2.52.97.76.64,1.17,1.59,1.17,2.73,0,2.43-1.9,3.92-4.77,3.92Z"/>
  </g>
</svg>