<?xml version="1.0" encoding="UTF-8"?>
<svg id="Capa_1" data-name="Capa 1" xmlns="http://www.w3.org/2000/svg" width="115.45mm" height="23.31mm" viewBox="0 0 327.25 66.09">
  <defs>
    <style>
      .cls-1 {
        fill: #fff;
        stroke-width: 0px;
      }
    </style>
  </defs>
  <g>
    <g>
      <path class="cls-1" d="M83.53,40.09c-.98,1.06-2.29,1.6-3.71,1.6s-2.62-.51-3.56-1.45c-1.31-1.31-1.31-2.68-1.31-5.63s0-4.32,1.31-5.63c.94-.94,2.17-1.45,3.56-1.45,2.66,0,4.45,1.72,4.86,4.16h-1.49c-.39-1.76-1.64-2.83-3.38-2.83-.92,0-1.8.37-2.4,1-.88.9-.98,1.84-.98,4.75s.1,3.87.98,4.77c.6.62,1.48.98,2.4.98,1.02,0,1.99-.41,2.64-1.19.57-.68.78-1.45.78-2.52v-1.06h-3.42v-1.31h4.9v2.21c0,1.6-.33,2.68-1.19,3.59Z"/>
      <path class="cls-1" d="M96.75,41.57l-3.16-6.17h-3.34v6.17h-1.49v-13.91h5.33c2.42,0,4.12,1.47,4.12,3.87,0,2.03-1.23,3.36-3.03,3.73l3.3,6.31h-1.74ZM93.96,28.99h-3.71v5.1h3.71c1.62,0,2.77-.84,2.77-2.54s-1.15-2.56-2.77-2.56Z"/>
      <path class="cls-1" d="M106.41,41.69c-2.81,0-4.84-1.93-4.84-4.71v-9.32h1.48v9.2c0,2.11,1.33,3.5,3.36,3.5s3.38-1.39,3.38-3.5v-9.2h1.49v9.32c0,2.77-2.05,4.71-4.86,4.71Z"/>
      <path class="cls-1" d="M120.08,35.85h-3.69v5.72h-1.49v-13.91h5.18c2.54,0,4.3,1.58,4.3,4.08s-1.76,4.1-4.3,4.1ZM119.95,28.99h-3.55v5.53h3.55c1.74,0,2.95-.94,2.95-2.77s-1.21-2.75-2.95-2.75Z"/>
      <path class="cls-1" d="M135.3,40.24c-.94.94-2.17,1.45-3.55,1.45s-2.62-.51-3.56-1.45c-1.31-1.31-1.31-2.68-1.31-5.63s0-4.32,1.31-5.63c.94-.94,2.17-1.45,3.56-1.45s2.62.51,3.55,1.45c1.31,1.31,1.31,2.68,1.31,5.63s0,4.32-1.31,5.63ZM134.15,29.87c-.61-.62-1.49-1-2.4-1s-1.8.37-2.4,1c-.88.9-.98,1.84-.98,4.75s.1,3.85.98,4.75c.6.62,1.48,1,2.4,1s1.8-.37,2.4-1c.88-.9.98-1.84.98-4.75s-.1-3.85-.98-4.75Z"/>
      <path class="cls-1" d="M149.38,40.24c-.92.92-2.23,1.33-3.67,1.33h-5.02v-13.91h5.02c1.45,0,2.75.41,3.67,1.33,1.56,1.56,1.41,3.48,1.41,5.57s.16,4.12-1.41,5.69ZM147.48,30.94c-.47-.57-1.09-.86-2.03-.86h-2.05v9.07h2.05c.94,0,1.56-.29,2.03-.86.51-.63.59-1.62.59-3.73s-.08-2.99-.59-3.61Z"/>
      <path class="cls-1" d="M161.47,41.57l-.82-2.46h-4.94l-.84,2.46h-2.83l5.06-13.91h2.13l5.08,13.91h-2.83ZM158.22,31.77l-1.76,5.06h3.46l-1.7-5.06Z"/>
      <path class="cls-1" d="M169.96,30.09v11.49h-2.72v-11.49h-3.63v-2.42h9.98v2.42h-3.63Z"/>
      <path class="cls-1" d="M180.64,41.69c-1.52,0-2.77-.55-3.75-1.52-1.41-1.41-1.37-3.15-1.37-5.55s-.04-4.14,1.37-5.55c.98-.98,2.23-1.52,3.75-1.52,2.6,0,4.63,1.49,5.12,4.4h-2.75c-.27-1.11-.98-1.97-2.34-1.97-.74,0-1.35.27-1.74.72-.53.59-.68,1.25-.68,3.93s.16,3.34.68,3.93c.39.45,1,.72,1.74.72,1.37,0,2.07-.86,2.34-1.97h2.75c-.49,2.91-2.54,4.39-5.12,4.39Z"/>
      <path class="cls-1" d="M197.5,40.17c-.98.98-2.17,1.52-3.75,1.52s-2.79-.55-3.77-1.52c-1.41-1.41-1.37-3.15-1.37-5.55s-.04-4.14,1.37-5.55c.98-.98,2.19-1.52,3.77-1.52s2.77.55,3.75,1.52c1.41,1.41,1.39,3.15,1.39,5.55s.02,4.14-1.39,5.55ZM195.49,30.71c-.39-.45-1-.74-1.74-.74s-1.37.29-1.76.74c-.53.59-.66,1.23-.66,3.91s.14,3.32.66,3.91c.39.45,1.02.74,1.76.74s1.35-.29,1.74-.74c.53-.59.68-1.23.68-3.91s-.16-3.32-.68-3.91Z"/>
    </g>
    <g>
      <path class="cls-1" d="M64.24,28.45L37.64,1.85c-2.53-2.53-6.73-2.45-9.37.18L2.03,28.27c-2.64,2.64-2.72,6.83-.18,9.37l26.6,26.6c2.54,2.54,6.73,2.45,9.37-.18l26.24-26.23c2.63-2.64,2.71-6.83.18-9.37ZM30.19,36.49c-1.37,1.37-3.12,2.11-4.99,2.12-2.61,0-3.97-1.36-6.91-4.29-2.94-2.94-4.3-4.3-4.29-6.91,0-1.87.73-3.61,2.12-5,2.66-2.66,6.17-2.74,9.01-.72l-1.48,1.48c-2.14-1.36-4.46-1.18-6.2.56-.92.92-1.43,2.17-1.41,3.4.02,1.77.85,2.8,3.75,5.7,2.9,2.9,3.95,3.75,5.72,3.77,1.23.02,2.46-.51,3.38-1.43,1.02-1.02,1.58-2.4,1.45-3.82-.11-1.25-.66-2.22-1.73-3.29l-1.05-1.05-3.42,3.42-1.3-1.3,4.9-4.9,2.2,2.2c1.59,1.6,2.33,3,2.39,4.77.07,2.03-.69,3.88-2.12,5.31ZM41.95,24.5l-4.88,4.88-13.85-13.85,4.88-4.88c1.45-1.45,3.14-2.29,4.9-2.29,3,0,4.93,2.11,6.93,4.12,2,2,4.32,4.12,4.31,7.13,0,1.75-.85,3.45-2.29,4.9Z"/>
      <path class="cls-1" d="M33.07,11.32c-1.23-.06-2.3.43-3.3,1.43l-2.56,2.56,10.08,10.08,2.56-2.56c1-1,1.49-2.07,1.43-3.3-.08-1.52-1.55-3.04-3.46-4.94-1.91-1.91-3.23-3.19-4.75-3.27Z"/>
    </g>
  </g>
  <g>
    <g>
      <path class="cls-1" d="M225.14,22.2c0,.14-.04.19-.23.19h-4.6c-.21,0-.25-.04-.25-.25v-8.97c0-.18.05-.23.23-.23h4.61c.18,0,.21.07.19.22l-.04.34c-.01.17-.11.18-.32.18h-3.72v3.33h3.28c.17,0,.23.06.23.21v.33c0,.17-.06.21-.22.21h-3.29v3.89h3.87c.19,0,.25.04.25.18v.37Z"/>
      <path class="cls-1" d="M227,22.27c-.05.08-.12.12-.26.12h-.62c-.1,0-.11-.1-.04-.19l2.27-3.22-2-3.03c-.06-.08-.04-.19.1-.19h.67c.14,0,.22.06.28.15l1.49,2.3,1.56-2.28c.08-.11.18-.17.29-.17h.55c.11,0,.18.08.1.19l-2.06,2.9,2.22,3.3c.07.1.1.23-.07.23h-.73c-.14,0-.21-.07-.28-.17l-1.68-2.6-1.78,2.64Z"/>
      <path class="cls-1" d="M237.54,21.87c.04.12.01.19-.12.26-.56.26-1.2.39-1.78.39-2.17,0-3.15-1.46-3.15-3.47s1.18-3.43,3.21-3.43c.58,0,1.29.18,1.72.41.08.04.12.1.12.15,0,.03-.01.07-.03.11l-.08.25c-.03.07-.05.15-.14.15-.03,0-.06-.01-.1-.03-.44-.21-.94-.37-1.51-.37-1.38,0-2.28,1.06-2.28,2.73,0,1.45.59,2.84,2.24,2.84.59,0,1.22-.17,1.6-.33.11-.05.19-.04.23.1l.07.25Z"/>
      <path class="cls-1" d="M239.4,12.63c.11-.01.18.04.18.17v8.04c0,.39,0,.65.06.76.06.12.15.17.29.17h.1c.11,0,.15.03.15.15v.34c0,.11-.04.14-.17.14h-.33c-.22,0-.43-.04-.55-.11-.23-.14-.36-.37-.4-.67-.03-.26-.03-.51-.03-.81v-7.84c0-.17.03-.23.18-.25l.52-.07Z"/>
      <path class="cls-1" d="M246.8,22.14c0,.17-.07.25-.22.25h-.43c-.15,0-.22-.08-.22-.25v-.48c-.65.56-1.39.85-2.17.85-.69,0-1.2-.21-1.56-.55-.44-.44-.62-1.1-.62-1.95v-4c0-.17.07-.25.22-.25h.44c.15,0,.22.08.22.25v3.88c0,.69.11,1.18.4,1.51.21.23.59.4,1.11.4.66,0,1.49-.45,1.94-.91v-4.89c0-.17.07-.25.22-.25h.44c.15,0,.22.08.22.25v6.14Z"/>
      <path class="cls-1" d="M252.17,15.99c.08.04.11.1.08.18l-.12.36c-.03.1-.11.12-.21.08-.37-.18-.96-.33-1.42-.33-.81,0-1.29.43-1.29.99s.32.81.96,1.09l.98.41c.81.34,1.42.88,1.42,1.73,0,1.16-.94,2.01-2.44,2.01-.72,0-1.42-.25-1.78-.43-.1-.05-.11-.12-.08-.19l.15-.39c.03-.08.11-.12.19-.08.44.22,1.1.4,1.56.4.92,0,1.53-.45,1.53-1.21,0-.63-.45-.96-1.16-1.24l-.83-.33c-.84-.33-1.42-.85-1.42-1.67,0-1.11,1-1.76,2.2-1.76.55,0,1.07.1,1.67.37Z"/>
      <path class="cls-1" d="M254.57,14.75c-.32,0-.56-.22-.56-.54s.25-.54.56-.54.58.22.58.54-.26.54-.58.54ZM255.01,22.14c0,.17-.07.25-.22.25h-.44c-.15,0-.22-.08-.22-.25v-6.14c0-.17.07-.25.22-.25h.44c.15,0,.22.08.22.25v6.14Z"/>
      <path class="cls-1" d="M261.71,15.76c.12,0,.21.07.17.21l-2.22,6.23c-.05.14-.14.19-.26.19h-.54c-.17,0-.25-.07-.29-.19l-2.19-6.22c-.04-.11.03-.22.18-.22h.48c.19,0,.25.04.29.15l1.84,5.45h.03l1.8-5.41c.04-.14.14-.19.29-.19h.41Z"/>
      <path class="cls-1" d="M267.83,19.1h-4.36c0,1.46.73,2.67,2.31,2.67.59,0,1.31-.14,1.72-.32.11-.06.21-.04.23.1l.07.32c.03.12.01.21-.12.26-.55.26-1.4.39-1.98.39-2.11,0-3.14-1.42-3.14-3.45,0-1.91,1.17-3.44,3.1-3.44,1.62,0,2.56,1.24,2.56,2.85v.26c0,.3-.04.37-.39.37ZM265.63,16.3c-1.29,0-2.01,1.05-2.13,2.19h3.83c.01-.1.01-.18.01-.28,0-1.05-.55-1.91-1.71-1.91Z"/>
      <path class="cls-1" d="M274.8,18.68h-.98v3.47c0,.15-.06.25-.22.25h-.52c-.17,0-.22-.1-.22-.25v-8.96c0-.15.06-.25.22-.25h1.66c1.87,0,3.43.72,3.43,2.82,0,2-1.54,2.92-3.37,2.92ZM274.61,13.68h-.78v4.25h.92c1.43,0,2.44-.63,2.44-2.17,0-1.65-1.12-2.08-2.57-2.08Z"/>
      <path class="cls-1" d="M285,22.25c0,.11-.04.14-.17.14h-.52c-.54,0-.77-.45-.77-.99v-.18c-.28.67-1.21,1.29-2.12,1.29-1.87,0-2.68-1.62-2.68-3.33,0-2.26,1.31-3.56,2.9-3.56.66,0,1.43.28,1.89.87v-.51c.01-.17.11-.22.26-.22h.41c.15,0,.21.08.21.25v4.83c0,.39,0,.65.06.76.06.12.15.17.29.17h.1c.11,0,.15.03.15.15v.34ZM283.52,17.46c-.36-.74-1.1-1.16-1.83-1.16-1.18,0-2.05,1.06-2.05,2.82s.87,2.64,1.84,2.64,1.76-.83,2.04-1.67v-2.64Z"/>
      <path class="cls-1" d="M289.19,15.66c.1.01.12.08.11.15l-.07.45c-.01.08-.07.12-.14.11-.14-.03-.29-.06-.44-.06-.5,0-1.05.37-1.4.92v4.9c0,.17-.07.25-.22.25h-.44c-.15,0-.22-.08-.22-.25v-6.14c0-.17.07-.25.22-.25h.43c.15,0,.22.08.22.25v.48c.29-.41.87-.87,1.56-.87.1,0,.26.01.4.04Z"/>
      <path class="cls-1" d="M293.79,21.76l.07.34c.03.11,0,.15-.14.21-.26.1-.72.21-1.13.21-.54,0-1.12-.15-1.42-.47-.39-.4-.41-.96-.41-1.72v-3.92h-.81c-.12,0-.15-.03-.15-.14v-.37c0-.12.03-.14.12-.14h.84v-1.61c0-.17.03-.22.18-.25l.48-.07h.06c.11,0,.17.08.17.22v1.71h1.67c.11,0,.15.03.15.15v.36c0,.11-.04.14-.17.14h-1.65v4.06c0,.48.04.87.28,1.1.17.17.43.26.81.26.32,0,.66-.08.85-.15.11-.04.19-.01.21.08Z"/>
      <path class="cls-1" d="M300.42,22.14c0,.17-.07.25-.22.25h-.44c-.15,0-.22-.08-.22-.25v-3.92c0-1.1-.26-1.91-1.53-1.91-.69,0-1.54.4-2.06.88v4.95c0,.17-.07.25-.22.25h-.44c-.15,0-.22-.08-.22-.25v-6.14c0-.17.07-.25.22-.25h.43c.15,0,.22.08.22.25v.47c.65-.56,1.53-.85,2.31-.85,1.61,0,2.17.98,2.17,2.48v4.05Z"/>
      <path class="cls-1" d="M307.26,19.1h-4.36c0,1.46.73,2.67,2.31,2.67.59,0,1.31-.14,1.72-.32.11-.06.21-.04.23.1l.07.32c.03.12.01.21-.12.26-.55.26-1.4.39-1.98.39-2.11,0-3.14-1.42-3.14-3.45,0-1.91,1.17-3.44,3.1-3.44,1.62,0,2.56,1.24,2.56,2.85v.26c0,.3-.04.37-.39.37ZM305.06,16.3c-1.29,0-2.01,1.05-2.13,2.19h3.83c.01-.1.01-.18.01-.28,0-1.05-.55-1.91-1.71-1.91Z"/>
      <path class="cls-1" d="M311.96,15.66c.1.01.12.08.11.15l-.07.45c-.01.08-.07.12-.14.11-.14-.03-.29-.06-.44-.06-.5,0-1.05.37-1.4.92v4.9c0,.17-.07.25-.22.25h-.44c-.15,0-.22-.08-.22-.25v-6.14c0-.17.07-.25.22-.25h.43c.15,0,.22.08.22.25v.48c.29-.41.87-.87,1.56-.87.1,0,.26.01.4.04Z"/>
      <path class="cls-1" d="M318.89,22.52c-2.06,0-2.97-1.51-2.97-3.45s1.07-3.44,3.06-3.44,3,1.46,3,3.44-1.09,3.45-3.08,3.45ZM318.98,16.3c-1.64,0-2.15,1.46-2.15,2.74,0,1.35.47,2.82,2.08,2.82s2.16-1.39,2.16-2.77-.52-2.79-2.09-2.79Z"/>
      <path class="cls-1" d="M327.1,12.73c.15.07.17.11.14.22l-.1.37c-.04.11-.11.1-.21.05-.21-.08-.58-.17-.89-.17-1,0-1.31.63-1.31,1.89v.66h1.79c.12,0,.16.03.16.14v.36c0,.12-.04.15-.15.15h-1.8v5.74c0,.17-.07.25-.22.25h-.44c-.15,0-.22-.08-.22-.25v-5.74h-.84c-.1,0-.12-.01-.12-.14v-.37c0-.11.03-.14.15-.14h.81v-.19c0-.54.01-.87.04-1.09.12-1.22.87-1.95,2.08-1.95.39,0,.83.1,1.13.21Z"/>
    </g>
    <g>
      <path class="cls-1" d="M322.51,33.41h-.73v-.44h1.93v.44h-.73v2.39h-.47v-2.39ZM324.17,32.97h.81l.71,2.39h.05l.71-2.39h.81v2.83h-.46v-2.39h-.05l-.71,2.39h-.64l-.71-2.39h-.05v2.39h-.46v-2.83Z"/>
      <g>
        <path class="cls-1" d="M293.49,43.5c0-3.66-1.41-6.91-5.16-6.91s-5.21,3.24-5.21,6.91,1.45,6.91,5.21,6.91,5.16-3.25,5.16-6.91M299.02,43.5c0,6.26-4.43,10.9-10.71,10.9s-10.73-4.44-10.73-10.89c0-6.11,4.29-10.9,10.73-10.9s10.71,4.64,10.71,10.9"/>
        <path class="cls-1" d="M256.31,41.48h-9.7c.1-.71.3-1.37.61-2.01.87-1.75,2.51-2.86,4.57-2.86,2.81,0,4.52,1.91,4.52,4.74v.13ZM261.34,41.56c-.26-2.83-1.3-5.11-3.04-6.65-1.67-1.49-3.91-2.3-6.7-2.3-2.05,0-4.64.71-6.55,2.28-2.27,1.87-4.04,4.8-4.04,8.74,0,3.4,1.11,6.13,3.09,7.98,1.94,1.82,4.69,2.8,8.1,2.8,2.75,0,6.06-1.03,7.48-1.91.5-.3.66-.44.54-.94l-.89-2.52c-.1-.4-.56-.51-.93-.33-.63.3-1.1.54-1.72.78-1.23.46-2.51.77-3.71.77-2.55,0-4-.69-5.11-1.98-.7-.81-1.11-1.83-1.24-3.02h14.06c.51,0,.73-.35.73-.95v-1.01c0-.5-.02-1.26-.06-1.73"/>
        <path class="cls-1" d="M266.4,35.62c1.59-2.05,4.07-2.99,8.14-2.99.95,0,2.13.12,2.86.29.48.11.55.49.46.98l-.48,2.37c-.11.44-.23.57-.58.57-.05,0-.16,0-.29-.02-.34-.05-1.29-.15-1.69-.15-2.02,0-2.98.51-3.7,1.26-.84.9-.86,2.23-.86,4.6v10.53c0,.69-.3,1.08-1.05,1.08h-3.22c-.69,0-.98-.34-1.04-1.08v-10.34c0-3.76.22-5.53,1.44-7.1"/>
        <path class="cls-1" d="M309.98,40c.72-.75,2.4-2.82,4.25-6.33.32-.6.6-.75,1.02-.75h3.45c.31,0,.69.15.48.75-1.37,4.07-4.5,7.64-6.23,9.48,1.89,1.79,5.24,6.02,6.81,10.18.14.37.07.8-.72.8h-4.13c-.42,0-.77-.04-1.05-.75-1.02-2.55-2.62-5.23-4.45-6.99-2,2.12-3.52,4.73-4.54,6.99-.25.55-.5.75-1.05.75h-3.79c-.26,0-.51-.29-.35-.75,1.13-3.09,3.37-6.93,6.58-9.83-2.53-3.05-4.95-6.76-5.91-9.89-.15-.47.1-.75.46-.75h4.44c.49,0,.74.2.97.75,1.1,2.55,2.59,4.97,3.73,6.33"/>
        <path class="cls-1" d="M230.39,40c.72-.75,2.39-2.82,4.26-6.33.31-.6.59-.75,1.01-.75h3.46c.31,0,.68.15.48.75-1.38,4.07-4.51,7.64-6.24,9.48,1.89,1.79,5.24,6.02,6.82,10.18.13.37.06.8-.73.8h-4.13c-.43,0-.75-.04-1.04-.75-1.02-2.55-2.63-5.23-4.45-6.98-2,2.12-3.52,4.73-4.54,6.98-.25.55-.49.75-1.04.75h-3.78c-.25,0-.51-.29-.35-.75,1.13-3.09,3.37-6.93,6.58-9.83-2.51-3.05-4.94-6.76-5.9-9.89-.14-.47.11-.75.46-.75h4.44c.48,0,.73.2.98.75,1.09,2.55,2.58,4.97,3.72,6.33"/>
      </g>
    </g>
  </g>
</svg>