<svg id="Grupo_Datco" data-name="Grupo Datco" xmlns="http://www.w3.org/2000/svg" viewBox="0 0 79.79 79.79"><defs><style>.cls-1{fill:#0e316e;}.cls-2{fill:#fff;}</style></defs><path class="cls-1" d="M77.4,34.12,45.67,2.39a8.17,8.17,0,0,0-11.55,0L2.39,34.12a8.17,8.17,0,0,0,0,11.55L34.12,77.4a8.17,8.17,0,0,0,11.55,0L77.4,45.67a8.17,8.17,0,0,0,0-11.55Z"/><path class="cls-2" d="M50.58,29.46l-5.86,5.86L28,18.63l5.86-5.86A8.42,8.42,0,0,1,39.78,10c3.61,0,5.93,2.55,8.34,5s5.21,5,5.21,8.58A8.43,8.43,0,0,1,50.58,29.46Z"/><path class="cls-1" d="M39.87,13.59a5.14,5.14,0,0,0-4,1.71l-3.07,3.07L45,30.51l3.07-3.07a5.07,5.07,0,0,0,1.71-4c-.09-1.83-1.87-3.65-4.17-5.95S41.7,13.69,39.87,13.59Z"/><path class="cls-2" d="M36.48,43.85a8.41,8.41,0,0,1-6,2.53c-3.14,0-4.78-1.64-8.32-5.18S17,36,17,32.88a8.32,8.32,0,0,1,2.53-6A8.05,8.05,0,0,1,30.34,26l-1.79,1.78a5.81,5.81,0,0,0-9.14,4.74c0,2.13,1,3.37,4.53,6.87S28.7,43.94,30.83,44a5.66,5.66,0,0,0,4.05-1.71,5.76,5.76,0,0,0,1.74-4.59,6.18,6.18,0,0,0-2.09-4l-1.26-1.27-4.11,4.1L27.59,35l5.89-5.88,2.65,2.65c1.92,1.92,2.81,3.61,2.88,5.74A8.46,8.46,0,0,1,36.48,43.85Z"/></svg>