<svg id="Interservices" xmlns="http://www.w3.org/2000/svg" viewBox="0 0 251.35 66.5"><defs><style>.cls-1{fill:#fff;}</style></defs><path class="cls-1" d="M80.79,59.39V53.91h1.15v5.47a4.18,4.18,0,0,1-.87,2.89,3.66,3.66,0,0,1-4.95,0,4.23,4.23,0,0,1-.86-2.89V53.91h1.15v5.48A3.4,3.4,0,0,0,77,61.52a2.37,2.37,0,0,0,3.3,0A3.4,3.4,0,0,0,80.79,59.39Z"/><path class="cls-1" d="M85,63.13H83.94V56.45H85v.66a1.48,1.48,0,0,1,.68-.59,2.76,2.76,0,0,1,1.11-.18,2.4,2.4,0,0,1,1.79.65,2.69,2.69,0,0,1,.64,2v4.17H88.16V59c0-1.1-.51-1.65-1.52-1.65A1.56,1.56,0,0,0,85,59Z"/><path class="cls-1" d="M90.63,61.18c0-1.27.83-1.91,2.5-1.91h1.58v-.78a1.07,1.07,0,0,0-.32-.91,2.05,2.05,0,0,0-1.16-.25,2.75,2.75,0,0,0-1,.14,1.35,1.35,0,0,0-.59.54l-.8-.56a2.06,2.06,0,0,1,.91-.85,3.66,3.66,0,0,1,1.51-.26,3,3,0,0,1,1.93.5,2,2,0,0,1,.6,1.65v4.64H94.71v-.66a1.29,1.29,0,0,1-.63.6,2.65,2.65,0,0,1-1.06.17,2.6,2.6,0,0,1-1.77-.55A1.9,1.9,0,0,1,90.63,61.18Zm4.08-.62v-.38H93.13a1.93,1.93,0,0,0-1.09.24.91.91,0,0,0-.34.79c0,.69.44,1,1.32,1a2.14,2.14,0,0,0,1.27-.32A1.75,1.75,0,0,0,94.71,60.56Z"/><path class="cls-1" d="M104.89,61.53l.83.58a2,2,0,0,1-.9.86,3.3,3.3,0,0,1-1.44.27,2.75,2.75,0,0,1-2.1-.81,3.14,3.14,0,0,1-.76-2.21v-.88a3.27,3.27,0,0,1,.68-2.22,2.89,2.89,0,0,1,3.94,0,3.28,3.28,0,0,1,.67,2.23V60h-4.22v.19a2.36,2.36,0,0,0,.44,1.49,1.51,1.51,0,0,0,1.27.56A1.69,1.69,0,0,0,104.89,61.53Zm-1.72-4.22c-1,0-1.51.59-1.58,1.79h3.14C104.68,57.9,104.15,57.31,103.17,57.31Z"/><path class="cls-1" d="M108.44,63.13h-1.07V56.45h1.07v.66a1.82,1.82,0,0,1,1.66-.77,2.06,2.06,0,0,1,2,1.06,2.24,2.24,0,0,1,2-1.06,2.14,2.14,0,0,1,1.69.68,2.79,2.79,0,0,1,.61,1.94v4.17h-1.07V59c0-1.1-.46-1.65-1.39-1.65a1.43,1.43,0,0,0-1.07.46,1.69,1.69,0,0,0-.43,1.17v4.17h-1.06V59c0-1.1-.47-1.65-1.39-1.65a1.39,1.39,0,0,0-1.07.47,1.63,1.63,0,0,0-.43,1.16Z"/><path class="cls-1" d="M119.15,56.45v.67a2.08,2.08,0,0,1,1.82-.78,2.52,2.52,0,0,1,2,.79,3.17,3.17,0,0,1,.71,2.21v.88a3.25,3.25,0,0,1-.7,2.2,2.46,2.46,0,0,1-2,.82,2.08,2.08,0,0,1-1.82-.78v3.21h-1.07V56.45Zm1.71,5.82a1.51,1.51,0,0,0,1.25-.57,2.28,2.28,0,0,0,.46-1.48v-.88a2.26,2.26,0,0,0-.45-1.5,1.54,1.54,0,0,0-1.26-.53,1.61,1.61,0,0,0-1.26.51,2.09,2.09,0,0,0-.45,1.42v1a2.37,2.37,0,0,0,.43,1.5A1.53,1.53,0,0,0,120.86,62.27Z"/><path class="cls-1" d="M129.57,57.25l-.91.64a1.41,1.41,0,0,0-2.16-.11,1.72,1.72,0,0,0-.39,1.17v4.18H125V56.45h1.07v.66a1.68,1.68,0,0,1,1.55-.77A2.21,2.21,0,0,1,129.57,57.25Z"/><path class="cls-1" d="M134.33,61.53l.83.58a2,2,0,0,1-.9.86,3.3,3.3,0,0,1-1.44.27,2.73,2.73,0,0,1-2.09-.81,3.09,3.09,0,0,1-.76-2.21v-.88a3.22,3.22,0,0,1,.68-2.22,2.46,2.46,0,0,1,2-.78,2.5,2.5,0,0,1,2,.77,3.34,3.34,0,0,1,.66,2.23V60H131v.19a2.3,2.3,0,0,0,.45,1.49,1.48,1.48,0,0,0,1.26.56A1.67,1.67,0,0,0,134.33,61.53Zm-1.72-4.22c-1,0-1.5.59-1.58,1.79h3.14C134.12,57.9,133.6,57.31,132.61,57.31Z"/><path class="cls-1" d="M141.37,57.45l-.8.56a1.56,1.56,0,0,0-.64-.52,2.53,2.53,0,0,0-1-.16,1.67,1.67,0,0,0-.95.24.73.73,0,0,0-.34.66c0,.63.51,1,1.55,1.05a3.89,3.89,0,0,1,1.65.46,1.58,1.58,0,0,1,.75,1.53,1.73,1.73,0,0,1-.64,1.45,3.58,3.58,0,0,1-4.45-.59l.79-.56a1.67,1.67,0,0,0,.69.52,3.26,3.26,0,0,0,1.11.16,1.94,1.94,0,0,0,1.05-.25.79.79,0,0,0,.38-.7.84.84,0,0,0-.37-.77,3.36,3.36,0,0,0-1.35-.3c-1.49-.11-2.23-.77-2.23-2a1.68,1.68,0,0,1,.63-1.38,2.7,2.7,0,0,1,1.76-.52A2.65,2.65,0,0,1,141.37,57.45Z"/><path class="cls-1" d="M142.7,61.18c0-1.27.84-1.91,2.5-1.91h1.59v-.78a1.07,1.07,0,0,0-.33-.91,2,2,0,0,0-1.15-.25,2.85,2.85,0,0,0-1,.14,1.34,1.34,0,0,0-.58.54l-.8-.56a2.06,2.06,0,0,1,.91-.85,3.64,3.64,0,0,1,1.5-.26,3,3,0,0,1,1.94.5,2,2,0,0,1,.6,1.65v4.64h-1.07v-.66a1.38,1.38,0,0,1-.63.6,2.71,2.71,0,0,1-1.07.17,2.59,2.59,0,0,1-1.76-.55A1.88,1.88,0,0,1,142.7,61.18Zm4.09-.62v-.38H145.2a1.93,1.93,0,0,0-1.09.24.94.94,0,0,0-.34.79c0,.69.44,1,1.32,1a2.1,2.1,0,0,0,1.27-.32A1.71,1.71,0,0,0,146.79,60.56Z"/><path class="cls-1" d="M157.09,57.12V53.91h1.06v9.22h-1.06v-.59a2.18,2.18,0,0,1-1.82.7,2.48,2.48,0,0,1-2-.82,3.29,3.29,0,0,1-.69-2.2v-.88a3.16,3.16,0,0,1,.71-2.21,2.51,2.51,0,0,1,2-.79A2.09,2.09,0,0,1,157.09,57.12Zm-1.71,5.15a1.54,1.54,0,0,0,1.26-.52,2.16,2.16,0,0,0,.45-1.44v-1a2.25,2.25,0,0,0-.45-1.49,1.55,1.55,0,0,0-1.26-.54,1.52,1.52,0,0,0-1.26.53,2.26,2.26,0,0,0-.45,1.5v.88a2.33,2.33,0,0,0,.45,1.48A1.51,1.51,0,0,0,155.38,62.27Z"/><path class="cls-1" d="M163.92,61.53l.83.58a2,2,0,0,1-.9.86,3.3,3.3,0,0,1-1.44.27,2.73,2.73,0,0,1-2.09-.81,3.09,3.09,0,0,1-.76-2.21v-.88a3.22,3.22,0,0,1,.68-2.22,2.46,2.46,0,0,1,2-.78,2.5,2.5,0,0,1,2,.77,3.34,3.34,0,0,1,.66,2.23V60h-4.21v.19a2.3,2.3,0,0,0,.44,1.49,1.48,1.48,0,0,0,1.26.56A1.67,1.67,0,0,0,163.92,61.53Zm-1.72-4.22c-1,0-1.5.59-1.57,1.79h3.13C163.71,57.9,163.19,57.31,162.2,57.31Z"/><path class="cls-1" d="M173,59.75V58.4h3.35v.71a4.73,4.73,0,0,1-.87,3.11,3.1,3.1,0,0,1-2.52,1,3.19,3.19,0,0,1-2.54-1,4.64,4.64,0,0,1-.9-3.1V58a4.74,4.74,0,0,1,.9-3.15A3.17,3.17,0,0,1,173,53.79a3.3,3.3,0,0,1,2.27.77,3.5,3.5,0,0,1,1.08,2.21h-1.49A1.78,1.78,0,0,0,173,55.14a1.62,1.62,0,0,0-1.43.68,3.77,3.77,0,0,0-.46,2.11v1.18a3.81,3.81,0,0,0,.46,2.12,1.64,1.64,0,0,0,1.43.67,1.68,1.68,0,0,0,1.34-.53,2.75,2.75,0,0,0,.53-1.62Z"/><path class="cls-1" d="M182.87,59.14l2,4h-1.71l-1.77-3.74h-1.79v3.74H178V53.91h3.14a4,4,0,0,1,2.51.71,2.47,2.47,0,0,1,.88,2.05A2.4,2.4,0,0,1,182.87,59.14Zm-3.31-3.88v2.79H181a2.62,2.62,0,0,0,1.49-.32,1.19,1.19,0,0,0,.46-1.06,1.23,1.23,0,0,0-.46-1.08,2.61,2.61,0,0,0-1.49-.33Z"/><path class="cls-1" d="M191.51,59.4V53.91h1.55v5.48a4.12,4.12,0,0,1-.9,2.89,3.84,3.84,0,0,1-5.09,0,4.1,4.1,0,0,1-.9-2.89V53.91h1.55V59.4a3.11,3.11,0,0,0,.46,1.9,1.69,1.69,0,0,0,1.43.6,1.71,1.71,0,0,0,1.44-.6A3.11,3.11,0,0,0,191.51,59.4Z"/><path class="cls-1" d="M198.23,59.76h-1.59v3.37h-1.55V53.91h3.14a3.77,3.77,0,0,1,2.5.76,2.68,2.68,0,0,1,.89,2.16,2.71,2.71,0,0,1-.9,2.17A3.71,3.71,0,0,1,198.23,59.76Zm-1.59-4.5v3.17h1.43c1.33,0,2-.54,2-1.6s-.67-1.57-2-1.57Z"/><path class="cls-1" d="M209.48,57.93v1.18a4.64,4.64,0,0,1-.9,3.1,3.24,3.24,0,0,1-2.56,1,3.19,3.19,0,0,1-2.54-1,4.64,4.64,0,0,1-.9-3.1V57.93a4.6,4.6,0,0,1,.9-3.09A3.17,3.17,0,0,1,206,53.79a3.21,3.21,0,0,1,2.56,1.05A4.6,4.6,0,0,1,209.48,57.93Zm-5.35,0v1.18a3.72,3.72,0,0,0,.47,2.12,1.62,1.62,0,0,0,1.42.67,1.66,1.66,0,0,0,1.44-.67,3.72,3.72,0,0,0,.47-2.12V57.93a3.68,3.68,0,0,0-.47-2.11,1.64,1.64,0,0,0-1.44-.68,1.61,1.61,0,0,0-1.42.68A3.68,3.68,0,0,0,204.13,57.93Z"/><path class="cls-1" d="M217.59,63.13h-3.11V53.91h3.11c2.3,0,3.46,1.36,3.46,4.06v1.1C221.05,61.77,219.89,63.13,217.59,63.13ZM216,61.79h1.56a1.67,1.67,0,0,0,1.45-.65,3.73,3.73,0,0,0,.46-2.07V58a3.67,3.67,0,0,0-.46-2.06,1.67,1.67,0,0,0-1.45-.65H216Z"/><path class="cls-1" d="M223.85,61.22l-.63,1.91h-1.65l3.2-9.22h1.47l3.21,9.22H227.8l-.62-1.91Zm2.88-1.34-1.22-3.72-1.23,3.72Z"/><path class="cls-1" d="M229.12,55.26V53.91H236v1.35h-2.64v7.87h-1.55V55.26Z"/><path class="cls-1" d="M243.45,56.77H242a1.78,1.78,0,0,0-1.86-1.63,1.62,1.62,0,0,0-1.43.68,3.76,3.76,0,0,0-.47,2.11v1.18c0,1.86.64,2.79,1.9,2.79a1.8,1.8,0,0,0,1.23-.39,2.38,2.38,0,0,0,.63-1.24h1.48a3.08,3.08,0,0,1-3.34,3,3.19,3.19,0,0,1-2.54-1,4.64,4.64,0,0,1-.9-3.1V57.93a4.6,4.6,0,0,1,.9-3.09,3.17,3.17,0,0,1,2.54-1.05,3.32,3.32,0,0,1,2.26.76A3.51,3.51,0,0,1,243.45,56.77Z"/><path class="cls-1" d="M251.34,57.93v1.18a4.64,4.64,0,0,1-.9,3.1,3.65,3.65,0,0,1-5.1,0,4.64,4.64,0,0,1-.9-3.1V57.93a4.6,4.6,0,0,1,.9-3.09,3.62,3.62,0,0,1,5.1,0A4.6,4.6,0,0,1,251.34,57.93Zm-5.35,0v1.18a3.8,3.8,0,0,0,.47,2.12,1.86,1.86,0,0,0,2.86,0,3.71,3.71,0,0,0,.48-2.12V57.93a3.67,3.67,0,0,0-.48-2.11,1.84,1.84,0,0,0-2.86,0A3.76,3.76,0,0,0,246,57.93Z"/><path class="cls-1" d="M64.64,28.63,37.87,1.86A6.68,6.68,0,0,0,28.44,2L2.05,28.45a6.66,6.66,0,0,0-.19,9.42L28.63,64.64a6.66,6.66,0,0,0,9.42-.19L64.46,38.06A6.69,6.69,0,0,0,64.64,28.63Zm-14.34,1-19-19,2.93-2.93,19,19.05Z"/><path class="cls-1" d="M75.48,42v-14h2.73V42Z"/><path class="cls-1" d="M90.23,42l-5.54-8.58V42H82v-14H84.4l5.54,8.56V28.06h2.73V42Z"/><path class="cls-1" d="M101.76,30.49V42H99V30.49H95.38V28.06h10v2.43Z"/><path class="cls-1" d="M108.13,42v-14h9.21v2.43h-6.48v3.28h5.52v2.44h-5.52v3.4h6.48V42Z"/><path class="cls-1" d="M127.93,42l-2.73-5.58h-2V42H120.5v-14H126a5,5,0,0,1,1.91.34,4.46,4.46,0,0,1,1.43.92,4,4,0,0,1,.9,1.36,4.57,4.57,0,0,1,.3,1.66,4,4,0,0,1-.21,1.34,3.7,3.7,0,0,1-1.37,1.83,3.89,3.89,0,0,1-1,.5l3.12,6Zm-.68-11a2,2,0,0,0-1.45-.51h-2.57v3.68h2.57a2,2,0,0,0,1.45-.51,1.91,1.91,0,0,0,0-2.66Z"/><path class="cls-1" d="M142.32,39.85a3.44,3.44,0,0,1-1,1.25,4.61,4.61,0,0,1-1.53.79,6.8,6.8,0,0,1-2,.27,7.4,7.4,0,0,1-2.69-.43A6.09,6.09,0,0,1,133,40.31l1-1a5,5,0,0,0,1.75,1.2,5.9,5.9,0,0,0,2.06.33,3.89,3.89,0,0,0,2.42-.67,2.27,2.27,0,0,0,.88-1.92,2.91,2.91,0,0,0-.16-1,1.87,1.87,0,0,0-.5-.75,2.33,2.33,0,0,0-.7-.42,6.57,6.57,0,0,0-1.13-.24L137,35.56a5.12,5.12,0,0,1-2.57-1.06,3.31,3.31,0,0,1-1.06-2.61,4.07,4.07,0,0,1,.31-1.62,3.52,3.52,0,0,1,.89-1.25,4.22,4.22,0,0,1,1.41-.8,6,6,0,0,1,1.86-.28,6.53,6.53,0,0,1,2.3.36,5.82,5.82,0,0,1,1.87,1.17l-1,1a4.67,4.67,0,0,0-1.4-.89,5,5,0,0,0-1.86-.3,3.09,3.09,0,0,0-2.18.7,2.46,2.46,0,0,0-.77,1.89,2,2,0,0,0,.63,1.61,3.11,3.11,0,0,0,.83.47,6.3,6.3,0,0,0,1,.3l1.54.23c.32.05.61.11.87.17a6.3,6.3,0,0,1,.68.2,4.53,4.53,0,0,1,.54.27,3.63,3.63,0,0,1,.46.34,3.43,3.43,0,0,1,1.18,2.77A4,4,0,0,1,142.32,39.85Z"/><path class="cls-1" d="M146.27,42v-14H155v1.33h-7.19v4.93h6.13v1.34h-6.13v5.05H155V42Z"/><path class="cls-1" d="M166.58,42l-3.18-6.21H160V42h-1.49v-14h5.36a5.27,5.27,0,0,1,1.67.26,3.93,3.93,0,0,1,1.32.77,3.39,3.39,0,0,1,.85,1.23,4.23,4.23,0,0,1,.31,1.63,3.69,3.69,0,0,1-.85,2.5A3.86,3.86,0,0,1,165,35.7L168.33,42Zm-.79-12a3.11,3.11,0,0,0-2-.64H160v5.13h3.73a3.11,3.11,0,0,0,2-.63,2.35,2.35,0,0,0,.77-1.92A2.39,2.39,0,0,0,165.79,30Z"/><path class="cls-1" d="M175.87,42h-1.22l-4.59-14h1.57l3.63,11.31,3.64-11.31h1.57Z"/><path class="cls-1" d="M183.14,42v-14h1.49V42Z"/><path class="cls-1" d="M197.78,39.76a4.35,4.35,0,0,1-1.06,1.3,4.77,4.77,0,0,1-1.44.82,5.22,5.22,0,0,1-1.75.28A5,5,0,0,1,190,40.71a4.3,4.3,0,0,1-.75-1,4.38,4.38,0,0,1-.39-1.19,8.27,8.27,0,0,1-.15-1.5c0-.55,0-1.2,0-2s0-1.4,0-1.95a8.27,8.27,0,0,1,.15-1.5,4.2,4.2,0,0,1,.39-1.18,4.16,4.16,0,0,1,.75-1,5,5,0,0,1,3.58-1.45,5.49,5.49,0,0,1,1.75.28,4.77,4.77,0,0,1,1.44.82,4.28,4.28,0,0,1,1.06,1.31,5.57,5.57,0,0,1,.6,1.75h-1.53A3.65,3.65,0,0,0,195.71,30a3.16,3.16,0,0,0-2.18-.77,3.49,3.49,0,0,0-1.32.26,3.07,3.07,0,0,0-1.1.73,3.2,3.2,0,0,0-.53.71,3.28,3.28,0,0,0-.29.93,8.74,8.74,0,0,0-.13,1.29q0,.77,0,1.86t0,1.86a8.74,8.74,0,0,0,.13,1.29,3.28,3.28,0,0,0,.29.93,3.2,3.2,0,0,0,.53.71,3.07,3.07,0,0,0,1.1.73,3.48,3.48,0,0,0,1.32.25,3.24,3.24,0,0,0,2.2-.76A3.62,3.62,0,0,0,196.89,38h1.49A5.72,5.72,0,0,1,197.78,39.76Z"/><path class="cls-1" d="M202.17,42v-14h8.68v1.33h-7.18v4.93h6.12v1.34h-6.12v5.05h7.18V42Z"/><path class="cls-1" d="M222.53,39.85a3.41,3.41,0,0,1-1,1.25,4.71,4.71,0,0,1-1.53.79,6.87,6.87,0,0,1-2,.27,7.48,7.48,0,0,1-2.69-.43,6.15,6.15,0,0,1-2.1-1.42l1-1a5,5,0,0,0,1.75,1.2,5.9,5.9,0,0,0,2.06.33,3.89,3.89,0,0,0,2.42-.67,2.27,2.27,0,0,0,.88-1.92,2.91,2.91,0,0,0-.16-1,1.87,1.87,0,0,0-.5-.75,2.46,2.46,0,0,0-.7-.42,6.57,6.57,0,0,0-1.13-.24l-1.63-.26a5.08,5.08,0,0,1-2.57-1.06,3.31,3.31,0,0,1-1.06-2.61,4.07,4.07,0,0,1,.31-1.62,3.52,3.52,0,0,1,.89-1.25,4.22,4.22,0,0,1,1.41-.8,6,6,0,0,1,1.86-.28,6.57,6.57,0,0,1,2.3.36,5.93,5.93,0,0,1,1.87,1.17l-1,1a4.8,4.8,0,0,0-1.4-.89,5.05,5.05,0,0,0-1.87-.3,3.11,3.11,0,0,0-2.18.7,2.46,2.46,0,0,0-.76,1.89,2,2,0,0,0,.63,1.61,3.11,3.11,0,0,0,.83.47,6.3,6.3,0,0,0,1.05.3l1.53.23c.33.05.62.11.88.17a7.05,7.05,0,0,1,.68.2,4.53,4.53,0,0,1,.54.27,3.63,3.63,0,0,1,.46.34,3.46,3.46,0,0,1,1.18,2.77A3.85,3.85,0,0,1,222.53,39.85Z"/></svg>