<?xml version="1.0" encoding="UTF-8"?>
<svg id="Interservices" xmlns="http://www.w3.org/2000/svg" width="78.63mm" height="23.46mm" viewBox="0 0 222.88 66.49">
  <defs>
    <style>
      .cls-1 {
        fill: #fff;
      }
    </style>
  </defs>
  <path class="cls-1" d="m64.64,28.63L37.87,1.86c-2.55-2.55-6.77-2.47-9.43.18L2.05,28.45c-2.66,2.65-2.74,6.87-.18,9.43l26.76,26.76c2.55,2.55,6.77,2.47,9.42-.19l26.4-26.4c2.65-2.65,2.73-6.87.18-9.43Zm-14.33,1.01L31.25,10.59l2.93-2.93,19.05,19.05-2.93,2.92Z"/>
  <g>
    <path class="cls-1" d="m75.48,42.04v-13.98h2.73v13.98h-2.73Z"/>
    <path class="cls-1" d="m90.23,42.04l-5.54-8.58v8.58h-2.73v-13.98h2.43l5.54,8.56v-8.56h2.73v13.98h-2.43Z"/>
    <path class="cls-1" d="m101.76,30.49v11.55h-2.73v-11.55h-3.65v-2.43h10.04v2.43h-3.65Z"/>
    <path class="cls-1" d="m108.13,42.04v-13.98h9.21v2.43h-6.48v3.28h5.52v2.44h-5.52v3.4h6.48v2.44h-9.21Z"/>
    <path class="cls-1" d="m127.93,42.04l-2.73-5.58h-1.96v5.58h-2.73v-13.98h5.48c.71,0,1.34.11,1.91.34.56.23,1.04.54,1.43.92.39.39.69.84.89,1.35.2.52.3,1.07.3,1.66,0,.5-.07.94-.21,1.34-.14.39-.32.74-.56,1.05-.24.31-.51.57-.82.79-.31.21-.63.38-.97.5l3.12,6.03h-3.16Zm-.68-11.04c-.36-.34-.84-.51-1.44-.51h-2.57v3.67h2.57c.6,0,1.08-.17,1.44-.51.36-.34.54-.78.54-1.33s-.18-.99-.54-1.33Z"/>
    <path class="cls-1" d="m142.32,39.85c-.23.49-.56.91-.98,1.25-.43.34-.94.6-1.53.79-.6.18-1.25.27-1.97.27-1.05,0-1.94-.14-2.69-.43-.75-.29-1.45-.76-2.1-1.41l1.02-1.02c.58.58,1.16.97,1.75,1.2.59.22,1.28.33,2.06.33,1.02,0,1.83-.23,2.42-.68.59-.45.88-1.09.88-1.91,0-.37-.06-.7-.17-1-.11-.3-.28-.55-.5-.75-.22-.19-.46-.34-.7-.42-.24-.08-.62-.17-1.13-.25l-1.63-.25c-1.11-.18-1.97-.54-2.57-1.06-.71-.63-1.06-1.5-1.06-2.61,0-.59.11-1.13.31-1.62.21-.49.51-.91.89-1.25.39-.34.86-.61,1.41-.8.55-.19,1.17-.29,1.87-.29.89,0,1.66.12,2.3.36.64.24,1.26.63,1.87,1.17l-.96.96c-.43-.39-.9-.69-1.4-.89s-1.12-.3-1.87-.3c-.94,0-1.67.24-2.18.71-.51.47-.77,1.1-.77,1.89,0,.71.21,1.24.63,1.61.22.18.5.34.84.47.33.13.68.23,1.05.3l1.53.24c.33.05.62.11.87.17.25.06.48.13.68.21.2.08.38.17.54.27.16.1.32.21.46.34.79.67,1.18,1.59,1.18,2.77,0,.62-.12,1.17-.34,1.66Z"/>
    <path class="cls-1" d="m146.27,42.04v-13.98h8.68v1.34h-7.19v4.93h6.13v1.34h-6.13v5.05h7.19v1.34h-8.68Z"/>
    <path class="cls-1" d="m166.58,42.04l-3.18-6.21h-3.36v6.21h-1.49v-13.98h5.36c.6,0,1.16.09,1.67.26.51.18.95.43,1.31.77.37.33.65.74.86,1.23.2.48.3,1.03.3,1.63,0,1.02-.28,1.86-.85,2.51-.56.65-1.3,1.06-2.2,1.25l3.32,6.34h-1.75Zm-.8-12.01c-.52-.42-1.19-.64-2.02-.64h-3.73v5.13h3.73c.83,0,1.5-.21,2.02-.63.52-.42.77-1.06.77-1.92s-.26-1.51-.77-1.94Z"/>
    <path class="cls-1" d="m175.87,42.04h-1.22l-4.6-13.98h1.57l3.63,11.31,3.63-11.31h1.57l-4.6,13.98Z"/>
    <path class="cls-1" d="m183.14,42.04v-13.98h1.49v13.98h-1.49Z"/>
    <path class="cls-1" d="m197.78,39.76c-.28.52-.64.95-1.06,1.3-.42.36-.91.63-1.44.82-.54.19-1.12.28-1.75.28-.69,0-1.35-.12-1.96-.37-.61-.25-1.15-.61-1.62-1.08-.33-.33-.58-.67-.75-1.02-.18-.35-.31-.75-.39-1.19-.08-.44-.13-.94-.15-1.49-.01-.56-.02-1.21-.02-1.96s0-1.4.02-1.95c.01-.56.06-1.05.15-1.49.08-.44.22-.83.39-1.19.18-.35.43-.69.75-1.02.47-.47,1.01-.83,1.62-1.08.61-.25,1.26-.37,1.96-.37.63,0,1.21.1,1.75.29.54.19,1.02.46,1.44.81.43.36.78.79,1.06,1.31.28.52.48,1.1.6,1.76h-1.53c-.18-.86-.56-1.55-1.14-2.06-.58-.51-1.3-.77-2.18-.77-.46,0-.9.09-1.33.26-.43.17-.79.41-1.09.73-.22.22-.4.46-.53.72-.13.25-.23.56-.29.92-.07.36-.11.79-.13,1.3-.02.5-.03,1.12-.03,1.85s0,1.35.03,1.86c.02.5.06.94.13,1.3.06.36.16.67.29.92s.31.49.53.72c.3.31.66.56,1.09.73.42.17.87.25,1.33.25.88,0,1.61-.25,2.2-.77.59-.51.98-1.2,1.16-2.06h1.49c-.12.65-.32,1.24-.6,1.76Z"/>
    <path class="cls-1" d="m202.17,42.04v-13.98h8.68v1.34h-7.19v4.93h6.13v1.34h-6.13v5.05h7.19v1.34h-8.68Z"/>
    <path class="cls-1" d="m222.53,39.85c-.23.49-.56.91-.98,1.25-.43.34-.94.6-1.53.79-.6.18-1.25.27-1.97.27-1.05,0-1.94-.14-2.69-.43-.75-.29-1.45-.76-2.1-1.41l1.02-1.02c.58.58,1.16.97,1.75,1.2.59.22,1.28.33,2.06.33,1.02,0,1.83-.23,2.41-.68.59-.45.88-1.09.88-1.91,0-.37-.06-.7-.17-1-.11-.3-.28-.55-.5-.75-.22-.19-.46-.34-.7-.42-.24-.08-.62-.17-1.13-.25l-1.63-.25c-1.11-.18-1.97-.54-2.57-1.06-.71-.63-1.06-1.5-1.06-2.61,0-.59.1-1.13.31-1.62.21-.49.51-.91.89-1.25.39-.34.86-.61,1.41-.8.55-.19,1.17-.29,1.87-.29.89,0,1.66.12,2.3.36.64.24,1.26.63,1.87,1.17l-.96.96c-.43-.39-.9-.69-1.4-.89s-1.12-.3-1.87-.3c-.94,0-1.67.24-2.18.71-.51.47-.77,1.1-.77,1.89,0,.71.21,1.24.63,1.61.22.18.5.34.84.47.33.13.68.23,1.05.3l1.53.24c.33.05.62.11.87.17.25.06.48.13.68.21.2.08.38.17.54.27.16.1.32.21.46.34.79.67,1.18,1.59,1.18,2.77,0,.62-.12,1.17-.34,1.66Z"/>
  </g>
</svg>