<svg id="Silica_Networks" data-name="Silica Networks" xmlns="http://www.w3.org/2000/svg" viewBox="0 0 251.35 66.5"><defs><style>.cls-1{fill:#fff;}</style></defs><path class="cls-1" d="M80.79,59.39V53.91h1.15v5.47a4.18,4.18,0,0,1-.87,2.89,3.66,3.66,0,0,1-4.95,0,4.23,4.23,0,0,1-.86-2.89V53.91h1.15v5.48A3.4,3.4,0,0,0,77,61.52a2.37,2.37,0,0,0,3.3,0A3.4,3.4,0,0,0,80.79,59.39Z"/><path class="cls-1" d="M85,63.13H83.94V56.45H85v.66a1.48,1.48,0,0,1,.68-.59,2.76,2.76,0,0,1,1.11-.18,2.4,2.4,0,0,1,1.79.65,2.69,2.69,0,0,1,.64,2v4.17H88.16V59c0-1.1-.51-1.65-1.52-1.65A1.56,1.56,0,0,0,85,59Z"/><path class="cls-1" d="M90.63,61.18c0-1.27.83-1.91,2.5-1.91h1.58v-.78a1.07,1.07,0,0,0-.32-.91,2.05,2.05,0,0,0-1.16-.25,2.75,2.75,0,0,0-1,.14,1.35,1.35,0,0,0-.59.54l-.8-.56a2.06,2.06,0,0,1,.91-.85,3.66,3.66,0,0,1,1.51-.26,3,3,0,0,1,1.93.5,2,2,0,0,1,.6,1.65v4.64H94.71v-.66a1.29,1.29,0,0,1-.63.6,2.65,2.65,0,0,1-1.06.17,2.6,2.6,0,0,1-1.77-.55A1.9,1.9,0,0,1,90.63,61.18Zm4.08-.62v-.38H93.13a1.93,1.93,0,0,0-1.09.24.91.91,0,0,0-.34.79c0,.69.44,1,1.32,1a2.14,2.14,0,0,0,1.27-.32A1.75,1.75,0,0,0,94.71,60.56Z"/><path class="cls-1" d="M104.89,61.53l.83.58a2,2,0,0,1-.9.86,3.3,3.3,0,0,1-1.44.27,2.75,2.75,0,0,1-2.1-.81,3.14,3.14,0,0,1-.76-2.21v-.88a3.27,3.27,0,0,1,.68-2.22,2.89,2.89,0,0,1,3.94,0,3.28,3.28,0,0,1,.67,2.23V60h-4.22v.19a2.36,2.36,0,0,0,.44,1.49,1.51,1.51,0,0,0,1.27.56A1.69,1.69,0,0,0,104.89,61.53Zm-1.72-4.22c-1,0-1.51.59-1.58,1.79h3.14C104.68,57.9,104.15,57.31,103.17,57.31Z"/><path class="cls-1" d="M108.44,63.13h-1.07V56.45h1.07v.66a1.82,1.82,0,0,1,1.66-.77,2.06,2.06,0,0,1,2,1.06,2.24,2.24,0,0,1,2-1.06,2.14,2.14,0,0,1,1.69.68,2.79,2.79,0,0,1,.61,1.94v4.17h-1.07V59c0-1.1-.46-1.65-1.39-1.65a1.43,1.43,0,0,0-1.07.46,1.69,1.69,0,0,0-.43,1.17v4.17h-1.06V59c0-1.1-.47-1.65-1.39-1.65a1.39,1.39,0,0,0-1.07.47,1.63,1.63,0,0,0-.43,1.16Z"/><path class="cls-1" d="M119.15,56.45v.67a2.08,2.08,0,0,1,1.82-.78,2.52,2.52,0,0,1,2,.79,3.17,3.17,0,0,1,.71,2.21v.88a3.25,3.25,0,0,1-.7,2.2,2.46,2.46,0,0,1-2,.82,2.08,2.08,0,0,1-1.82-.78v3.21h-1.07V56.45Zm1.71,5.82a1.51,1.51,0,0,0,1.25-.57,2.28,2.28,0,0,0,.46-1.48v-.88a2.26,2.26,0,0,0-.45-1.5,1.54,1.54,0,0,0-1.26-.53,1.61,1.61,0,0,0-1.26.51,2.09,2.09,0,0,0-.45,1.42v1a2.37,2.37,0,0,0,.43,1.5A1.53,1.53,0,0,0,120.86,62.27Z"/><path class="cls-1" d="M129.57,57.25l-.91.64a1.41,1.41,0,0,0-2.16-.11,1.72,1.72,0,0,0-.39,1.17v4.18H125V56.45h1.07v.66a1.68,1.68,0,0,1,1.55-.77A2.21,2.21,0,0,1,129.57,57.25Z"/><path class="cls-1" d="M134.33,61.53l.83.58a2,2,0,0,1-.9.86,3.3,3.3,0,0,1-1.44.27,2.73,2.73,0,0,1-2.09-.81,3.09,3.09,0,0,1-.76-2.21v-.88a3.22,3.22,0,0,1,.68-2.22,2.46,2.46,0,0,1,2-.78,2.5,2.5,0,0,1,2,.77,3.34,3.34,0,0,1,.66,2.23V60H131v.19a2.3,2.3,0,0,0,.45,1.49,1.48,1.48,0,0,0,1.26.56A1.67,1.67,0,0,0,134.33,61.53Zm-1.72-4.22c-1,0-1.5.59-1.58,1.79h3.14C134.12,57.9,133.6,57.31,132.61,57.31Z"/><path class="cls-1" d="M141.37,57.45l-.8.56a1.56,1.56,0,0,0-.64-.52,2.53,2.53,0,0,0-1-.16,1.67,1.67,0,0,0-.95.24.73.73,0,0,0-.34.66c0,.63.51,1,1.55,1.05a3.89,3.89,0,0,1,1.65.46,1.58,1.58,0,0,1,.75,1.53,1.73,1.73,0,0,1-.64,1.45,3.58,3.58,0,0,1-4.45-.59l.79-.56a1.67,1.67,0,0,0,.69.52,3.26,3.26,0,0,0,1.11.16,1.94,1.94,0,0,0,1.05-.25.79.79,0,0,0,.38-.7.84.84,0,0,0-.37-.77,3.36,3.36,0,0,0-1.35-.3c-1.49-.11-2.23-.77-2.23-2a1.68,1.68,0,0,1,.63-1.38,2.7,2.7,0,0,1,1.76-.52A2.65,2.65,0,0,1,141.37,57.45Z"/><path class="cls-1" d="M142.7,61.18c0-1.27.84-1.91,2.5-1.91h1.59v-.78a1.07,1.07,0,0,0-.33-.91,2,2,0,0,0-1.15-.25,2.85,2.85,0,0,0-1,.14,1.34,1.34,0,0,0-.58.54l-.8-.56a2.06,2.06,0,0,1,.91-.85,3.64,3.64,0,0,1,1.5-.26,3,3,0,0,1,1.94.5,2,2,0,0,1,.6,1.65v4.64h-1.07v-.66a1.38,1.38,0,0,1-.63.6,2.71,2.71,0,0,1-1.07.17,2.59,2.59,0,0,1-1.76-.55A1.88,1.88,0,0,1,142.7,61.18Zm4.09-.62v-.38H145.2a1.93,1.93,0,0,0-1.09.24.94.94,0,0,0-.34.79c0,.69.44,1,1.32,1a2.1,2.1,0,0,0,1.27-.32A1.71,1.71,0,0,0,146.79,60.56Z"/><path class="cls-1" d="M157.09,57.12V53.91h1.06v9.22h-1.06v-.59a2.18,2.18,0,0,1-1.82.7,2.48,2.48,0,0,1-2-.82,3.29,3.29,0,0,1-.69-2.2v-.88a3.16,3.16,0,0,1,.71-2.21,2.51,2.51,0,0,1,2-.79A2.09,2.09,0,0,1,157.09,57.12Zm-1.71,5.15a1.54,1.54,0,0,0,1.26-.52,2.16,2.16,0,0,0,.45-1.44v-1a2.25,2.25,0,0,0-.45-1.49,1.55,1.55,0,0,0-1.26-.54,1.52,1.52,0,0,0-1.26.53,2.26,2.26,0,0,0-.45,1.5v.88a2.33,2.33,0,0,0,.45,1.48A1.51,1.51,0,0,0,155.38,62.27Z"/><path class="cls-1" d="M163.92,61.53l.83.58a2,2,0,0,1-.9.86,3.3,3.3,0,0,1-1.44.27,2.73,2.73,0,0,1-2.09-.81,3.09,3.09,0,0,1-.76-2.21v-.88a3.22,3.22,0,0,1,.68-2.22,2.46,2.46,0,0,1,2-.78,2.5,2.5,0,0,1,2,.77,3.34,3.34,0,0,1,.66,2.23V60h-4.21v.19a2.3,2.3,0,0,0,.44,1.49,1.48,1.48,0,0,0,1.26.56A1.67,1.67,0,0,0,163.92,61.53Zm-1.72-4.22c-1,0-1.5.59-1.57,1.79h3.13C163.71,57.9,163.19,57.31,162.2,57.31Z"/><path class="cls-1" d="M173,59.75V58.4h3.35v.71a4.73,4.73,0,0,1-.87,3.11,3.1,3.1,0,0,1-2.52,1,3.19,3.19,0,0,1-2.54-1,4.64,4.64,0,0,1-.9-3.1V58a4.74,4.74,0,0,1,.9-3.15A3.17,3.17,0,0,1,173,53.79a3.3,3.3,0,0,1,2.27.77,3.5,3.5,0,0,1,1.08,2.21h-1.49A1.78,1.78,0,0,0,173,55.14a1.62,1.62,0,0,0-1.43.68,3.77,3.77,0,0,0-.46,2.11v1.18a3.81,3.81,0,0,0,.46,2.12,1.64,1.64,0,0,0,1.43.67,1.68,1.68,0,0,0,1.34-.53,2.75,2.75,0,0,0,.53-1.62Z"/><path class="cls-1" d="M182.87,59.14l2,4h-1.71l-1.77-3.74h-1.79v3.74H178V53.91h3.14a4,4,0,0,1,2.51.71,2.47,2.47,0,0,1,.88,2.05A2.4,2.4,0,0,1,182.87,59.14Zm-3.31-3.88v2.79H181a2.62,2.62,0,0,0,1.49-.32,1.19,1.19,0,0,0,.46-1.06,1.23,1.23,0,0,0-.46-1.08,2.61,2.61,0,0,0-1.49-.33Z"/><path class="cls-1" d="M191.51,59.4V53.91h1.55v5.48a4.12,4.12,0,0,1-.9,2.89,3.84,3.84,0,0,1-5.09,0,4.1,4.1,0,0,1-.9-2.89V53.91h1.55V59.4a3.11,3.11,0,0,0,.46,1.9,1.69,1.69,0,0,0,1.43.6,1.71,1.71,0,0,0,1.44-.6A3.11,3.11,0,0,0,191.51,59.4Z"/><path class="cls-1" d="M198.23,59.76h-1.59v3.37h-1.55V53.91h3.14a3.77,3.77,0,0,1,2.5.76,2.68,2.68,0,0,1,.89,2.16,2.71,2.71,0,0,1-.9,2.17A3.71,3.71,0,0,1,198.23,59.76Zm-1.59-4.5v3.17h1.43c1.33,0,2-.54,2-1.6s-.67-1.57-2-1.57Z"/><path class="cls-1" d="M209.48,57.93v1.18a4.64,4.64,0,0,1-.9,3.1,3.24,3.24,0,0,1-2.56,1,3.19,3.19,0,0,1-2.54-1,4.64,4.64,0,0,1-.9-3.1V57.93a4.6,4.6,0,0,1,.9-3.09A3.17,3.17,0,0,1,206,53.79a3.21,3.21,0,0,1,2.56,1.05A4.6,4.6,0,0,1,209.48,57.93Zm-5.35,0v1.18a3.72,3.72,0,0,0,.47,2.12,1.62,1.62,0,0,0,1.42.67,1.66,1.66,0,0,0,1.44-.67,3.72,3.72,0,0,0,.47-2.12V57.93a3.68,3.68,0,0,0-.47-2.11,1.64,1.64,0,0,0-1.44-.68,1.61,1.61,0,0,0-1.42.68A3.68,3.68,0,0,0,204.13,57.93Z"/><path class="cls-1" d="M217.59,63.13h-3.11V53.91h3.11c2.3,0,3.46,1.36,3.46,4.06v1.1C221.05,61.77,219.89,63.13,217.59,63.13ZM216,61.79h1.56a1.67,1.67,0,0,0,1.45-.65,3.73,3.73,0,0,0,.46-2.07V58a3.67,3.67,0,0,0-.46-2.06,1.67,1.67,0,0,0-1.45-.65H216Z"/><path class="cls-1" d="M223.85,61.22l-.63,1.91h-1.65l3.2-9.22h1.47l3.21,9.22H227.8l-.62-1.91Zm2.88-1.34-1.22-3.72-1.23,3.72Z"/><path class="cls-1" d="M229.12,55.26V53.91H236v1.35h-2.64v7.87h-1.55V55.26Z"/><path class="cls-1" d="M243.45,56.77H242a1.78,1.78,0,0,0-1.86-1.63,1.62,1.62,0,0,0-1.43.68,3.76,3.76,0,0,0-.47,2.11v1.18c0,1.86.64,2.79,1.9,2.79a1.8,1.8,0,0,0,1.23-.39,2.38,2.38,0,0,0,.63-1.24h1.48a3.08,3.08,0,0,1-3.34,3,3.19,3.19,0,0,1-2.54-1,4.64,4.64,0,0,1-.9-3.1V57.93a4.6,4.6,0,0,1,.9-3.09,3.17,3.17,0,0,1,2.54-1.05,3.32,3.32,0,0,1,2.26.76A3.51,3.51,0,0,1,243.45,56.77Z"/><path class="cls-1" d="M251.34,57.93v1.18a4.64,4.64,0,0,1-.9,3.1,3.65,3.65,0,0,1-5.1,0,4.64,4.64,0,0,1-.9-3.1V57.93a4.6,4.6,0,0,1,.9-3.09,3.62,3.62,0,0,1,5.1,0A4.6,4.6,0,0,1,251.34,57.93Zm-5.35,0v1.18a3.8,3.8,0,0,0,.47,2.12,1.86,1.86,0,0,0,2.86,0,3.71,3.71,0,0,0,.48-2.12V57.93a3.67,3.67,0,0,0-.48-2.11,1.84,1.84,0,0,0-2.86,0A3.76,3.76,0,0,0,246,57.93Z"/><path class="cls-1" d="M64.64,28.63,37.87,1.86A6.67,6.67,0,0,0,28.45,2L2,28.45a6.67,6.67,0,0,0-.18,9.42L28.63,64.64a6.66,6.66,0,0,0,9.42-.19L64.46,38.06A6.68,6.68,0,0,0,64.64,28.63ZM50.19,26.89a8.91,8.91,0,0,1-1.08,3.29,13.25,13.25,0,0,1-2.38,3.13,15.87,15.87,0,0,1-4.39,3.23,11.42,11.42,0,0,1-4.91,1l0-3.85a8.13,8.13,0,0,0,2.48-.34,8,8,0,0,0,2.22-1,12.91,12.91,0,0,0,2-1.68A6.77,6.77,0,0,0,46.31,27a3.55,3.55,0,0,0-1.1-3.2,3.56,3.56,0,0,0-2.73-1.21,3.32,3.32,0,0,0-1.31.28,8.44,8.44,0,0,0-1.58,1L37,25.8a9.32,9.32,0,0,1-5.16,2.11,6.73,6.73,0,0,1-5-2.24A7.86,7.86,0,0,1,24.68,22a7.36,7.36,0,0,1,.25-4.19,10.94,10.94,0,0,1,2.7-4.09,13.63,13.63,0,0,1,3.85-2.82,10.91,10.91,0,0,1,4.26-1l0,3.7a6.59,6.59,0,0,0-2.12.35,7.72,7.72,0,0,0-1.82.9,11.84,11.84,0,0,0-1.7,1.43,6,6,0,0,0-1.49,2.25,3.81,3.81,0,0,0-.15,2.25,4,4,0,0,0,1.12,1.95A3.19,3.19,0,0,0,32,23.79a5.2,5.2,0,0,0,1.47-.39,7.13,7.13,0,0,0,1.56-.89l2.5-1.85A14.51,14.51,0,0,1,40.24,19a6.57,6.57,0,0,1,2.31-.54A6.92,6.92,0,0,1,48,20.84a7.46,7.46,0,0,1,1.82,2.82A7.06,7.06,0,0,1,50.19,26.89Z"/><path class="cls-1" d="M84.68,39.8a4,4,0,0,1-1.1,1.33,5,5,0,0,1-1.64.82,7.1,7.1,0,0,1-2,.29A9.2,9.2,0,0,1,77,41.83a5.51,5.51,0,0,1-2.27-1.44l1.77-1.78a3.52,3.52,0,0,0,1.54.93,6.46,6.46,0,0,0,1.85.26,3.18,3.18,0,0,0,1.85-.45,1.47,1.47,0,0,0,.63-1.29A1.59,1.59,0,0,0,82,36.88a1.66,1.66,0,0,0-.49-.3,3,3,0,0,0-.76-.19L79,36.15A4.79,4.79,0,0,1,76.32,35a3.73,3.73,0,0,1-1-2.76,4.36,4.36,0,0,1,.33-1.72,3.82,3.82,0,0,1,1-1.34,4.58,4.58,0,0,1,1.53-.88,6.26,6.26,0,0,1,2-.31,7.77,7.77,0,0,1,2.54.37,5.32,5.32,0,0,1,2,1.26L83,31.33a3,3,0,0,0-1.43-.8,6.81,6.81,0,0,0-1.45-.17,2.28,2.28,0,0,0-1.63.52A1.68,1.68,0,0,0,78,32.13a1.4,1.4,0,0,0,.1.54,1.37,1.37,0,0,0,.31.47,2.17,2.17,0,0,0,.54.34,2.72,2.72,0,0,0,.76.21l1.65.24a6.31,6.31,0,0,1,1.6.4A3.68,3.68,0,0,1,84,35a3.06,3.06,0,0,1,.83,1.28A5.21,5.21,0,0,1,85.09,38,3.94,3.94,0,0,1,84.68,39.8Z"/><path class="cls-1" d="M87.17,42.12v-14h2.74v14Z"/><path class="cls-1" d="M92.69,42.12v-14h2.74V39.68h6.36v2.44Z"/><path class="cls-1" d="M103.52,42.12v-14h2.74v14Z"/><path class="cls-1" d="M118.25,39.74a4.89,4.89,0,0,1-1.15,1.39,4.59,4.59,0,0,1-1.54.83,5.84,5.84,0,0,1-1.83.28,5.21,5.21,0,0,1-2.1-.4,5.15,5.15,0,0,1-1.69-1.14,4.07,4.07,0,0,1-.81-1.13,5,5,0,0,1-.41-1.29,11.11,11.11,0,0,1-.14-1.48c0-.52,0-1.09,0-1.69s0-1.17,0-1.7a11.11,11.11,0,0,1,.14-1.47,5,5,0,0,1,.41-1.29,4.27,4.27,0,0,1,.81-1.14,5.31,5.31,0,0,1,1.69-1.14,5.38,5.38,0,0,1,2.1-.39,6.11,6.11,0,0,1,1.84.27,4.75,4.75,0,0,1,1.53.84,4.89,4.89,0,0,1,1.15,1.39,6,6,0,0,1,.64,1.93h-2.78a3.17,3.17,0,0,0-.77-1.42,2.13,2.13,0,0,0-1.6-.57,2.49,2.49,0,0,0-1,.2,2.13,2.13,0,0,0-.74.53,2,2,0,0,0-.33.48,2.22,2.22,0,0,0-.22.7,9,9,0,0,0-.11,1.1q0,.68,0,1.68c0,.67,0,1.23,0,1.67a9,9,0,0,0,.11,1.11,2.15,2.15,0,0,0,.22.69,2.34,2.34,0,0,0,.33.49,2.13,2.13,0,0,0,.74.53,2.49,2.49,0,0,0,1,.2,2.09,2.09,0,0,0,1.6-.58,3.13,3.13,0,0,0,.77-1.41h2.78A6.09,6.09,0,0,1,118.25,39.74Z"/><path class="cls-1" d="M128.54,42.12l-.83-2.48h-5l-.85,2.48H119l5.1-14h2.15l5.12,14Zm-3.27-9.89-1.78,5.1H127Z"/><path class="cls-1" d="M142,42.12l-7.45-11.25V42.12H133v-14h1.42l7.44,11.2V28.1h1.5v14Z"/><path class="cls-1" d="M147,42.12v-14h8.71v1.34h-7.21v4.94h6.14v1.34h-6.14v5.06h7.21v1.34Z"/><path class="cls-1" d="M162.39,29.44V42.12H160.9V29.44h-4.06V28.1h9.61v1.34Z"/><path class="cls-1" d="M179.47,42.12h-1.4L175,30.89l-3.11,11.23h-1.4l-3.58-14h1.59l2.74,11.3,3.09-11.3h1.34l3.09,11.3,2.74-11.3h1.6Z"/><path class="cls-1" d="M194,37.07a9.27,9.27,0,0,1-.15,1.5,5.19,5.19,0,0,1-.39,1.19,4.1,4.1,0,0,1-.76,1,4.84,4.84,0,0,1-1.62,1.08,5.09,5.09,0,0,1-2,.38,4.86,4.86,0,0,1-3.58-1.46,4.1,4.1,0,0,1-.76-1,4.38,4.38,0,0,1-.39-1.19,8.27,8.27,0,0,1-.15-1.5c0-.56,0-1.21,0-2s0-1.4,0-2a8.27,8.27,0,0,1,.15-1.5,4.27,4.27,0,0,1,.39-1.19,3.92,3.92,0,0,1,.76-1,5.13,5.13,0,0,1,7.17,0,3.92,3.92,0,0,1,.76,1,5,5,0,0,1,.39,1.19,9.27,9.27,0,0,1,.15,1.5c0,.56,0,1.21,0,2S194,36.51,194,37.07Zm-1.51-3.82a8.46,8.46,0,0,0-.13-1.29A3.21,3.21,0,0,0,192,31a3.17,3.17,0,0,0-.53-.72,3.38,3.38,0,0,0-1.1-.74,3.53,3.53,0,0,0-2.66,0,3.34,3.34,0,0,0-1.09.74,3.17,3.17,0,0,0-.53.72,3.55,3.55,0,0,0-.3.92,10,10,0,0,0-.13,1.29c0,.5,0,1.12,0,1.86s0,1.35,0,1.86a10.16,10.16,0,0,0,.13,1.29,3.68,3.68,0,0,0,.3.92,2.92,2.92,0,0,0,.53.71,3.06,3.06,0,0,0,1.09.74,3.41,3.41,0,0,0,2.66,0,3.1,3.1,0,0,0,1.1-.74,2.92,2.92,0,0,0,.53-.71,3.32,3.32,0,0,0,.29-.92,8.6,8.6,0,0,0,.13-1.29q0-.77,0-1.86T192.46,33.25Z"/><path class="cls-1" d="M205.08,42.12l-3.19-6.22h-3.37v6.22H197v-14h5.38a5,5,0,0,1,1.67.26,3.93,3.93,0,0,1,1.32.77,3.59,3.59,0,0,1,.86,1.23,4.28,4.28,0,0,1,.3,1.64,3.71,3.71,0,0,1-.84,2.51,3.89,3.89,0,0,1-2.21,1.25l3.33,6.36Zm-.8-12a3.06,3.06,0,0,0-2-.64h-3.74v5.14h3.74a3.11,3.11,0,0,0,2-.63,2.34,2.34,0,0,0,.78-1.93A2.35,2.35,0,0,0,204.28,30.08Z"/><path class="cls-1" d="M218.17,42.12l-4.27-7.47-3,3.55v3.92h-1.49v-14h1.49v8l6.54-8h1.84l-4.42,5.41,5,8.61Z"/><path class="cls-1" d="M229.86,39.92a3.43,3.43,0,0,1-1,1.25,4.4,4.4,0,0,1-1.54.79,6.54,6.54,0,0,1-2,.28,7.72,7.72,0,0,1-2.7-.43,6.11,6.11,0,0,1-2.1-1.42l1-1a5,5,0,0,0,1.75,1.2,5.69,5.69,0,0,0,2.07.34,3.89,3.89,0,0,0,2.42-.68,2.28,2.28,0,0,0,.89-1.92,3,3,0,0,0-.17-1,1.77,1.77,0,0,0-.5-.74,2.18,2.18,0,0,0-.7-.43,7.71,7.71,0,0,0-1.13-.24l-1.64-.26A5.2,5.2,0,0,1,222,34.56a3.33,3.33,0,0,1-1.06-2.62,4.12,4.12,0,0,1,.31-1.63,3.43,3.43,0,0,1,.9-1.25,4.22,4.22,0,0,1,1.41-.8,5.7,5.7,0,0,1,1.87-.28,6.57,6.57,0,0,1,2.3.36,6.35,6.35,0,0,1,1.88,1.17l-1,1a4.91,4.91,0,0,0-1.4-.9,5.05,5.05,0,0,0-1.87-.3,3.06,3.06,0,0,0-2.18.71,2.42,2.42,0,0,0-.77,1.89,2,2,0,0,0,.63,1.61,3.12,3.12,0,0,0,.83.48,5.35,5.35,0,0,0,1.06.29l1.53.24c.33,0,.63.11.88.17a3.66,3.66,0,0,1,.68.2,3.4,3.4,0,0,1,.54.27,3.12,3.12,0,0,1,.47.34,3.48,3.48,0,0,1,1.18,2.78A3.85,3.85,0,0,1,229.86,39.92Z"/></svg>