<?xml version="1.0" encoding="UTF-8"?><svg id="Silica_Networks" xmlns="http://www.w3.org/2000/svg" viewBox="0 0 79.79 79.79"><defs><style>.cls-1{fill:#fff;}.cls-2{fill:#497718;}</style></defs><path class="cls-2" d="m77.56,34.35L45.44,2.23c-3.06-3.06-8.13-2.96-11.31.22L2.45,34.13c-3.18,3.18-3.28,8.24-.22,11.31l32.12,32.11c3.06,3.07,8.13,2.96,11.31-.22l31.68-31.67c3.18-3.18,3.28-8.25.21-11.32Z"/><path class="cls-1" d="m60.22,32.27c-.16,1.34-.59,2.66-1.29,3.95-.7,1.3-1.65,2.55-2.86,3.75-1.75,1.75-3.51,3.04-5.27,3.87-1.76.83-3.73,1.24-5.89,1.24l.04-4.62c1.04,0,2.03-.13,2.98-.41.95-.28,1.84-.7,2.66-1.25.83-.56,1.64-1.23,2.42-2.02,1.48-1.48,2.33-2.95,2.55-4.4.22-1.45-.22-2.73-1.32-3.84-1.03-1.03-2.12-1.52-3.28-1.45-.54,0-1.07.11-1.57.33-.5.22-1.14.62-1.9,1.2l-3.08,2.33c-2.13,1.61-4.19,2.45-6.19,2.53-2.15.08-4.16-.82-6.03-2.69-1.33-1.33-2.19-2.81-2.58-4.44-.39-1.63-.29-3.3.3-5.02.6-1.71,1.67-3.35,3.24-4.92,1.54-1.54,3.08-2.67,4.62-3.38,1.54-.71,3.24-1.09,5.11-1.16l-.04,4.43c-.91.01-1.76.15-2.54.42-.78.27-1.51.63-2.19,1.09-.68.46-1.36,1.03-2.04,1.71-.87.87-1.47,1.77-1.8,2.7-.33.93-.39,1.83-.18,2.7.21.87.65,1.65,1.34,2.33.91.91,1.91,1.33,2.99,1.26.52-.04,1.11-.2,1.77-.47.65-.27,1.28-.62,1.86-1.07l3-2.22c1.2-.89,2.27-1.54,3.21-1.94.93-.4,1.85-.62,2.76-.65,2.34-.16,4.52.78,6.56,2.81,1.01,1.01,1.74,2.14,2.19,3.38.44,1.24.58,2.53.42,3.87Z"/></svg>