<svg id="Silica_Networks" data-name="Silica Networks" xmlns="http://www.w3.org/2000/svg" viewBox="0 0 79.79 79.79"><defs><style>.cls-1{fill:#497718;}.cls-2{fill:#fff;}</style></defs><path class="cls-1" d="M77.56,34.35,45.44,2.23a8,8,0,0,0-11.31.22L2.45,34.13a8,8,0,0,0-.22,11.32L34.35,77.56a8,8,0,0,0,11.31-.22L77.34,45.66A8,8,0,0,0,77.56,34.35Z"/><path class="cls-2" d="M60.22,32.27a11,11,0,0,1-1.29,3.95A16.39,16.39,0,0,1,56.07,40a19.13,19.13,0,0,1-5.27,3.87,13.69,13.69,0,0,1-5.89,1.24l0-4.62a10.12,10.12,0,0,0,3-.4,9.54,9.54,0,0,0,2.66-1.26,15.78,15.78,0,0,0,2.43-2,8.15,8.15,0,0,0,2.55-4.4,4.25,4.25,0,0,0-1.32-3.84A4.21,4.21,0,0,0,51,27.1a3.92,3.92,0,0,0-1.57.33,10.33,10.33,0,0,0-1.9,1.2L44.42,31a11.12,11.12,0,0,1-6.2,2.53,8,8,0,0,1-6-2.69,9.4,9.4,0,0,1-2.59-4.44,8.75,8.75,0,0,1,.31-5,13.06,13.06,0,0,1,3.23-4.92,16.4,16.4,0,0,1,4.62-3.37,13.11,13.11,0,0,1,5.11-1.16l0,4.44a8,8,0,0,0-2.54.42,9.3,9.3,0,0,0-2.19,1.08,14.52,14.52,0,0,0-2,1.71,7.17,7.17,0,0,0-1.8,2.71,4.66,4.66,0,0,0-.18,2.7,4.77,4.77,0,0,0,1.34,2.33,3.79,3.79,0,0,0,3,1.26,5.8,5.8,0,0,0,1.77-.46A8.23,8.23,0,0,0,42.07,27l3-2.22a16.37,16.37,0,0,1,3.21-1.94,7.6,7.6,0,0,1,2.76-.65A8.31,8.31,0,0,1,57.61,25a9.28,9.28,0,0,1,2.19,3.38A8.46,8.46,0,0,1,60.22,32.27Z"/></svg>