<?xml version="1.0" encoding="UTF-8"?>
<svg id="Sersat" xmlns="http://www.w3.org/2000/svg" width="28.15mm" height="28.15mm" viewBox="0 0 79.79 79.79">
  <defs>
    <style>
      .cls-1 {
        fill: #fff;
      }

      .cls-2 {
        fill: #109b84;
      }
    </style>
  </defs>
  <path class="cls-2" d="m77.56,34.35L45.44,2.23c-3.06-3.06-8.13-2.96-11.31.22L2.46,34.13c-3.19,3.19-3.29,8.25-.22,11.31l32.11,32.11c3.07,3.07,8.13,2.97,11.31-.22l31.68-31.67c3.18-3.18,3.28-8.25.22-11.31Z"/>
  <path class="cls-1" d="m41.56,36.94c-.12.98-.43,1.94-.94,2.89-.51.95-1.21,1.86-2.09,2.74-1.28,1.28-2.57,2.22-3.86,2.83-1.29.6-2.72.91-4.31.91l.03-3.38c.76,0,1.48-.09,2.18-.3.69-.2,1.34-.51,1.95-.92.61-.41,1.2-.9,1.77-1.47,1.08-1.08,1.7-2.16,1.87-3.22.16-1.06-.16-2-.97-2.81-.76-.76-1.55-1.11-2.4-1.06-.4,0-.78.08-1.15.25-.37.16-.83.45-1.39.88l-2.25,1.7c-1.56,1.18-3.07,1.79-4.53,1.85-1.57.06-3.04-.6-4.41-1.96-.97-.97-1.6-2.05-1.89-3.25-.29-1.19-.21-2.42.22-3.67.43-1.25,1.22-2.45,2.37-3.59,1.13-1.13,2.25-1.95,3.38-2.47,1.12-.52,2.37-.8,3.74-.85l-.03,3.24c-.67,0-1.29.11-1.86.31-.57.2-1.1.46-1.6.8-.49.33-.99.75-1.49,1.25-.64.64-1.08,1.29-1.31,1.98-.24.68-.28,1.34-.13,1.98.15.63.48,1.2.98,1.7.66.66,1.39.97,2.19.92.38-.03.81-.15,1.29-.34.48-.2.93-.46,1.36-.78l2.2-1.62c.88-.65,1.66-1.13,2.34-1.42.68-.29,1.36-.45,2.02-.48,1.71-.12,3.31.57,4.8,2.06.74.74,1.27,1.57,1.6,2.47.32.91.43,1.85.31,2.83Z"/>
  <polygon class="cls-1" points="51.21 29.63 36.09 14.51 31.23 19.36 29.63 17.77 41.14 6.26 42.73 7.86 37.88 12.72 53 27.84 51.21 29.63"/>
</svg>