<?xml version="1.0" encoding="UTF-8"?><svg id="Silica_Networks" xmlns="http://www.w3.org/2000/svg" viewBox="0 0 230.21 66.5"><defs><style>.cls-1{fill:#fff;}</style></defs><path class="cls-1" d="m64.64,28.63L37.87,1.86c-2.55-2.55-6.77-2.47-9.43.18L2.04,28.45c-2.65,2.65-2.73,6.87-.18,9.43l26.77,26.76c2.55,2.56,6.77,2.47,9.43-.19l26.4-26.4c2.65-2.65,2.73-6.88.18-9.43Zm-14.45-1.74c-.13,1.12-.49,2.22-1.07,3.29-.58,1.08-1.38,2.12-2.38,3.13-1.46,1.46-2.93,2.54-4.4,3.23-1.47.69-3.11,1.04-4.91,1.03l.03-3.85c.86,0,1.69-.11,2.48-.34.79-.23,1.53-.58,2.22-1.04.69-.46,1.36-1.02,2.02-1.68,1.23-1.23,1.94-2.46,2.13-3.67.19-1.21-.18-2.28-1.1-3.2-.86-.86-1.77-1.26-2.73-1.21-.45,0-.89.09-1.31.28-.42.18-.95.52-1.59,1l-2.57,1.94c-1.77,1.34-3.49,2.04-5.16,2.11-1.79.07-3.46-.68-5.02-2.24-1.11-1.11-1.82-2.34-2.15-3.7-.33-1.36-.24-2.75.25-4.18.5-1.43,1.4-2.79,2.7-4.1,1.29-1.29,2.57-2.22,3.85-2.81,1.28-.59,2.7-.91,4.26-.96l-.03,3.69c-.76.01-1.46.13-2.12.35-.65.22-1.26.53-1.82.91-.56.38-1.13.86-1.7,1.42-.73.73-1.23,1.48-1.5,2.25-.27.78-.32,1.53-.15,2.25.17.72.54,1.37,1.12,1.95.76.76,1.59,1.11,2.5,1.05.44-.04.93-.17,1.47-.39.55-.22,1.06-.52,1.55-.89l2.5-1.85c1-.74,1.9-1.28,2.67-1.62.78-.33,1.55-.51,2.3-.54,1.95-.13,3.77.65,5.47,2.35.85.85,1.45,1.78,1.82,2.82.37,1.03.49,2.11.35,3.23Z"/><path class="cls-1" d="m84.68,39.8c-.27.53-.64.97-1.1,1.33-.47.36-1.01.64-1.64.83-.63.19-1.31.29-2.05.29-1.06,0-2.01-.13-2.85-.4-.83-.27-1.59-.75-2.28-1.45l1.77-1.77c.45.45.96.76,1.54.93.58.17,1.19.26,1.85.26.81,0,1.43-.15,1.85-.44.42-.3.63-.73.63-1.29,0-.51-.14-.91-.43-1.18-.14-.13-.31-.23-.48-.31-.18-.07-.43-.13-.76-.19l-1.69-.24c-1.2-.17-2.1-.56-2.72-1.16-.67-.67-1-1.59-1-2.76,0-.63.11-1.2.33-1.72.22-.52.54-.97.97-1.34.42-.37.93-.67,1.54-.88.6-.21,1.29-.32,2.05-.32.97,0,1.82.12,2.54.37.72.25,1.39.67,1.99,1.26l-1.73,1.71c-.45-.42-.92-.69-1.43-.8-.51-.11-.99-.17-1.45-.17-.74,0-1.28.17-1.63.52-.35.35-.53.77-.53,1.25,0,.18.03.36.1.53.07.17.17.33.32.47.14.13.32.25.54.34.22.1.47.17.76.21l1.65.24c.64.09,1.18.23,1.6.4.42.18.78.4,1.08.68.38.35.66.78.83,1.28.17.5.26,1.06.26,1.69,0,.68-.13,1.29-.4,1.81Z"/><path class="cls-1" d="m87.17,42.12v-14.02h2.74v14.02h-2.74Z"/><path class="cls-1" d="m92.69,42.12v-14.02h2.74v11.58h6.36v2.44h-9.1Z"/><path class="cls-1" d="m103.52,42.12v-14.02h2.74v14.02h-2.74Z"/><path class="cls-1" d="m118.25,39.74c-.31.55-.69,1.01-1.14,1.39-.45.37-.97.65-1.55.84-.58.18-1.19.28-1.83.28-.78,0-1.47-.13-2.1-.39-.62-.26-1.18-.64-1.68-1.14-.35-.35-.63-.73-.82-1.13-.19-.4-.33-.83-.4-1.29-.08-.46-.12-.95-.14-1.48-.01-.53-.02-1.09-.02-1.69s0-1.17.02-1.69c.01-.53.06-1.02.14-1.48.08-.46.21-.89.4-1.29.19-.4.46-.78.82-1.13.5-.5,1.06-.88,1.68-1.14s1.32-.39,2.1-.39c.66,0,1.27.09,1.84.28.57.18,1.08.46,1.54.84.45.37.83.84,1.14,1.39.31.55.52,1.19.64,1.93h-2.78c-.14-.56-.4-1.04-.77-1.42-.37-.38-.9-.57-1.6-.57-.38,0-.72.07-1.01.2-.3.13-.54.31-.74.53-.13.14-.24.31-.33.48-.09.18-.16.41-.22.7-.05.29-.09.66-.11,1.1-.02.45-.03,1-.03,1.67s0,1.23.03,1.67c.02.45.06.81.11,1.1.05.29.12.52.22.7.09.18.2.34.33.48.2.22.44.4.74.53.3.13.63.2,1.01.2.7,0,1.23-.19,1.6-.57.37-.38.62-.85.77-1.42h2.78c-.12.74-.33,1.38-.64,1.93Z"/><path class="cls-1" d="m128.54,42.12l-.83-2.48h-4.98l-.85,2.48h-2.86l5.1-14.02h2.15l5.12,14.02h-2.86Zm-3.27-9.89l-1.77,5.1h3.49l-1.71-5.1Z"/><path class="cls-1" d="m141.97,42.12l-7.45-11.25v11.25h-1.5v-14.02h1.42l7.44,11.21v-11.21h1.5v14.02h-1.42Z"/><path class="cls-1" d="m146.95,42.12v-14.02h8.71v1.34h-7.21v4.94h6.15v1.34h-6.15v5.06h7.21v1.34h-8.71Z"/><path class="cls-1" d="m162.39,29.44v12.68h-1.5v-12.68h-4.06v-1.34h9.61v1.34h-4.06Z"/><path class="cls-1" d="m179.47,42.12h-1.4l-3.11-11.23-3.11,11.23h-1.4l-3.58-14.02h1.59l2.74,11.31,3.09-11.31h1.34l3.09,11.31,2.74-11.31h1.6l-3.58,14.02Z"/><path class="cls-1" d="m193.97,37.07c-.01.56-.06,1.06-.15,1.5-.09.44-.22.84-.39,1.19-.18.35-.43.7-.76,1.02-.47.47-1.01.83-1.62,1.08-.6.25-1.26.37-1.97.37-1.42,0-2.61-.49-3.59-1.46-.33-.33-.58-.67-.76-1.02-.18-.35-.31-.75-.39-1.19-.09-.44-.13-.94-.15-1.5-.01-.56-.02-1.21-.02-1.96s0-1.4.02-1.96c.01-.56.06-1.06.15-1.5.09-.44.22-.84.39-1.19s.43-.7.76-1.02c.97-.97,2.17-1.46,3.59-1.46s2.61.49,3.58,1.46c.33.33.58.67.76,1.02.18.35.31.75.39,1.19.09.44.13.94.15,1.5.01.56.02,1.21.02,1.96s0,1.4-.02,1.96Zm-1.51-3.82c-.02-.51-.06-.94-.13-1.29-.07-.35-.16-.66-.3-.92-.13-.26-.31-.5-.53-.72-.3-.32-.67-.56-1.09-.74-.43-.18-.87-.27-1.33-.27s-.9.09-1.33.27c-.43.18-.79.42-1.09.74-.22.22-.4.46-.53.72-.13.26-.23.56-.3.92-.07.35-.11.78-.13,1.29-.02.51-.03,1.13-.03,1.86s0,1.36.03,1.86c.02.51.06.94.13,1.29.07.35.16.66.3.92.13.26.31.5.53.72.3.32.67.56,1.09.74.43.18.87.27,1.33.27s.9-.09,1.33-.27c.43-.18.79-.42,1.09-.74.22-.22.4-.46.53-.72.13-.26.23-.56.3-.92.07-.35.11-.78.13-1.29.02-.51.03-1.13.03-1.86s0-1.36-.03-1.86Z"/><path class="cls-1" d="m205.08,42.12l-3.19-6.22h-3.37v6.22h-1.5v-14.02h5.38c.6,0,1.16.09,1.67.27.51.18.95.43,1.32.77s.65.75.86,1.23c.2.49.3,1.03.3,1.63,0,1.02-.28,1.86-.85,2.51-.57.65-1.3,1.07-2.21,1.25l3.33,6.36h-1.75Zm-.8-12.04c-.52-.43-1.19-.64-2.02-.64h-3.74v5.14h3.74c.83,0,1.5-.21,2.02-.63.52-.42.78-1.06.78-1.93s-.26-1.51-.78-1.94Z"/><path class="cls-1" d="m218.17,42.12l-4.27-7.47-2.95,3.55v3.92h-1.5v-14.02h1.5v8.06l6.54-8.06h1.83l-4.41,5.42,5.04,8.61h-1.77Z"/><path class="cls-1" d="m229.86,39.92c-.23.49-.56.91-.99,1.25-.43.34-.94.6-1.54.79-.6.18-1.26.28-1.98.28-1.05,0-1.95-.14-2.7-.43-.75-.29-1.45-.76-2.11-1.42l1.02-1.02c.58.58,1.16.98,1.75,1.2.59.22,1.28.33,2.07.33,1.02,0,1.83-.23,2.42-.68.59-.45.89-1.09.89-1.92,0-.37-.06-.7-.17-1-.11-.3-.28-.55-.5-.75-.22-.2-.46-.34-.7-.42-.24-.09-.62-.17-1.13-.25l-1.63-.26c-1.12-.18-1.98-.54-2.58-1.06-.71-.63-1.06-1.5-1.06-2.62,0-.59.1-1.13.31-1.62.21-.49.51-.91.9-1.25.39-.34.86-.61,1.41-.8.55-.19,1.18-.29,1.87-.29.89,0,1.66.12,2.3.36s1.27.63,1.87,1.17l-.96.97c-.43-.39-.9-.69-1.4-.9-.5-.2-1.12-.31-1.87-.31-.95,0-1.67.24-2.19.71-.51.47-.77,1.1-.77,1.89,0,.71.21,1.25.63,1.62.22.18.5.34.84.47.33.13.69.23,1.05.3l1.54.24c.33.05.62.11.88.17.26.06.48.13.68.21.2.08.38.17.54.27.16.1.32.21.46.34.79.67,1.18,1.6,1.18,2.78,0,.62-.12,1.17-.34,1.66Z"/></svg>