<?xml version="1.0" encoding="UTF-8"?>
<svg id="Sersat" xmlns="http://www.w3.org/2000/svg" width="51.43mm" height="23.46mm" viewBox="0 0 145.8 66.5">
  <defs>
    <style>
      .cls-1 {
        fill: #fff;
      }
    </style>
  </defs>
  <g>
    <path class="cls-1" d="m84.72,39.82c-.27.52-.64.97-1.1,1.32-.46.36-1.01.64-1.64.83-.63.19-1.31.28-2.04.28-1.06,0-2.01-.13-2.84-.4-.83-.27-1.59-.75-2.27-1.44l1.77-1.77c.44.45.96.75,1.53.92s1.19.26,1.85.26c.81,0,1.43-.15,1.85-.44.42-.3.63-.72.63-1.29,0-.51-.14-.9-.43-1.18-.14-.13-.3-.23-.48-.3-.18-.07-.43-.14-.76-.19l-1.69-.24c-1.19-.17-2.1-.56-2.71-1.16-.67-.67-1-1.58-1-2.75,0-.63.11-1.2.33-1.72.22-.52.54-.96.96-1.34.42-.37.93-.66,1.53-.87.6-.21,1.28-.31,2.04-.31.97,0,1.81.12,2.53.37.72.25,1.38.67,1.98,1.26l-1.73,1.71c-.44-.42-.92-.69-1.42-.8-.5-.11-.99-.17-1.44-.17-.73,0-1.28.17-1.63.52-.35.35-.53.76-.53,1.25,0,.18.03.36.1.53.07.17.17.33.31.47.14.13.32.25.54.34.22.1.47.17.76.21l1.65.24c.64.09,1.17.23,1.59.4.42.18.78.4,1.08.68.38.35.65.78.83,1.28.17.5.26,1.06.26,1.69,0,.68-.13,1.28-.4,1.81Z"/>
    <path class="cls-1" d="m88.19,42.14v-13.98h9.21v2.44h-6.48v3.28h5.52v2.44h-5.52v3.4h6.48v2.44h-9.21Z"/>
    <path class="cls-1" d="m107.98,42.14l-2.73-5.58h-1.96v5.58h-2.73v-13.98h5.48c.71,0,1.34.11,1.91.34.56.23,1.04.54,1.43.92.39.39.69.84.89,1.35.2.52.3,1.07.3,1.66,0,.5-.07.94-.21,1.34-.14.39-.32.74-.56,1.05-.24.31-.51.57-.82.79-.31.22-.63.38-.97.5l3.12,6.03h-3.16Zm-.68-11.04c-.36-.34-.84-.51-1.44-.51h-2.57v3.67h2.57c.6,0,1.08-.17,1.44-.51.36-.34.54-.78.54-1.33s-.18-.99-.54-1.33Z"/>
    <path class="cls-1" d="m122.37,39.95c-.23.49-.56.91-.98,1.25-.43.34-.94.6-1.53.79-.6.18-1.25.27-1.97.27-1.05,0-1.94-.14-2.69-.43-.75-.29-1.45-.76-2.1-1.41l1.02-1.02c.58.58,1.16.97,1.75,1.2.59.22,1.28.33,2.06.33,1.02,0,1.83-.23,2.42-.68.59-.45.88-1.09.88-1.91,0-.37-.06-.7-.17-1-.11-.3-.28-.55-.5-.75-.22-.19-.45-.34-.7-.42-.24-.08-.62-.17-1.13-.25l-1.63-.25c-1.11-.18-1.97-.54-2.57-1.06-.71-.63-1.06-1.5-1.06-2.61,0-.59.1-1.13.31-1.62.21-.49.51-.91.89-1.25.39-.34.85-.6,1.4-.8.55-.19,1.17-.28,1.87-.28.89,0,1.66.12,2.3.36.64.24,1.26.63,1.87,1.17l-.96.96c-.43-.39-.9-.69-1.39-.89-.5-.2-1.12-.3-1.87-.3-.94,0-1.67.24-2.18.71-.51.47-.77,1.1-.77,1.89,0,.71.21,1.24.63,1.61.22.18.5.34.83.47.33.13.68.23,1.05.3l1.53.24c.33.05.62.11.87.17.26.06.48.13.68.2.2.08.38.17.54.27.16.1.32.21.46.34.79.67,1.18,1.59,1.18,2.77,0,.62-.11,1.17-.34,1.66Z"/>
    <path class="cls-1" d="m134.48,42.14l-1.12-3.16h-6.11l-1.12,3.16h-1.59l5.15-13.98h1.26l5.13,13.98h-1.59Zm-4.14-11.84l-2.63,7.38h5.22l-2.59-7.38Z"/>
    <path class="cls-1" d="m141.75,29.49v12.65h-1.49v-12.65h-4.05v-1.34h9.59v1.34h-4.05Z"/>
  </g>
  <path class="cls-1" d="m64.64,28.63L37.87,1.86c-2.55-2.55-6.77-2.47-9.43.18L2.05,28.44c-2.66,2.66-2.74,6.87-.18,9.43l26.76,26.76c2.55,2.56,6.78,2.47,9.43-.19l26.4-26.4c2.65-2.65,2.73-6.87.18-9.43Zm-30,2.16c-.1.82-.36,1.62-.79,2.41-.43.79-1.01,1.55-1.74,2.29-1.07,1.07-2.14,1.85-3.21,2.36-1.07.5-2.27.76-3.59.76l.03-2.81c.63,0,1.24-.08,1.81-.25.58-.17,1.12-.43,1.62-.77.51-.34,1-.75,1.48-1.23.9-.9,1.42-1.8,1.56-2.68.14-.89-.13-1.67-.81-2.34-.63-.63-1.29-.92-2-.88-.33,0-.65.07-.96.2-.31.13-.69.38-1.16.73l-1.88,1.42c-1.3.98-2.56,1.49-3.77,1.54-1.31.05-2.53-.5-3.67-1.64-.81-.81-1.33-1.71-1.57-2.7-.24-1-.18-2.01.18-3.06.36-1.05,1.02-2.04,1.97-3,.94-.94,1.88-1.63,2.82-2.06.94-.43,1.98-.67,3.11-.71l-.02,2.7c-.56,0-1.07.09-1.55.26-.48.16-.92.38-1.33.66-.41.28-.83.63-1.24,1.04-.53.53-.9,1.08-1.1,1.65-.2.57-.24,1.12-.11,1.65.13.53.4,1,.82,1.42.55.55,1.16.81,1.82.77.32-.03.68-.12,1.08-.29.4-.16.78-.38,1.14-.65l1.83-1.35c.73-.54,1.39-.94,1.95-1.18.57-.24,1.13-.37,1.68-.4,1.42-.1,2.76.47,4,1.72.62.62,1.06,1.3,1.33,2.06.27.76.36,1.54.26,2.36Zm8.04-6.1l-12.6-12.6-4.05,4.05-1.33-1.33,9.59-9.59,1.33,1.33-4.05,4.05,12.6,12.6-1.49,1.49Z"/>
</svg>