<svg id="Sersat" xmlns="http://www.w3.org/2000/svg" viewBox="0 0 79.79 79.79"><defs><style>.cls-1{fill:#109b84;}.cls-2{fill:#fff;}</style></defs><path class="cls-1" d="M77.56,34.35,45.44,2.23a8,8,0,0,0-11.31.22L2.46,34.13a8,8,0,0,0-.23,11.31L34.35,77.56a8,8,0,0,0,11.31-.23L77.34,45.66A8,8,0,0,0,77.56,34.35Z"/><path class="cls-2" d="M41.56,36.94a8.15,8.15,0,0,1-.94,2.9,12,12,0,0,1-2.09,2.74,14,14,0,0,1-3.86,2.83,9.92,9.92,0,0,1-4.3.91l0-3.38a7.12,7.12,0,0,0,2.17-.3,6.71,6.71,0,0,0,2-.92,10.78,10.78,0,0,0,1.77-1.47A5.88,5.88,0,0,0,38.16,37a3.5,3.5,0,0,0-3.36-3.87,2.87,2.87,0,0,0-1.15.25,7.38,7.38,0,0,0-1.39.87L30,36a8.15,8.15,0,0,1-4.52,1.85,5.88,5.88,0,0,1-4.41-2,6.84,6.84,0,0,1-1.89-3.24A6.47,6.47,0,0,1,19.4,29a9.66,9.66,0,0,1,2.37-3.59,11.91,11.91,0,0,1,3.38-2.47,9.45,9.45,0,0,1,3.74-.84l0,3.24A5.85,5.85,0,0,0,27,25.6a6.81,6.81,0,0,0-1.6.79,10.86,10.86,0,0,0-1.49,1.25,5.46,5.46,0,0,0-1.31,2,3.44,3.44,0,0,0-.13,2,3.54,3.54,0,0,0,1,1.71,2.78,2.78,0,0,0,2.19.92,4.27,4.27,0,0,0,1.29-.34,5.63,5.63,0,0,0,1.36-.78l2.2-1.62a12.16,12.16,0,0,1,2.34-1.42,5.88,5.88,0,0,1,2-.48,6.11,6.11,0,0,1,4.79,2.06,6.65,6.65,0,0,1,1.6,2.47A6.15,6.15,0,0,1,41.56,36.94Z"/><polygon class="cls-2" points="51.21 29.63 36.09 14.51 31.23 19.36 29.63 17.77 41.14 6.26 42.73 7.86 37.88 12.71 53 27.84 51.21 29.63"/></svg>