<svg id="Velocom" xmlns="http://www.w3.org/2000/svg" viewBox="0 0 162.37 66.19"><defs><style>.cls-1{fill:#fff;}</style></defs><path class="cls-1" d="M80.65,42.13h-2L74,28.21h2.81l2.8,9.07,2.79-9.07h2.84Z"/><path class="cls-1" d="M87.44,42.13V28.21h9.17v2.42H90.16V33.9h5.49v2.42H90.16v3.39h6.45v2.42Z"/><path class="cls-1" d="M99.76,42.13V28.21h2.72v11.5h6.31v2.42Z"/><path class="cls-1" d="M120.78,36.85a9.62,9.62,0,0,1-.15,1.47,5,5,0,0,1-.41,1.28,4,4,0,0,1-.81,1.12,5,5,0,0,1-3.76,1.53,5.4,5.4,0,0,1-2.11-.39,5.24,5.24,0,0,1-1.66-1.14,4,4,0,0,1-.81-1.12,5,5,0,0,1-.4-1.28,9.65,9.65,0,0,1-.14-1.47c0-.52,0-1.08,0-1.68s0-1.16,0-1.68a9.65,9.65,0,0,1,.14-1.47,5,5,0,0,1,.4-1.28,4,4,0,0,1,.81-1.12,5.24,5.24,0,0,1,1.66-1.14,5.4,5.4,0,0,1,2.11-.39,5,5,0,0,1,3.76,1.53,4,4,0,0,1,.81,1.12,5,5,0,0,1,.41,1.28,9.62,9.62,0,0,1,.15,1.47c0,.52,0,1.08,0,1.68S120.79,36.33,120.78,36.85Zm-2.73-3.33a8.83,8.83,0,0,0-.11-1.09,2.46,2.46,0,0,0-.21-.69,2,2,0,0,0-.33-.48,2.25,2.25,0,0,0-1.75-.74,2.37,2.37,0,0,0-1,.2,2.18,2.18,0,0,0-.74.54,1.78,1.78,0,0,0-.33.48,2.88,2.88,0,0,0-.2.69,7.23,7.23,0,0,0-.11,1.09q0,.65,0,1.65c0,.66,0,1.22,0,1.65a7.23,7.23,0,0,0,.11,1.09,2.88,2.88,0,0,0,.2.69,1.78,1.78,0,0,0,.33.48,2.18,2.18,0,0,0,.74.54,2.53,2.53,0,0,0,1,.2,2.46,2.46,0,0,0,1-.2,2.29,2.29,0,0,0,.74-.54,2,2,0,0,0,.33-.48,2.46,2.46,0,0,0,.21-.69,8.83,8.83,0,0,0,.11-1.09c0-.43,0-1,0-1.65S118.07,34,118.05,33.52Z"/><path class="cls-1" d="M133,39.85a4.47,4.47,0,0,1-2.5,2.11,5.12,5.12,0,0,1-1.74.29,5.23,5.23,0,0,1-1.94-.37,4.85,4.85,0,0,1-1.61-1.08,3.76,3.76,0,0,1-.76-1,5,5,0,0,1-.39-1.18,9.21,9.21,0,0,1-.14-1.49c0-.55,0-1.2,0-1.94s0-1.39,0-2a9.19,9.19,0,0,1,.14-1.48,5,5,0,0,1,.39-1.18,3.76,3.76,0,0,1,.76-1,4.85,4.85,0,0,1,1.61-1.08,5.23,5.23,0,0,1,1.94-.37,5.12,5.12,0,0,1,1.74.29,4.47,4.47,0,0,1,2.5,2.11,5.56,5.56,0,0,1,.59,1.75H132.1A3.7,3.7,0,0,0,131,30.18a3.21,3.21,0,0,0-2.18-.76,3.57,3.57,0,0,0-1.32.26,3.1,3.1,0,0,0-1.08.72,2.92,2.92,0,0,0-.53.71,3.21,3.21,0,0,0-.29.92,8.74,8.74,0,0,0-.13,1.29c0,.5,0,1.12,0,1.85s0,1.35,0,1.85a8.74,8.74,0,0,0,.13,1.29,3.21,3.21,0,0,0,.29.92,2.92,2.92,0,0,0,.53.71,3,3,0,0,0,1.08.72,3.57,3.57,0,0,0,1.32.26,3.24,3.24,0,0,0,2.19-.76,3.62,3.62,0,0,0,1.16-2.06h1.48A5.56,5.56,0,0,1,133,39.85Z"/><path class="cls-1" d="M146.59,37.11a8.15,8.15,0,0,1-.15,1.49,4.2,4.2,0,0,1-.39,1.18,3.94,3.94,0,0,1-.75,1,5,5,0,0,1-1.61,1.08,5.21,5.21,0,0,1-1.95.37,4.81,4.81,0,0,1-3.56-1.45,3.53,3.53,0,0,1-.75-1A4.2,4.2,0,0,1,137,38.6a8.15,8.15,0,0,1-.15-1.49c0-.55,0-1.2,0-1.94s0-1.39,0-2a8.13,8.13,0,0,1,.15-1.48,4.2,4.2,0,0,1,.39-1.18,3.53,3.53,0,0,1,.75-1,5.1,5.1,0,0,1,7.12,0,3.94,3.94,0,0,1,.75,1,4.2,4.2,0,0,1,.39,1.18,8.13,8.13,0,0,1,.15,1.48c0,.56,0,1.21,0,2S146.6,36.56,146.59,37.11Zm-1.5-3.79A10.17,10.17,0,0,0,145,32a3.6,3.6,0,0,0-.3-.91,2.68,2.68,0,0,0-.53-.71,3.13,3.13,0,0,0-1.08-.73,3.35,3.35,0,0,0-1.32-.27,3.32,3.32,0,0,0-1.32.27,3.17,3.17,0,0,0-1.09.73,2.87,2.87,0,0,0-.52.71,3.6,3.6,0,0,0-.3.91,8.59,8.59,0,0,0-.12,1.28c0,.5,0,1.12,0,1.85s0,1.35,0,1.85a8.59,8.59,0,0,0,.12,1.28,3.6,3.6,0,0,0,.3.91,2.87,2.87,0,0,0,.52.71,3.34,3.34,0,0,0,1.09.74,3.49,3.49,0,0,0,1.32.26,3.53,3.53,0,0,0,1.32-.26,3.3,3.3,0,0,0,1.08-.74,2.68,2.68,0,0,0,.53-.71,3.6,3.6,0,0,0,.3-.91,10.17,10.17,0,0,0,.12-1.28c0-.5,0-1.12,0-1.85S145.11,33.82,145.09,33.32Z"/><path class="cls-1" d="M161,42.13V31.55l-3.82,8.39H156l-3.87-8.39V42.13H150.6V28.21h1.48l4.54,9.87L161,28.21h1.48V42.13Z"/><path class="cls-1" d="M64.34,28.49,37.69,1.85A6.64,6.64,0,0,0,28.31,2L2,28.31a6.64,6.64,0,0,0-.19,9.39L28.49,64.34a6.65,6.65,0,0,0,9.39-.19L64.16,37.88A6.66,6.66,0,0,0,64.34,28.49ZM44.16,35.72,19,23l3-3,18.17,9.42L30.71,11.25l3-3.06L46.42,33.46Z"/></svg>