<?xml version="1.0" encoding="UTF-8"?><svg id="Grupo_Datco" xmlns="http://www.w3.org/2000/svg" viewBox="0 0 744.32 85.04"><defs><style>.cls-1{fill:#fff;}</style></defs><polygon class="cls-1" points="186.02 83.87 174.95 83.87 144.92 44.42 144.84 83.87 133.1 83.87 133.1 24.82 144.08 24.82 174.11 64.27 174.11 24.82 185.93 24.82 185.93 83.87 186.02 83.87"/><path class="cls-1" d="m204.22,59.58h18.12c-1.01-5.19-4.19-8.21-8.89-8.21-5.2,0-8.22,3.1-9.23,8.21Zm29.19,3.77c0,1.26-.08,2.76-.25,3.69h-29.02c1.17,5.86,5.28,8.46,10.48,8.46,3.52,0,7.38-1.42,10.32-3.94l6.46,7.12c-4.61,4.27-10.57,6.2-17.44,6.2-12.58,0-21.22-8.54-21.22-21.36s8.47-21.61,20.72-21.61c11.91,0,19.96,8.71,19.96,21.44Z"/><polygon class="cls-1" points="318.78 71.64 327.58 42.99 339.07 42.99 325.23 83.87 312.65 83.87 303.6 56.23 294.62 83.87 282.13 83.87 268.29 42.99 280.03 42.99 288.75 71.55 297.89 42.99 309.47 42.99 318.78 71.64"/><path class="cls-1" d="m350.73,63.43c0,6.62,4.61,11.22,10.82,11.22s10.9-4.61,10.9-11.22-4.7-11.22-10.9-11.22c-6.21-.08-10.82,4.61-10.82,11.22Zm32.96,0c0,12.31-9.39,21.53-22.14,21.53s-22.06-9.21-22.06-21.53,9.39-21.53,22.06-21.53,22.14,9.21,22.14,21.53Z"/><path class="cls-1" d="m417.57,42.74l-1.68,10.89c-1.85-.84-4.44-1.34-6.71-1.34-5.12,0-8.64,3.1-8.64,9.21v22.28h-10.99v-40.79h10.65v4.44c2.6-3.85,6.54-5.53,11.49-5.53,2.43,0,4.28.34,5.87.84Z"/><polygon class="cls-1" points="432.92 57.57 436.78 57.57 448.27 42.99 461.77 42.99 445.67 62.26 461.94 83.87 448.35 83.87 436.61 67.37 432.92 67.37 432.92 83.87 421.93 83.87 421.93 35.2 432.92 35.2 432.92 57.57"/><path class="cls-1" d="m496.49,49.27c-1.17,2.68-4.19,4.1-7.04,3.18-2.6-.84-5.54-1.42-8.22-1.42-4.19,0-6.29,1.51-6.29,3.69,0,2.35,2.94,2.93,6.71,3.52l3.61.59c8.89,1.34,13.84,5.28,13.84,12.23,0,8.46-6.96,13.9-18.79,13.9-5.54,0-12.92-1.09-18.2-4.77l4.36-8.38c3.52,2.35,7.8,4.02,13.92,4.02,5.12,0,7.55-1.42,7.55-3.85,0-2.01-2.1-3.1-6.79-3.77l-3.35-.5c-9.48-1.34-14.17-5.44-14.17-12.4,0-8.38,6.54-13.4,17.28-13.4,6.54,0,11.66,1.26,17.11,3.85l-1.51,3.52Z"/><path class="cls-1" d="m265.69,71.97c-2.26,1.34-5.03,2.68-7.72,2.68-3.44,0-6.12-1.84-6.12-6.95v-14.91h14.84l-3.44-9.8h-11.41v-12.15h-10.99v12.15h-9.9c2.6,2.51,4.44,5.86,5.45,9.8h4.44v15.83c0,10.55,5.2,16.33,15.35,16.33,5.79,0,9.98-1.84,13.59-4.27l-4.11-8.71Z"/><path class="cls-1" d="m204.22,59.58h18.12c-1.01-5.19-4.19-8.21-8.89-8.21-5.2,0-8.22,3.1-9.23,8.21Zm29.19,3.77c0,1.26-.08,2.76-.25,3.69h-29.02c1.17,5.86,5.28,8.46,10.48,8.46,3.52,0,7.38-1.42,10.32-3.94l6.46,7.12c-4.61,4.27-10.57,6.2-17.44,6.2-12.58,0-21.22-8.54-21.22-21.36s8.47-21.61,20.72-21.61c11.91,0,19.96,8.71,19.96,21.44Z"/><path class="cls-1" d="m38.91,12.42l1.51-1.42c.25-.25.25-.59,0-.84-4.95-4.36-12.41-4.36-17.28,0-.25.17-.25.59-.08.84l1.51,1.42c.25.25.59.25.75,0,1.85-1.59,4.11-2.35,6.37-2.35s4.61.75,6.37,2.35c.34.25.67.25.84,0Z"/><path class="cls-1" d="m29.1,16.44c0,1.42,1.17,2.68,2.68,2.68,1.43,0,2.68-1.17,2.68-2.68,0-1.43-1.17-2.68-2.68-2.68s-2.68,1.17-2.68,2.68Z"/><path class="cls-1" d="m18.2,6.05h0l1.51,1.51c.25.25.59.25.84,0,3.1-2.85,7.21-4.36,11.24-4.36s8.05,1.42,11.24,4.36c.25.25.59.17.84,0l1.43-1.51c.08-.08.17-.25.17-.42s-.08-.34-.17-.42c-7.55-6.95-19.37-6.95-27.01,0-.25.25-.25.59-.08.84Z"/><path class="cls-1" d="m113.56,48.52l-.08-.84h-21.55c-4.78,0-8.64,3.85-8.64,8.63v3.43h15.6c-1.85,7.87-7.38,11.89-16.52,11.89-4.36,0-8.22-1.34-11.24-3.6-2.6-1.76-4.61-4.27-5.87-7.45-1.43-3.35-2.18-6.11-2.18-14.41-.08-9.3-.59-16.67-2.52-22.78-1.34-3.69-3.1-7.04-5.28-9.97-1.59-2.09-3.35-3.94-5.2-5.44-.34-.25-.84-.25-1.09.08l-9.56,10.39c-.25.34-.25.84.08,1.01,1.26.84,2.43,1.93,3.44,3.27,1.68,1.93,2.94,4.52,3.86,7.87,1.76,5.86,1.93,16.33,2.26,21.86.42,7.04,2.77,14.49,7.13,20.52.92,1.17,1.93,2.26,3.1,3.27,6.12,5.7,14.34,8.79,23.23,8.79s16.69-3.27,22.39-9.21c5.7-5.95,8.81-14.41,8.81-23.62.08-1.42,0-2.6-.17-3.69Z"/><path class="cls-1" d="m82.52,32.52c3.61,0,6.96.84,9.73,2.43,3.27,1.84,7.3,1.34,10.15-1.01l5.2-4.52-.59-.67c-5.79-6.28-14.43-9.8-24.15-9.8-6.79,0-13,1.68-18.12,4.69,1.34,4.86,1.93,10.39,2.18,16.92,3.27-4.94,8.81-8.04,15.6-8.04Z"/><path class="cls-1" d="m31.79,69.54c-10.57,0-16.1-9.13-16.1-26.05,0-12.23,2.85-20.35,8.47-24.04.34-.25.42-.75.08-1.01l-9.48-10.3c-.25-.34-.75-.34-1.09-.08-1.93,1.51-3.69,3.35-5.2,5.44C2.85,20.96,0,31.01,0,43.49c0,12.48,2.85,22.53,8.39,30.15,5.7,7.54,13.5,11.22,23.4,11.22,8.89,0,16.1-3.02,21.55-9.05-3.77-5.03-6.37-10.97-7.55-17-2.6,6.95-7.38,10.72-14.01,10.72Z"/><path class="cls-1" d="m724.47,85.21h-175.52c-10.95,0-19.85-7.03-19.85-15.66V15.81c0-8.62,8.91-15.64,19.85-15.64h175.52c10.95.01,19.85,7.03,19.85,15.66v53.74c0,8.62-8.91,15.64-19.85,15.64Zm0-2.31c9.33,0,16.92-5.98,16.92-13.33V15.83c0-7.35-7.59-13.33-16.92-13.33h-175.52c-9.33-.01-16.92,5.97-16.92,13.32v53.74c0,7.35,7.59,13.33,16.92,13.33h175.52Z"/><path class="cls-1" d="m642.43,58.51c0,.89-.13,1.71-.38,2.44-.26.73-.62,1.35-1.08,1.87-.46.51-1.01.91-1.64,1.2-.63.29-1.33.43-2.09.43s-1.46-.14-2.09-.43c-.63-.29-1.18-.68-1.64-1.2-.46-.51-.82-1.13-1.08-1.87-.26-.73-.38-1.54-.38-2.44s.13-1.71.38-2.44c.26-.73.61-1.36,1.08-1.88.46-.52,1.01-.92,1.64-1.21.63-.29,1.33-.43,2.09-.43s1.46.14,2.09.43c.63.29,1.18.69,1.64,1.21.46.52.82,1.15,1.08,1.88.26.73.38,1.55.38,2.44Zm-1.52,0c0-1.42-.33-2.55-.99-3.39-.66-.84-1.55-1.26-2.68-1.26s-2.02.42-2.68,1.26-.99,1.97-.99,3.39.33,2.55.99,3.38,1.55,1.25,2.68,1.25,2.02-.42,2.68-1.25c.66-.83.99-1.96.99-3.38Z"/><path class="cls-1" d="m646.95,68.24h-1.43v-15.03c.42-.15.97-.29,1.63-.42s1.49-.2,2.5-.2c.83,0,1.59.14,2.27.41.68.27,1.27.66,1.76,1.18s.87,1.13,1.14,1.87c.27.73.41,1.56.41,2.48,0,.86-.11,1.66-.34,2.38-.23.72-.56,1.35-1,1.87-.44.52-.98.93-1.61,1.22-.64.29-1.37.44-2.19.44-.75,0-1.39-.11-1.94-.32s-.95-.41-1.2-.6v4.72Zm0-6.11c.13.1.3.21.49.33.2.12.43.23.69.33.26.1.55.19.86.25s.63.1.97.1c.7,0,1.29-.12,1.77-.36.48-.24.86-.57,1.15-.99.29-.42.5-.91.64-1.47.13-.56.2-1.16.2-1.79,0-1.49-.37-2.64-1.12-3.44-.75-.8-1.74-1.2-2.97-1.2-.7,0-1.27.03-1.7.1-.43.07-.76.14-.98.21v7.93Z"/><path class="cls-1" d="m657.65,58.48c0-1,.14-1.86.43-2.6.29-.74.66-1.36,1.12-1.86.46-.5.99-.87,1.58-1.11.59-.24,1.2-.36,1.83-.36,1.39,0,2.5.45,3.33,1.36.83.91,1.24,2.31,1.24,4.2,0,.12,0,.23-.01.35s-.02.23-.03.33h-7.97c.04,1.39.39,2.46,1.03,3.21.64.75,1.67,1.12,3.08,1.12.78,0,1.39-.07,1.85-.22.45-.15.78-.27.99-.37l.26,1.23c-.2.12-.59.26-1.15.42-.56.16-1.23.24-1.99.24-1,0-1.85-.15-2.55-.44-.7-.29-1.28-.7-1.74-1.23-.45-.53-.78-1.15-.99-1.88-.21-.72-.31-1.52-.31-2.38Zm8.06-.9c-.03-1.19-.31-2.11-.83-2.77-.53-.66-1.27-.99-2.24-.99-.51,0-.97.1-1.37.31s-.75.48-1.05.82-.53.74-.7,1.2c-.17.45-.27.93-.3,1.43h6.5Z"/><path class="cls-1" d="m674.24,52.6c.47,0,.91.04,1.33.11.42.07.71.15.87.22l-.29,1.23c-.12-.06-.35-.12-.71-.19-.36-.07-.83-.1-1.42-.1-.62,0-1.11.04-1.48.13s-.62.16-.74.22v9.95h-1.43v-10.83c.37-.16.87-.33,1.52-.49s1.43-.25,2.35-.25Z"/><path class="cls-1" d="m682.04,52.55c.75,0,1.38.11,1.9.32.52.21.94.51,1.26.88.32.37.56.82.7,1.33s.22,1.07.22,1.67v7.16c-.15.04-.36.09-.64.14-.28.05-.6.11-.97.16-.37.06-.77.11-1.22.14-.45.04-.9.06-1.37.06-.6,0-1.15-.07-1.66-.2-.5-.13-.94-.34-1.32-.63-.37-.29-.67-.65-.88-1.1-.21-.45-.32-.99-.32-1.64s.12-1.14.35-1.58c.23-.44.56-.8.99-1.09.42-.29.93-.49,1.52-.63.59-.13,1.22-.2,1.91-.2.2,0,.42.01.65.03.23.02.45.05.66.09.21.04.4.07.55.11s.26.07.32.1v-.7c0-.4-.03-.78-.09-1.15-.06-.37-.19-.71-.38-1.01-.2-.3-.48-.54-.83-.72-.36-.18-.83-.27-1.42-.27-.83,0-1.46.06-1.87.18-.41.12-.71.21-.9.29l-.2-1.25c.25-.12.63-.23,1.15-.33.52-.1,1.15-.15,1.88-.15Zm.13,10.59c.56,0,1.04-.02,1.46-.05.42-.04.77-.08,1.07-.14v-4c-.16-.07-.42-.15-.77-.23-.35-.08-.83-.12-1.45-.12-.35,0-.72.03-1.1.08-.38.05-.73.16-1.05.33-.32.17-.59.4-.79.69-.21.29-.31.68-.31,1.16,0,.42.07.78.21,1.08s.34.53.59.7c.26.18.56.3.92.38.36.08.77.12,1.22.12Z"/><path class="cls-1" d="m691.11,52.82h4.53v1.21h-4.53v6.04c0,.64.05,1.17.16,1.57.11.4.27.71.47.93.2.22.45.37.75.44.29.07.62.11.97.11.6,0,1.08-.07,1.45-.21.37-.14.65-.27.86-.38l.35,1.19c-.2.13-.56.28-1.08.45-.51.17-1.07.25-1.67.25-.7,0-1.29-.09-1.77-.27-.48-.18-.86-.46-1.14-.83-.29-.37-.49-.84-.6-1.39-.12-.56-.18-1.22-.18-1.98v-10.46l1.43-.26v3.6Z"/><path class="cls-1" d="m707.96,58.51c0,.89-.13,1.71-.38,2.44-.26.73-.61,1.35-1.08,1.87-.46.51-1.01.91-1.64,1.2-.63.29-1.33.43-2.09.43s-1.46-.14-2.09-.43-1.18-.68-1.64-1.2c-.46-.51-.82-1.13-1.08-1.87-.26-.73-.38-1.54-.38-2.44s.13-1.71.38-2.44c.26-.73.62-1.36,1.08-1.88.46-.52,1.01-.92,1.64-1.21.63-.29,1.33-.43,2.09-.43s1.46.14,2.09.43c.63.29,1.18.69,1.64,1.21.46.52.82,1.15,1.08,1.88s.38,1.55.38,2.44Zm-1.52,0c0-1.42-.33-2.55-.99-3.39s-1.55-1.26-2.68-1.26-2.02.42-2.68,1.26c-.66.84-.99,1.97-.99,3.39s.33,2.55.99,3.38c.66.83,1.55,1.25,2.68,1.25s2.02-.42,2.68-1.25c.66-.83.99-1.96.99-3.38Z"/><path class="cls-1" d="m714.92,52.6c.47,0,.91.04,1.33.11s.71.15.87.22l-.29,1.23c-.12-.06-.35-.12-.71-.19-.36-.07-.83-.1-1.42-.1-.61,0-1.11.04-1.48.13s-.62.16-.74.22v9.95h-1.43v-10.83c.37-.16.87-.33,1.52-.49.64-.17,1.43-.25,2.35-.25Z"/><path class="cls-1" d="m606.4,41.77c.6,0,1.03-.06,1.28-.18.25-.12.38-.35.38-.69,0-.27-.16-.5-.49-.7-.32-.2-.82-.42-1.48-.67-.52-.19-.98-.39-1.4-.6-.42-.21-.78-.45-1.07-.74-.29-.29-.52-.63-.69-1.03-.16-.4-.24-.88-.24-1.44,0-1.09.41-1.95,1.22-2.59.81-.63,1.92-.95,3.34-.95.71,0,1.38.06,2.03.19.65.13,1.16.26,1.55.41l-.57,2.56c-.38-.13-.8-.25-1.25-.35-.45-.1-.95-.15-1.51-.15-1.03,0-1.55.29-1.55.86,0,.13.02.25.07.35.04.1.13.2.27.3.13.1.31.2.54.31.23.11.52.23.87.37.72.27,1.32.53,1.79.79.47.26.84.54,1.12.84.27.3.46.64.57,1,.11.37.17.79.17,1.28,0,1.15-.43,2.01-1.29,2.6-.86.59-2.08.88-3.66.88-1.03,0-1.89-.09-2.58-.27-.69-.18-1.16-.32-1.43-.44l.55-2.67c.56.22,1.13.39,1.72.52.59.13,1.17.19,1.75.19Z"/><path class="cls-1" d="m616.95,29.15c0,.6-.2,1.08-.59,1.43-.39.35-.85.52-1.38.52s-.99-.17-1.38-.52c-.39-.35-.59-.82-.59-1.43s.2-1.08.59-1.43c.39-.35.85-.52,1.38-.52s.99.17,1.38.52c.39.35.59.82.59,1.43Zm-.31,14.99h-3.29v-11.63h3.29v11.63Z"/><path class="cls-1" d="m629.32,42.67c0,1.9-.48,3.31-1.45,4.23-.97.92-2.46,1.38-4.48,1.38-.71,0-1.41-.06-2.12-.19-.71-.13-1.36-.29-1.97-.5l.57-2.76c.52.21,1.06.37,1.62.49.57.12,1.21.18,1.93.18.94,0,1.61-.21,2-.62.39-.41.59-.94.59-1.59v-.42c-.35.16-.72.28-1.09.36-.38.08-.78.12-1.23.12-1.61,0-2.84-.48-3.69-1.43-.85-.95-1.28-2.28-1.28-3.99,0-.85.13-1.63.4-2.33.27-.7.65-1.3,1.16-1.8.51-.5,1.13-.89,1.87-1.16.74-.27,1.57-.41,2.5-.41.4,0,.81.02,1.23.06.42.04.84.08,1.25.14.41.06.81.13,1.18.21.38.08.71.17,1.01.25v9.77Zm-7.23-4.73c0,1.84.74,2.76,2.23,2.76.34,0,.66-.04.95-.13.29-.09.55-.19.75-.31v-5.26c-.16-.03-.35-.06-.57-.08-.22-.02-.48-.03-.77-.03-.87,0-1.52.29-1.95.86-.43.57-.64,1.3-.64,2.19Z"/><path class="cls-1" d="m637.02,26.98c.62,0,1.19.06,1.7.19.52.13.91.25,1.19.36l-.64,2.63c-.29-.13-.62-.23-.96-.3-.35-.07-.67-.1-.96-.1-.4,0-.73.06-1.01.17-.27.11-.49.26-.64.45-.15.19-.27.42-.33.69-.07.27-.1.55-.1.86v.57h4.07v2.74h-4.07v8.89h-3.29v-12.25c0-1.5.42-2.7,1.27-3.58.85-.88,2.1-1.33,3.77-1.33Z"/><path class="cls-1" d="m651.56,38.3c0,.91-.13,1.75-.4,2.51-.27.76-.65,1.41-1.15,1.95-.5.54-1.1.95-1.8,1.25-.7.29-1.48.44-2.35.44s-1.63-.15-2.33-.44c-.7-.29-1.3-.71-1.8-1.25-.5-.54-.89-1.19-1.17-1.95-.28-.76-.42-1.6-.42-2.51s.14-1.75.43-2.5c.29-.75.69-1.39,1.19-1.92.51-.53,1.11-.94,1.81-1.24.7-.29,1.46-.44,2.29-.44s1.61.15,2.31.44c.7.29,1.3.71,1.8,1.24.5.53.89,1.17,1.17,1.92.28.75.42,1.58.42,2.5Zm-3.36,0c0-1.02-.2-1.82-.61-2.4-.41-.58-.98-.87-1.74-.87s-1.33.29-1.75.87c-.41.58-.62,1.38-.62,2.4s.21,1.82.62,2.42c.41.6.99.9,1.75.9s1.33-.3,1.74-.9c.41-.6.61-1.4.61-2.42Z"/><path class="cls-1" d="m659.62,38.28c.72-1.03,1.42-2.01,2.08-2.96.67-.95,1.33-1.88,1.98-2.81h-3.56l-2.29,3.26-2.29-3.26h-3.56c.65.93,1.31,1.86,1.98,2.81.67.95,1.36,1.93,2.08,2.96-.72,1.03-1.42,2.01-2.08,2.96-.67.95-1.33,1.88-1.98,2.81h3.56l2.29-3.26,2.29,3.26h3.56c-.65-.93-1.31-1.86-1.98-2.81-.67-.95-1.36-1.93-2.08-2.96Z"/><path class="cls-1" d="m558.28,22.96c2.68,0,8.08,2.49,14.45,8.03.86.76,1.46,1.37,1.46,1.37-1.11,1.11-7.31,8.5-7.31,8.5,0,0-.24-.18-1.49-1.35-7.48-8.4-9.46-15.04-8.27-16.23.27-.27.84-.31,1.16-.31m19.39,12.78c8.5,9.01,10.78,16.24,9.47,17.55-.27.27-.84.31-1.16.31-1.93,0-4.93-1.23-8.31-3.4v-14.46m-19.39-14.78c-1.09,0-1.97.29-2.57.89h0c-2.91,2.91,1.51,12.08,9.92,20.85,2.02-3.15,4.78-6.57,8.11-9.9.64-.64,1.29-1.26,1.94-1.86v20.34c4.08,2.75,7.77,4.32,10.31,4.32,1.09,0,1.97-.29,2.57-.89,3.02-3.02-1.88-12.83-10.95-21.9-.64-.64-1.29-1.26-1.94-1.86-6.66-6.17-13.43-9.98-17.39-9.98h0Z"/><path class="cls-1" d="m595.64,21.85c-2.81-2.81-11.47,1.22-19.96,9.09.65.6,1.29,1.22,1.94,1.86,3.32,3.32,6.09,6.75,8.11,9.9,8.41-8.77,12.83-17.94,9.92-20.85Z"/><path class="cls-1" d="m562.79,54.7c2.02,2.02,7.06.5,12.89-3.42v-20.34c-.65.6-1.29,1.22-1.94,1.86-9.07,9.07-13.97,18.88-10.95,21.9Z"/><path class="cls-1" d="m610.87,58.63c0,2.25-.35,3.91-1.06,4.96-.71,1.05-1.8,1.58-3.28,1.58s-2.61-.53-3.3-1.6c-.69-1.07-1.04-2.71-1.04-4.92s.35-3.88,1.05-4.94c.7-1.06,1.8-1.6,3.29-1.6s2.61.54,3.3,1.62c.69,1.08,1.04,2.72,1.04,4.9Zm-2.22,3.83c.2-.46.33-.99.4-1.61.07-.61.11-1.36.11-2.22s-.04-1.6-.11-2.23c-.07-.63-.21-1.16-.41-1.6-.2-.43-.47-.76-.8-.98-.34-.22-.78-.33-1.31-.33s-.97.11-1.31.33c-.35.22-.62.55-.82.99-.19.42-.32.96-.39,1.63-.07.67-.11,1.4-.11,2.2,0,.88.03,1.61.09,2.2.06.59.19,1.12.4,1.58.19.44.45.77.79,1,.34.23.79.35,1.35.35.53,0,.97-.11,1.32-.33s.62-.55.81-.99Z"/><path class="cls-1" d="m624.17,63.98c-.69.31-1.43.59-2.25.82-.81.23-1.6.35-2.36.35-.98,0-1.87-.13-2.69-.4s-1.51-.67-2.08-1.21c-.58-.55-1.03-1.23-1.34-2.04-.31-.82-.47-1.77-.47-2.87,0-2.01.59-3.59,1.76-4.75,1.17-1.16,2.78-1.74,4.83-1.74.71,0,1.44.09,2.19.26.74.17,1.55.46,2.41.87v1.98h-.15c-.17-.13-.43-.31-.76-.53s-.66-.4-.98-.55c-.39-.17-.83-.32-1.32-.43-.49-.12-1.05-.17-1.67-.17-1.4,0-2.52.45-3.33,1.35-.82.9-1.23,2.12-1.23,3.66,0,1.62.43,2.89,1.28,3.79.85.9,2.02,1.35,3.49,1.35.54,0,1.08-.05,1.61-.16.54-.11,1.01-.24,1.41-.41v-3.08h-3.36v-1.47h5.02v5.39Z"/></svg>