<svg id="Grupo_Datco" data-name="Grupo Datco" xmlns="http://www.w3.org/2000/svg" viewBox="0 0 499.09 85.04"><defs><style>.cls-1{fill:#fff;}</style></defs><polygon class="cls-1" points="186.02 83.87 174.95 83.87 144.92 44.42 144.84 83.87 133.1 83.87 133.1 24.82 144.08 24.82 174.11 64.27 174.11 24.82 185.93 24.82 185.93 83.87 186.02 83.87"/><path class="cls-1" d="M204.22,59.58h18.11c-1-5.2-4.19-8.21-8.89-8.21C208.24,51.37,205.22,54.47,204.22,59.58Zm29.18,3.77a23.56,23.56,0,0,1-.25,3.68h-29c1.18,5.86,5.28,8.46,10.48,8.46a16.33,16.33,0,0,0,10.32-3.94l6.46,7.12c-4.61,4.28-10.57,6.2-17.45,6.2-12.58,0-21.21-8.54-21.21-21.36S201.2,41.9,213.44,41.9C225.35,41.9,233.4,50.61,233.4,63.35Z"/><polygon class="cls-1" points="318.78 71.64 327.58 42.99 339.07 42.99 325.23 83.87 312.65 83.87 303.6 56.23 294.62 83.87 282.13 83.87 268.29 42.99 280.03 42.99 288.75 71.55 297.89 42.99 309.47 42.99 318.78 71.64"/><path class="cls-1" d="M350.73,63.43c0,6.62,4.61,11.22,10.82,11.22s10.9-4.6,10.9-11.22-4.7-11.22-10.9-11.22S350.73,56.81,350.73,63.43Zm33,0c0,12.31-9.39,21.53-22.14,21.53s-22.06-9.22-22.06-21.53,9.39-21.53,22.06-21.53S383.69,51.12,383.69,63.43Z"/><path class="cls-1" d="M417.57,42.74l-1.68,10.89a17.35,17.35,0,0,0-6.71-1.34c-5.11,0-8.63,3.1-8.63,9.21V83.78h-11V43h10.65v4.44c2.6-3.85,6.54-5.53,11.49-5.53A19,19,0,0,1,417.57,42.74Z"/><polygon class="cls-1" points="432.92 57.57 436.78 57.57 448.27 42.99 461.77 42.99 445.67 62.26 461.94 83.87 448.35 83.87 436.61 67.37 432.92 67.37 432.92 83.87 421.93 83.87 421.93 35.2 432.92 35.2 432.92 57.57"/><path class="cls-1" d="M496.49,49.27a5.76,5.76,0,0,1-7,3.19A27.74,27.74,0,0,0,481.23,51c-4.2,0-6.29,1.51-6.29,3.69,0,2.34,2.93,2.93,6.71,3.52l3.6.58c8.89,1.34,13.84,5.28,13.84,12.23,0,8.46-7,13.91-18.79,13.91-5.53,0-12.91-1.09-18.2-4.78l4.37-8.37a23.92,23.92,0,0,0,13.92,4c5.11,0,7.55-1.43,7.55-3.86,0-2-2.1-3.1-6.8-3.77l-3.35-.5c-9.48-1.34-14.18-5.44-14.18-12.4,0-8.37,6.55-13.4,17.28-13.4A37.44,37.44,0,0,1,498,45.76Z"/><path class="cls-1" d="M265.69,72c-2.27,1.34-5,2.68-7.72,2.68-3.44,0-6.12-1.84-6.12-7V52.79H266.7L263.26,43H251.85V30.85h-11V43H231a20.52,20.52,0,0,1,5.45,9.8h4.44V68.62c0,10.56,5.2,16.34,15.35,16.34a23.21,23.21,0,0,0,13.59-4.28Z"/><path class="cls-1" d="M204.22,59.58h18.11c-1-5.2-4.19-8.21-8.89-8.21C208.24,51.37,205.22,54.47,204.22,59.58Zm29.18,3.77a23.56,23.56,0,0,1-.25,3.68h-29c1.18,5.86,5.28,8.46,10.48,8.46a16.33,16.33,0,0,0,10.32-3.94l6.46,7.12c-4.61,4.28-10.57,6.2-17.45,6.2-12.58,0-21.21-8.54-21.21-21.36S201.2,41.9,213.44,41.9C225.35,41.9,233.4,50.61,233.4,63.35Z"/><path class="cls-1" d="M38.91,12.42,40.42,11a.54.54,0,0,0,0-.83,13,13,0,0,0-17.27,0,.63.63,0,0,0-.09.83l1.51,1.43a.48.48,0,0,0,.76,0,9.69,9.69,0,0,1,6.37-2.35,9.57,9.57,0,0,1,6.38,2.35C38.41,12.67,38.75,12.67,38.91,12.42Z"/><path class="cls-1" d="M29.1,16.44a2.69,2.69,0,1,0,2.69-2.68A2.65,2.65,0,0,0,29.1,16.44Z"/><path class="cls-1" d="M18.2,6.05h0l1.51,1.51a.56.56,0,0,0,.84,0A16.74,16.74,0,0,1,31.79,3.2,16.5,16.5,0,0,1,43,7.56a.64.64,0,0,0,.84,0l1.43-1.51a.65.65,0,0,0,.17-.42.7.7,0,0,0-.17-.42,20.1,20.1,0,0,0-27,0A.65.65,0,0,0,18.2,6.05Z"/><path class="cls-1" d="M113.56,48.52l-.09-.84H91.92a8.63,8.63,0,0,0-8.64,8.63v3.43h15.6C97,67.62,91.5,71.64,82.36,71.64A18.59,18.59,0,0,1,71.12,68a15.91,15.91,0,0,1-5.87-7.46c-1.43-3.35-2.18-6.11-2.18-14.41-.09-9.29-.59-16.66-2.52-22.78a39.16,39.16,0,0,0-5.28-10A33,33,0,0,0,50.07,8,.79.79,0,0,0,49,8.06L39.42,18.45c-.25.34-.25.84.08,1a13.9,13.9,0,0,1,3.44,3.26A19.75,19.75,0,0,1,46.8,30.6c1.76,5.86,1.93,16.33,2.26,21.86A39.59,39.59,0,0,0,56.19,73a22.67,22.67,0,0,0,3.1,3.26A33.78,33.78,0,0,0,82.52,85a30.54,30.54,0,0,0,22.4-9.21c5.7-6,8.8-14.41,8.8-23.62A17.17,17.17,0,0,0,113.56,48.52Z"/><path class="cls-1" d="M82.52,32.52A19.48,19.48,0,0,1,92.25,35a9,9,0,0,0,10.15-1l5.2-4.53-.59-.67C101.23,22.47,92.59,19,82.86,19a35.63,35.63,0,0,0-18.12,4.69,74.82,74.82,0,0,1,2.19,16.92A18.19,18.19,0,0,1,82.52,32.52Z"/><path class="cls-1" d="M31.79,69.54c-10.57,0-16.11-9.13-16.11-26.05,0-12.22,2.85-20.35,8.47-24a.64.64,0,0,0,.09-1L14.76,8.15a.78.78,0,0,0-1.09-.09,26.72,26.72,0,0,0-5.2,5.45C2.85,21,0,31,0,43.49S2.85,66,8.39,73.65c5.7,7.54,13.5,11.22,23.4,11.22,8.89,0,16.1-3,21.55-9a42.15,42.15,0,0,1-7.55-17C43.19,65.77,38.41,69.54,31.79,69.54Z"/></svg>