<svg id="Grupo_Datco" data-name="Grupo Datco" xmlns="http://www.w3.org/2000/svg" viewBox="0 0 113.76 85.04"><defs><style>.cls-1{fill:#692d87;}</style></defs><path class="cls-1" d="M38.91,12.42,40.42,11a.54.54,0,0,0,0-.83,13,13,0,0,0-17.27,0,.63.63,0,0,0-.09.83l1.51,1.43a.48.48,0,0,0,.76,0,9.69,9.69,0,0,1,6.37-2.35,9.57,9.57,0,0,1,6.38,2.35C38.41,12.67,38.75,12.67,38.91,12.42Z"/><path class="cls-1" d="M29.1,16.44a2.69,2.69,0,1,0,2.69-2.68A2.65,2.65,0,0,0,29.1,16.44Z"/><path class="cls-1" d="M18.2,6.05h0l1.51,1.51a.56.56,0,0,0,.84,0A16.74,16.74,0,0,1,31.79,3.2,16.5,16.5,0,0,1,43,7.56a.64.64,0,0,0,.84,0l1.43-1.51a.65.65,0,0,0,.17-.42.67.67,0,0,0-.17-.42,20.1,20.1,0,0,0-27,0A.65.65,0,0,0,18.2,6.05Z"/><path class="cls-1" d="M113.56,48.52l-.09-.84H91.92a8.63,8.63,0,0,0-8.64,8.63v3.43h15.6C97,67.62,91.5,71.64,82.36,71.64A18.59,18.59,0,0,1,71.12,68a15.91,15.91,0,0,1-5.87-7.46c-1.43-3.35-2.18-6.11-2.18-14.41-.09-9.29-.59-16.66-2.52-22.78a39.16,39.16,0,0,0-5.28-10A32.55,32.55,0,0,0,50.07,8,.79.79,0,0,0,49,8.06L39.42,18.45c-.25.33-.25.84.08,1a14.14,14.14,0,0,1,3.44,3.27A19.69,19.69,0,0,1,46.8,30.6c1.76,5.86,1.93,16.33,2.26,21.86A39.59,39.59,0,0,0,56.19,73a23.27,23.27,0,0,0,3.1,3.27A33.84,33.84,0,0,0,82.53,85a30.52,30.52,0,0,0,22.39-9.21c5.7-6,8.8-14.41,8.8-23.62A17.17,17.17,0,0,0,113.56,48.52Z"/><path class="cls-1" d="M82.53,32.52A19.47,19.47,0,0,1,92.25,35a9,9,0,0,0,10.15-1l5.2-4.53-.59-.67C101.23,22.47,92.59,19,82.86,19a35.56,35.56,0,0,0-18.11,4.69,75.43,75.43,0,0,1,2.18,16.92A18.19,18.19,0,0,1,82.53,32.52Z"/><path class="cls-1" d="M31.79,69.54c-10.57,0-16.11-9.13-16.11-26.05,0-12.22,2.85-20.35,8.47-24a.63.63,0,0,0,.09-1L14.76,8.15a.78.78,0,0,0-1.09-.09,26.72,26.72,0,0,0-5.2,5.45C2.85,21,0,31,0,43.49S2.85,66,8.39,73.65c5.7,7.54,13.5,11.22,23.4,11.22,8.89,0,16.1-3,21.55-9a42.15,42.15,0,0,1-7.55-17C43.19,65.77,38.41,69.54,31.79,69.54Z"/></svg>